<?xml version="1.0" encoding="UTF-8" standalone="no"?>
<!-- Created with Inkscape (http://www.inkscape.org/) -->

<svg
   width="150.82697mm"
   height="191.41045mm"
   viewBox="0 0 150.82697 191.41045"
   version="1.1"
   id="svg41921"
   inkscape:version="1.1 (c68e22c387, 2021-05-23)"
   sodipodi:docname="bigben.svg"
   xmlns:inkscape="http://www.inkscape.org/namespaces/inkscape"
   xmlns:sodipodi="http://sodipodi.sourceforge.net/DTD/sodipodi-0.dtd"
   xmlns="http://www.w3.org/2000/svg"
   xmlns:svg="http://www.w3.org/2000/svg">
  <sodipodi:namedview
     id="namedview41923"
     pagecolor="#ffffff"
     bordercolor="#666666"
     borderopacity="1.0"
     inkscape:pageshadow="2"
     inkscape:pageopacity="0.0"
     inkscape:pagecheckerboard="0"
     inkscape:document-units="mm"
     showgrid="false"
     inkscape:zoom="0.72070006"
     inkscape:cx="277.50796"
     inkscape:cy="479.39499"
     inkscape:window-width="1920"
     inkscape:window-height="1017"
     inkscape:window-x="-8"
     inkscape:window-y="-8"
     inkscape:window-maximized="1"
     inkscape:current-layer="layer1" />
  <defs
     id="defs41918" />
  <g
     inkscape:label="Capa 1"
     inkscape:groupmode="layer"
     id="layer1"
     transform="translate(-31.719019,-21.841882)">
    <g
       id="g42035"
       transform="matrix(2.7407816,0,0,2.5651378,-179.16367,-215.05395)"
       style="fill:#0000c9;fill-opacity:1;stroke:#0000c9;stroke-width:0.15840056;stroke-miterlimit:4;stroke-dasharray:none;stroke-opacity:1;stroke-linejoin:round;stroke-linecap:round;paint-order:stroke fill markers">
      <path
         id="path42045"
         style="fill:#0000c9;fill-opacity:1;stroke:#0000c9;stroke-width:0.5986793;stroke-miterlimit:4;stroke-dasharray:none;stroke-opacity:1;stroke-linejoin:round;stroke-linecap:round;paint-order:stroke fill markers"
         transform="matrix(0.26458333,0,0,0.26458333,-1.1013597,14.317676)"
         d="m 398.22461,341.79883 c -2.08438,0 -4.16876,0.0512 -5.75,0.15039 -3.16252,0.19842 -0.575,0.35937 5.75,0.35937 6.325,0 8.91248,-0.16095 5.75,-0.35937 -1.58126,-0.0992 -3.66562,-0.15039 -5.75,-0.15039 z m -14.42383,6.24805 c -0.14253,-0.28632 -0.24521,1.25314 -0.24805,4.14062 -0.004,3.85017 0.17186,5.54673 0.39258,3.77148 0.22035,-1.77524 0.224,-4.92522 0.008,-7 -0.0541,-0.51869 -0.10483,-0.81669 -0.15234,-0.9121 z m 28,0.0254 c -0.14067,-0.20216 -0.24023,1.5215 -0.24023,4.61523 0,4.12494 0.17678,5.81249 0.39257,3.75 0.21582,-2.06249 0.21582,-5.43751 0,-7.5 -0.0539,-0.51563 -0.10545,-0.79785 -0.15234,-0.86523 z m -6.86719,14.80859 c -1.51309,-0.0224 -3.20053,-0.0209 -5.01953,0.01 l -12.18945,0.20313 12.5,0.59375 c 6.875,0.32704 12.63851,0.68538 12.80859,0.79688 0.16982,0.11147 0.0312,-0.24688 -0.30859,-0.79688 -0.27663,-0.44773 -3.25174,-0.73933 -7.79102,-0.80664 z m 6.82813,27.03711 c -0.1554,-0.1213 -0.26563,0.91326 -0.26563,2.76953 0,2.47487 0.19511,3.48749 0.4336,2.25 0.23849,-1.23749 0.23849,-3.26251 0,-4.5 -0.0596,-0.30938 -0.11617,-0.4791 -0.16797,-0.51953 z m 18.07617,65.61914 c -0.12076,-0.44473 -0.20703,3.34415 -0.20703,10.15039 0,9.07499 0.15269,12.78751 0.33789,8.25 0.1852,-4.53747 0.1852,-11.96249 0,-16.5 -0.0463,-1.13438 -0.0906,-1.75215 -0.13086,-1.90039 z m -52.03711,5.50977 c -0.14244,-0.28632 -0.24493,1.25311 -0.24805,4.14062 -0.004,3.85017 0.17167,5.54673 0.39258,3.77148 0.22076,-1.77524 0.22389,-4.92522 0.008,-7 -0.0541,-0.51868 -0.10486,-0.81669 -0.15234,-0.9121 z m 28.02149,0.5664 c -0.12942,-0.30997 -0.22071,2.33047 -0.22071,7.07422 0,6.325 0.16291,8.91248 0.36133,5.75 0.19843,-3.16252 0.19843,-8.33752 0,-11.5 -0.0496,-0.79063 -0.0975,-1.2209 -0.14062,-1.32422 z m -16.06055,3.30664 c -0.1554,-0.1213 -0.26563,0.91131 -0.26563,2.76758 0,2.47487 0.19511,3.48749 0.4336,2.25 0.23849,-1.23749 0.23849,-3.26251 0,-4.5 -0.0596,-0.30938 -0.11617,-0.47714 -0.16797,-0.51758 z m 40.01758,28.38281 c -0.14939,-0.14824 -0.25586,1.11603 -0.25586,3.38477 0,3.02517 0.18697,4.26249 0.41601,2.75 0.22904,-1.51249 0.22904,-3.98751 0,-5.5 -0.0573,-0.37812 -0.11036,-0.58535 -0.16015,-0.63477 z m -48.55469,3.49805 c -2.26563,0 -4.53125,0.0488 -6.25,0.14649 -3.4375,0.19502 -0.625,0.35546 6.25,0.35546 6.87501,0 9.68752,-0.16006 6.25,-0.35546 -1.71874,-0.0977 -3.98438,-0.14649 -6.25,-0.14649 z m 32.91211,0 c -2.35625,-5.6e-4 -4.7534,0.048 -6.6211,0.14453 -3.73536,0.19314 -0.94105,0.35151 6.20899,0.35352 7.14988,0.002 10.20563,-0.15692 6.79101,-0.35156 -1.7073,-0.0973 -4.02265,-0.14593 -6.3789,-0.14649 z m -36.33008,9.65625 c -0.13727,-0.22911 -0.23242,1.72424 -0.23242,5.23047 0,4.67501 0.17225,6.58752 0.38281,4.25 0.21052,-2.33749 0.21052,-6.16251 0,-8.5 -0.0526,-0.58438 -0.10463,-0.9041 -0.15039,-0.98047 z m 28.01563,1.1543 c -0.12942,-0.30997 -0.22071,2.33242 -0.22071,7.07617 0,6.325 0.16291,8.91248 0.36133,5.75 0.19843,-3.16252 0.19843,-8.33752 0,-11.5 -0.0496,-0.79062 -0.0975,-1.22285 -0.14062,-1.32617 z m 23.98046,0.0976 c -0.10822,0.1049 -0.18221,3.18477 -0.18359,8.47852 -0.002,7.69999 0.15408,10.98141 0.3457,7.29297 0.192,-3.68844 0.19199,-9.98845 0.002,-14 -0.0595,-1.25361 -0.11487,-1.81917 -0.16407,-1.77149 z m -40.04101,5.20899 c -0.1554,-0.1213 -0.26563,0.91326 -0.26563,2.76953 0,2.47487 0.19511,3.48749 0.4336,2.25 0.23849,-1.23749 0.23849,-3.26251 0,-4.5 -0.0596,-0.30938 -0.11617,-0.4791 -0.16797,-0.51953 z m 76.0039,2.54101 c -0.0991,-0.16698 -0.17499,1.93633 -0.32617,6.14454 -0.1663,4.62905 -0.0706,9.0165 0.21094,9.75 0.98192,2.55885 1.06955,1.27211 0.58203,-8.41407 -0.24537,-4.87612 -0.36766,-7.31349 -0.4668,-7.48047 z m 0.4004,19.83399 c -0.0465,-0.0175 -0.096,-0.0101 -0.1504,0.0234 -0.435,0.26887 -0.75635,2.37463 -0.71289,4.67968 0.0886,4.70419 0.594,4.0459 1.14063,-1.48828 0.17494,-1.77094 0.0482,-3.09238 -0.27734,-3.21484 z m -18.46094,8.97265 c -0.11367,0.16541 -0.19059,1.20314 -0.19531,2.92188 h -0.002 c -0.007,2.74862 0.18062,3.99364 0.41797,2.76367 0.23887,-1.22993 0.24548,-3.47995 0.0156,-5 -0.0862,-0.57002 -0.16813,-0.78477 -0.23633,-0.68555 z m -17.94336,0.65235 c -0.1554,-0.12129 -0.26563,0.91329 -0.26563,2.76953 0,2.47491 0.19511,3.48749 0.4336,2.25 0.23849,-1.23753 0.23849,-3.26251 0,-4.5 -0.0596,-0.30937 -0.11617,-0.4791 -0.16797,-0.51953 z m -51.94727,8.92383 c -0.13431,-0.25605 -0.23047,1.92697 -0.23047,5.8457 0,5.22501 0.16898,7.36249 0.375,4.75 0.20599,-2.61252 0.20599,-6.88748 0,-9.5 -0.0515,-0.65312 -0.0998,-1.01035 -0.14453,-1.0957 z m 28.00782,1.76953 c -0.12942,-0.30997 -0.22071,2.33242 -0.22071,7.07617 0,6.325 0.16291,8.91248 0.36133,5.75 0.19843,-3.16252 0.19843,-8.33752 0,-11.5 -0.0496,-0.79062 -0.0975,-1.22285 -0.14062,-1.32617 z m 41.89843,5.04883 c -0.10913,0.21142 -0.18277,1.46483 -0.1875,3.52734 -0.006,3.29813 0.17602,4.77024 0.4043,3.26758 0.22942,-1.50263 0.23437,-4.20265 0.0117,-6 -0.0834,-0.67401 -0.16304,-0.92178 -0.22852,-0.79492 z m -57.95898,0.25781 c -0.1554,-0.1213 -0.26563,0.91326 -0.26563,2.76953 0,2.47487 0.19511,3.48749 0.4336,2.25 0.23849,-1.23749 0.23849,-3.26251 0,-4.5 -0.0596,-0.30938 -0.11617,-0.4791 -0.16797,-0.51953 z m 47.46289,0.87891 c -1.35937,0 -2.71876,0.0542 -3.75,0.1621 -2.06253,0.21578 -0.37498,0.39258 3.75,0.39258 4.12494,0 5.81249,-0.17676 3.75,-0.39258 -1.03124,-0.1079 -2.39063,-0.1621 -3.75,-0.1621 z m 54,0 c -1.35937,0 -2.71876,0.0542 -3.75,0.1621 -2.06253,0.21578 -0.37498,0.39258 3.75,0.39258 4.12494,0 5.81249,-0.17676 3.75,-0.39258 -1.03124,-0.1079 -2.39063,-0.1621 -3.75,-0.1621 z m -27.88477,0.002 c -1.26875,10e-4 -2.50105,0.0574 -3.38867,0.16797 -1.7752,0.22087 -0.0765,0.39831 3.77344,0.39453 3.85002,-0.004 5.3013,-0.18578 3.22656,-0.40235 -1.03738,-0.10847 -2.34257,-0.16152 -3.61133,-0.16015 z m 7.42188,5.11914 c -0.1554,-0.1213 -0.26563,0.91326 -0.26563,2.76953 0,2.47487 0.19511,3.48749 0.4336,2.25 0.23849,-1.23749 0.23849,-3.26251 0,-4.5 -0.0596,-0.30938 -0.11617,-0.4791 -0.16797,-0.51953 z" />
      <path
         id="path42043"
         style="fill:#0000c9;fill-opacity:1;stroke:#0000c9;stroke-width:0.5986793;stroke-miterlimit:4;stroke-dasharray:none;stroke-opacity:1;stroke-linejoin:round;stroke-linecap:round;paint-order:stroke fill markers"
         transform="matrix(0.26458333,0,0,0.26458333,-1.1013597,14.317676)"
         d="m 380.80664,346.47852 c -0.13588,-0.14211 -0.23072,1.9965 -0.22852,5.70898 0.003,4.95001 0.1757,6.84978 0.38282,4.2207 0.20617,-2.62911 0.20456,-6.6791 -0.006,-9 -0.0524,-0.58022 -0.10315,-0.88232 -0.14844,-0.92968 z m 40.87891,19.39453 c -0.11932,0.11884 -0.2019,0.93943 -0.20899,2.31445 -0.0111,2.20003 0.18534,3.21783 0.43555,2.26172 0.24907,-0.95607 0.25892,-2.75608 0.0195,-4 -0.0897,-0.46647 -0.1745,-0.64748 -0.24609,-0.57617 z m -47.90625,0.42968 c -0.14939,-0.14824 -0.25586,1.11603 -0.25586,3.38477 0,3.02517 0.1869,4.26249 0.41601,2.75 0.22912,-1.51253 0.22912,-3.98751 0,-5.5 -0.0573,-0.37813 -0.11036,-0.58535 -0.16015,-0.63477 z m 51.03906,1.90625 c -0.1327,-0.37119 -0.22625,1.85352 -0.22852,5.97852 -0.003,5.50008 0.16429,7.87724 0.36914,5.2832 0.2041,-2.59408 0.20604,-7.09403 0.004,-10 -0.0507,-0.72648 -0.1003,-1.13799 -0.14453,-1.26172 z m -53.98828,4.15821 c -0.12621,-0.45495 -0.2153,2.45781 -0.2168,7.82031 -0.002,7.14988 0.15493,10.20563 0.34961,6.79102 0.19447,-3.41466 0.1964,-9.26462 0.004,-13 -0.0482,-0.93385 -0.0947,-1.45968 -0.13672,-1.61133 z m 27.39453,8.4375 c -3.17187,0 -6.34375,0.047 -8.75,0.13867 -4.81251,0.18331 -0.87498,0.33203 8.75,0.33203 9.62502,0 13.56247,-0.14872 8.75,-0.33203 -2.40626,-0.0916 -5.57813,-0.13867 -8.75,-0.13867 z m -24.25,3.53711 c -0.41248,0.25496 -0.69015,3.24928 -0.61523,6.65429 0.1421,6.46266 0.57391,5.47242 1.07226,-2.46289 0.16078,-2.55998 -0.0445,-4.44652 -0.45703,-4.1914 z m 8.03125,3.42382 c -1.00363,0.0618 -1.01056,0.18892 -0.0312,0.58399 0.68752,0.27742 1.32209,2.38023 1.41016,4.67187 0.14725,3.83365 0.19273,3.89814 0.57031,0.82032 0.49175,-4.00827 -0.20608,-6.18346 -1.94922,-6.07618 z m -13.32031,3.10743 c -0.1194,0.11885 -0.20214,0.93946 -0.20899,2.31445 -0.0111,2.20006 0.18527,3.21779 0.43555,2.26172 0.25013,-0.95611 0.25889,-2.75608 0.0195,-4 -0.0897,-0.46646 -0.17446,-0.64748 -0.24609,-0.57617 z m 5.15625,15.82422 c -0.11676,-0.43034 -0.19793,4.24022 -0.19727,12.49023 8.7e-4,10.99997 0.14759,15.36402 0.32617,9.69727 0.17817,-5.66676 0.17775,-14.66675 -0.002,-20 -0.0449,-1.33332 -0.088,-2.04406 -0.12695,-2.1875 z m -3,0.98632 c -0.11773,-0.62037 -0.20045,3.6664 -0.20118,11.50391 -9.3e-4,10.44998 0.14702,14.86163 0.32813,9.80273 0.18138,-5.05893 0.18187,-13.60892 0.002,-19 -0.045,-1.34776 -0.0897,-2.09984 -0.1289,-2.30664 z m 54,0 c -0.11767,-0.62037 -0.20047,3.6664 -0.20118,11.50391 -7e-4,10.44998 0.14709,14.86163 0.32813,9.80273 0.18153,-5.05893 0.18199,-13.60892 0.002,-19 -0.045,-1.34776 -0.0897,-2.09984 -0.1289,-2.30664 z m -3.00196,3.23829 c -0.11953,-0.47169 -0.20507,3.54688 -0.20507,10.76562 0,9.62502 0.15067,13.56251 0.33398,8.75 0.18331,-4.81251 0.18331,-12.68749 0,-17.5 -0.0458,-1.20313 -0.0891,-1.85845 -0.12891,-2.01562 z m -24.61523,37.89062 c -4.80313,0 -9.60625,0.0415 -13.25,0.12695 -7.2875,0.17084 -1.32499,0.31055 13.25,0.31055 14.57499,0 20.5375,-0.13971 13.25,-0.31055 -3.64375,-0.0854 -8.44687,-0.12695 -13.25,-0.12695 z m 1.93555,2.99805 c -4.53126,-1.8e-4 -9.10665,0.0429 -12.62891,0.1289 -7.04451,0.17197 -1.55668,0.31385 12.19336,0.31446 13.75,7.5e-4 19.51213,-0.13978 12.80664,-0.3125 -3.35274,-0.0863 -7.83984,-0.13069 -12.37109,-0.13086 z m -18.33789,9.80273 c -0.1294,-0.30997 -0.22071,2.33047 -0.22071,7.07422 0,6.325 0.16287,8.91248 0.36133,5.75 0.19846,-3.16252 0.19846,-8.33752 0,-11.5 -0.0496,-0.79063 -0.0975,-1.2209 -0.14062,-1.32422 z m 34,0 c -0.12942,-0.30997 -0.22071,2.33047 -0.22071,7.07422 0,6.325 0.16291,8.91248 0.36133,5.75 0.19843,-3.16252 0.19843,-8.33752 0,-11.5 -0.0496,-0.79063 -0.0975,-1.2209 -0.14062,-1.32422 z m 3,0 c -0.12942,-0.30997 -0.22071,2.33047 -0.22071,7.07422 0,6.325 0.16291,8.91248 0.36133,5.75 0.19843,-3.16252 0.19843,-8.33752 0,-11.5 -0.0496,-0.79063 -0.0975,-1.2209 -0.14062,-1.32422 z m -2.84766,41.72461 c -0.41257,0.25682 -0.67425,5.27817 -0.58203,11.1582 0.1731,11.00814 0.58475,9.46826 1.06054,-3.96679 0.14918,-4.21183 -0.066,-7.44804 -0.47851,-7.19141 z m -34.15234,4.27344 c -0.1294,-0.30997 -0.22071,2.33242 -0.22071,7.07617 0,6.325 0.16287,8.91248 0.36133,5.75 0.19846,-3.16252 0.19846,-8.33752 0,-11.5 -0.0496,-0.79062 -0.0975,-1.22285 -0.14062,-1.32617 z m 37,0 c -0.12942,-0.30997 -0.22071,2.33242 -0.22071,7.07617 0,6.325 0.16291,8.91248 0.36133,5.75 0.19843,-3.16252 0.19843,-8.33752 0,-11.5 -0.0496,-0.79062 -0.0975,-1.22285 -0.14062,-1.32617 z m 16.27343,24.18945 c -0.90624,-0.003 -1.84739,0.0531 -2.60742,0.16797 v 0.002 c -1.52005,0.22976 -0.51365,0.42408 2.23633,0.43164 2.74862,0.007 3.99364,-0.18066 2.76367,-0.41796 -0.61497,-0.11944 -1.48633,-0.18095 -2.39258,-0.1836 z m 2.12891,2.9961 c -1.17813,0 -2.35624,0.0551 -3.25,0.16601 -1.78749,0.22193 -0.32502,0.4043 3.25,0.4043 3.57505,0 5.03749,-0.18244 3.25,-0.4043 -0.89376,-0.11093 -2.07187,-0.16601 -3.25,-0.16601 z m 47.59375,4.10546 c -0.0689,-0.11717 -0.15855,1.48236 -0.33789,4.67969 -0.19729,3.51708 -0.12591,7.00457 0.16015,7.75 0.56266,1.46634 13.05778,2.00941 13.93165,0.60547 0.25678,-0.41416 -2.64208,-0.60052 -6.44141,-0.41797 -6.90773,0.33207 -6.90685,0.33206 -7.09961,-7 -0.0964,-3.66603 -0.14396,-5.50001 -0.21289,-5.61719 z M 379.125,539.79883 c -1.8125,-7.1e-4 -3.66422,0.0491 -5.11719,0.15039 v -0.002 c -2.90594,0.20258 -0.7832,0.37002 4.7168,0.37304 5.50009,0.003 7.87724,-0.16196 5.2832,-0.36719 -1.29703,-0.10218 -3.07031,-0.15358 -4.88281,-0.15429 z m 36.09961,0 c -2.08437,0 -4.16876,0.0492 -5.75,0.14844 -3.16252,0.19842 -0.575,0.36132 5.75,0.36132 6.325,0 8.91252,-0.1629 5.75,-0.36132 -1.58124,-0.0992 -3.66563,-0.14844 -5.75,-0.14844 z m 65.57812,0.0996 c -0.0366,-0.039 -0.12749,1.63255 -0.30664,4.97656 -0.31971,5.96965 -0.59403,6.7306 -2.56445,7.0957 -1.84301,0.34243 -1.79427,0.39301 0.29297,0.3125 2.41293,-0.0931 2.50096,-0.33987 2.56445,-7.0957 0.0329,-3.49992 0.0502,-5.25009 0.0137,-5.28906 z m -85.57812,2.91211 c -4.44062,0 -8.88125,0.0423 -12.25,0.1289 -6.73751,0.17273 -1.22499,0.31446 12.25,0.31446 13.475,0 18.9875,-0.14135 12.25,-0.31446 -3.36875,-0.0865 -7.80938,-0.1289 -12.25,-0.1289 z m 42,8.98828 c -1.35937,0 -2.71876,0.0542 -3.75,0.16211 -2.06253,0.21573 -0.37498,0.39062 3.75,0.39062 4.12494,0 5.81249,-0.17481 3.75,-0.39062 -1.03124,-0.10791 -2.39063,-0.16211 -3.75,-0.16211 z m 26.87695,0.002 c -1.0875,-0.002 -2.2107,0.0528 -3.10937,0.16406 -1.79736,0.22247 -0.56756,0.40846 2.73242,0.41602 3.29817,0.006 4.7702,-0.17797 3.26758,-0.40625 -0.75133,-0.11471 -1.80313,-0.17184 -2.89063,-0.17383 z m 37.61914,2.85938 c -0.10913,0.21142 -0.18277,1.46483 -0.1875,3.52734 -0.006,3.30191 0.17602,4.77024 0.4043,3.26758 0.22942,-1.50263 0.23443,-4.20265 0.0117,-6 -0.0834,-0.67401 -0.16304,-0.92178 -0.22852,-0.79492 z m -22.71679,0.10546 c -1.00252,0.0618 -1.00835,0.18892 -0.0293,0.58399 0.85028,0.34307 1.31479,3.43645 1.45312,9.67187 h -0.002 c 0.20372,9.16668 0.20357,9.16641 0.54297,0.75 0.36786,-9.11705 0.009,-11.12751 -1.96484,-11.00586 z m 11.2207,0.0352 c -0.99687,0 -1.99375,0.0574 -2.75,0.17188 -1.51253,0.22911 -0.27498,0.41601 2.75,0.41601 3.02517,0 4.26249,-0.18697 2.75,-0.41601 -0.75627,-0.11452 -1.75313,-0.17188 -2.75,-0.17188 z m -25.13086,0.006 c -0.725,-0.004 -1.48546,0.0542 -2.10742,0.17383 v -0.002 c -1.24392,0.23924 -0.46175,0.44374 1.73828,0.45507 2.20002,0.0111 3.21783,-0.18534 2.26172,-0.43554 -0.47804,-0.12454 -1.16758,-0.18791 -1.89258,-0.19141 z m -27.67969,0.0566 c -6.69086,0.17658 -6.68948,0.17739 0.31055,0.82422 3.84998,0.35577 7.13851,0.72513 7.30859,0.82227 0.16982,0.0971 0.0312,-0.27227 -0.30859,-0.82227 -0.33993,-0.55015 -3.6305,-0.92135 -7.31055,-0.82422 z m -22.5957,0.36328 c -0.13176,-0.28301 -0.22461,2.12969 -0.22461,6.46094 0,5.775 0.16536,8.13752 0.36719,5.25 0.20182,-2.88748 0.20182,-7.61252 0,-10.5 -0.0505,-0.72188 -0.0987,-1.1166 -0.14258,-1.21094 z m 83.51367,0.23047 c -0.36217,-0.0731 -0.44777,1.09943 -0.1875,2.98047 0.47785,3.45116 0.54738,3.5225 0.87695,0.87891 0.19699,-1.57951 -0.0351,-3.26751 -0.51757,-3.75 -0.0629,-0.0629 -0.12014,-0.0989 -0.17188,-0.10938 z m -117.50976,0.13867 c -0.13047,-0.39923 -0.22311,2.0543 -0.22461,6.5918 -0.002,6.04997 0.16003,8.65452 0.36132,5.78711 0.20138,-2.86741 0.20419,-7.81741 0.006,-11 -0.0498,-0.79565 -0.0991,-1.24583 -0.14257,-1.37891 z m 37,0.0156 c -0.12942,-0.30997 -0.22071,2.33242 -0.22071,7.07617 0,6.325 0.16291,8.91248 0.36133,5.75 0.19843,-3.16252 0.19843,-8.33752 0,-11.5 -0.0496,-0.79062 -0.0975,-1.22285 -0.14062,-1.32617 z m 83.89843,11.04883 c -0.10913,0.21142 -0.18277,1.46483 -0.1875,3.52734 -0.006,3.29813 0.17602,4.77024 0.4043,3.26758 0.22942,-1.50263 0.23443,-4.20265 0.0117,-6 -0.0834,-0.67401 -0.16304,-0.92178 -0.22852,-0.79492 z m -2.95898,0.25781 c -0.1554,-0.1213 -0.26563,0.91326 -0.26563,2.76953 0,2.47487 0.19511,3.48749 0.4336,2.25 0.23849,-1.23749 0.23849,-3.26251 0,-4.5 -0.0596,-0.30938 -0.11617,-0.4791 -0.16797,-0.51953 z m -15.07617,0.95508 c -0.11932,0.11885 -0.2019,0.93946 -0.20899,2.31445 -0.0111,2.20006 0.18534,3.21779 0.43555,2.26172 0.24907,-0.95611 0.25892,-2.75608 0.0195,-4 -0.0897,-0.46646 -0.1745,-0.64748 -0.24609,-0.57617 z" />
      <path
         id="path42041"
         style="fill:#0000c9;fill-opacity:1;stroke:#0000c9;stroke-width:0.5986793;stroke-miterlimit:4;stroke-dasharray:none;stroke-opacity:1;stroke-linejoin:round;stroke-linecap:round;paint-order:stroke fill markers"
         transform="matrix(0.26458333,0,0,0.26458333,-1.1013597,14.317676)"
         d="m 398.14258,344.80273 c -2.71875,-5.1e-4 -5.47924,0.0467 -7.62305,0.14063 -4.28765,0.18784 -1.04491,0.34277 7.20508,0.34375 8.24999,0.002 11.75726,-0.15244 7.79492,-0.3418 -1.98119,-0.0948 -4.6582,-0.14206 -7.37695,-0.14258 z m 16.67187,2.03907 c -0.13431,-0.25605 -0.23047,1.92697 -0.23047,5.8457 0,5.22501 0.16902,7.36249 0.375,4.75 0.20599,-2.61252 0.20599,-6.88748 0,-9.5 -0.0515,-0.65312 -0.0998,-1.01035 -0.14453,-1.0957 z m -16.58984,12.96093 c -2.62813,0 -5.25624,0.0477 -7.25,0.14258 -3.98748,0.18973 -0.72499,0.34375 7.25,0.34375 7.97503,0 11.23751,-0.15402 7.25,-0.34375 -1.99374,-0.0949 -4.62187,-0.14258 -7.25,-0.14258 z m -8,36.99415 c -1.17813,0 -2.35626,0.0551 -3.25,0.16601 -1.78749,0.22193 -0.32502,0.4043 3.25,0.4043 3.57502,0 5.03753,-0.18244 3.25,-0.4043 -0.89375,-0.11093 -2.07187,-0.16602 -3.25,-0.16601 z m -21.39258,60.95703 c -0.12441,-0.48268 -0.21139,2.65859 -0.21289,8.43359 -0.002,7.69999 0.15401,10.98141 0.3457,7.29297 0.19202,-3.68844 0.19206,-9.98845 0.002,-14 -0.0476,-1.00289 -0.0933,-1.56567 -0.13477,-1.72656 z m 57.99805,0.62695 c -0.12549,-0.36388 -0.21485,2.73789 -0.21485,8.30664 0,7.42503 0.15724,10.46252 0.34961,6.75 0.19238,-3.71248 0.19238,-9.78752 0,-13.5 -0.0481,-0.92813 -0.0929,-1.43535 -0.13476,-1.55664 z m -34.00781,3.23047 c -0.12942,-0.30997 -0.22071,2.33242 -0.22071,7.07617 0,6.325 0.16291,8.91248 0.36133,5.75 0.19843,-3.16252 0.19843,-8.33752 0,-11.5 -0.0496,-0.79063 -0.0975,-1.22285 -0.14062,-1.32617 z m 10,0 c -0.12942,-0.30997 -0.22071,2.33242 -0.22071,7.07617 0,6.325 0.16291,8.91248 0.36133,5.75 0.19843,-3.16252 0.19843,-8.33752 0,-11.5 -0.0496,-0.79063 -0.0975,-1.22285 -0.14062,-1.32617 z m -33.98438,21.89453 c -0.07,-0.10047 -0.16379,1.11823 -0.35351,3.55469 -0.20875,2.68014 -0.14221,5.49262 0.14843,6.25 0.29064,0.75738 1.33078,1.32364 2.31055,1.25976 1.66949,-0.10873 1.67159,-0.14366 0.0312,-0.57226 -1.37835,-0.36019 -1.78968,-1.66366 -1.93164,-6.13477 -0.0901,-2.83833 -0.1351,-4.25695 -0.20508,-4.35742 z m 57.83789,0.13086 c -0.1009,0.10138 -0.22387,1.65202 -0.4668,4.7539 -0.26728,3.41216 -0.12167,5.83868 0.32227,5.39258 0.44394,-0.44609 0.66321,-3.2371 0.48633,-6.20312 -0.16067,-2.69639 -0.2409,-4.04475 -0.3418,-3.94336 z m 0.041,12.55078 -0.4961,15.20312 c -0.27303,8.36168 -0.14689,14.85173 0.28125,14.42188 0.42826,-0.42981 0.65301,-7.27135 0.49805,-15.20312 z m -57.94336,3.57812 c -0.0662,-0.0906 -0.14374,3.39712 -0.29883,10.37305 -0.17061,7.6735 -0.0865,14.53605 0.1875,15.25 0.27398,0.71399 1.30148,1.24552 2.28125,1.18164 1.66949,-0.1087 1.67159,-0.14366 0.0312,-0.57226 -1.55339,-0.40596 -1.77598,-2.107 -1.9707,-15.13477 -0.10968,-7.33835 -0.16428,-11.00705 -0.23047,-11.09766 z m 23.70117,3.57227 c -0.76815,-0.47785 -0.53841,19.84312 0.25,22.09961 0.24023,0.6875 1.23898,1.19669 2.21875,1.13281 1.66836,-0.1087 1.67159,-0.14366 0.0312,-0.57226 -1.53116,-0.40018 -1.75,-1.81497 -1.75,-11.32422 0,-5.97721 -0.3375,-11.07931 -0.75,-11.33594 z m 10.5,0 c -0.41246,0.25667 -0.75,5.35873 -0.75,11.33594 0,9.48695 -0.22235,10.93244 -1.75,11.38281 -1.36271,0.40139 -1.30717,0.47086 0.25,0.3125 1.84169,-0.18705 2.03958,-1.12452 2.5,-11.84961 0.27519,-6.40588 0.1625,-11.43827 -0.25,-11.18164 z m 59.80469,16.96484 c -0.1494,-0.14824 -0.25586,1.11603 -0.25586,3.38477 0,3.02517 0.18697,4.26249 0.41601,2.75 0.22904,-1.51249 0.22904,-3.98751 0,-5.5 -0.0573,-0.37812 -0.11035,-0.58535 -0.16015,-0.63477 z m -94.0586,10.35743 c -0.10943,0.21142 -0.18372,1.46483 -0.1875,3.52734 -0.006,3.29813 0.17613,4.77024 0.4043,3.26758 0.22817,-1.50263 0.2344,-4.20265 0.0117,-6 -0.0835,-0.67401 -0.16286,-0.92178 -0.22852,-0.79492 z m 58,0 c -0.10913,0.21142 -0.18277,1.46483 -0.1875,3.52734 -0.006,3.29813 0.17602,4.77024 0.4043,3.26758 0.22942,-1.50263 0.23443,-4.20265 0.0117,-6 -0.0834,-0.67401 -0.16304,-0.92178 -0.22852,-0.79492 z m 35.96485,6.21093 c -0.11932,0.11885 -0.2019,0.94139 -0.20899,2.31641 -0.0111,2.20003 0.18534,3.21783 0.43555,2.26172 0.24907,-0.95607 0.25892,-2.75608 0.0195,-4 -0.0897,-0.46647 -0.1745,-0.64943 -0.24609,-0.57813 z m 11.08593,2.08399 c -0.10018,-0.16971 -0.17852,1.42962 -0.33593,4.62695 -0.17318,3.51708 -0.081,7.00457 0.20507,7.75 0.9738,2.53784 1.08465,1.36528 0.59766,-6.39258 -0.24332,-3.87615 -0.36661,-5.81467 -0.4668,-5.98437 z m -28.9707,1.11719 c -0.14067,-0.20216 -0.24023,1.5215 -0.24023,4.61523 0,4.12494 0.17681,5.81249 0.39257,3.75 0.21582,-2.06249 0.21582,-5.43751 0,-7.5 -0.0539,-0.51563 -0.10545,-0.79785 -0.15234,-0.86523 z m -75.9668,9.07812 c -0.12222,-0.41777 -0.20703,3.14337 -0.20703,9.53711 0,8.52499 0.15238,12.01251 0.33985,7.75 0.18746,-4.26248 0.18746,-11.23749 0,-15.5 -0.0469,-1.06563 -0.0921,-1.64785 -0.13282,-1.78711 z m 58.00196,0 c -0.12225,-0.41777 -0.20899,3.14337 -0.20899,9.53711 0,8.52499 0.15238,12.01251 0.33985,7.75 0.18746,-4.26248 0.18746,-11.23749 0,-15.5 -0.0469,-1.06563 -0.0901,-1.64785 -0.13086,-1.78711 z m -34.01367,6.46094 c -0.12942,-0.30997 -0.22071,2.33242 -0.22071,7.07617 0,6.325 0.16291,8.91248 0.36133,5.75 0.19843,-3.16252 0.19843,-8.33752 0,-11.5 -0.0496,-0.79062 -0.0975,-1.22285 -0.14062,-1.32617 z m 10,0 c -0.12942,-0.30997 -0.22071,2.33242 -0.22071,7.07617 0,6.325 0.16291,8.91248 0.36133,5.75 0.19843,-3.16252 0.19843,-8.33752 0,-11.5 -0.0496,-0.79062 -0.0975,-1.22285 -0.14062,-1.32617 z m 70.99218,3.23047 c -0.13431,-0.25606 -0.23047,1.92694 -0.23047,5.8457 0,5.22501 0.16902,7.36252 0.375,4.75 0.20599,-2.61249 0.20599,-6.88751 0,-9.5 -0.0515,-0.65312 -0.0998,-1.01035 -0.14453,-1.0957 z m -36.69922,5.95508 c -1.44999,-10e-4 -2.93921,0.0506 -4.11523,0.15624 v 0.002 c -2.35204,0.21116 -0.67537,0.38684 3.72461,0.39062 4.40001,0.004 6.32336,-0.16971 4.27539,-0.38476 -1.02397,-0.10791 -2.43477,-0.16279 -3.88477,-0.16406 z m 27.22461,0 c -1.26875,9.5e-4 -2.50106,0.0576 -3.38867,0.16796 -1.77524,0.22088 -0.0766,0.39826 3.77344,0.39454 3.84998,-0.004 5.30133,-0.18578 3.22656,-0.40235 -1.03738,-0.10847 -2.34258,-0.16157 -3.61133,-0.16015 z m 27,0 c -1.26875,9.5e-4 -2.50106,0.0576 -3.38867,0.16796 -1.77524,0.22088 -0.0766,0.39826 3.77344,0.39454 3.84998,-0.004 5.30133,-0.18578 3.22656,-0.40235 -1.03738,-0.10847 -2.34258,-0.16157 -3.61133,-0.16015 z" />
      <path
         id="path42039"
         style="fill:#0000c9;fill-opacity:1;stroke:#0000c9;stroke-width:0.5986793;stroke-miterlimit:4;stroke-dasharray:none;stroke-opacity:1;stroke-linejoin:round;stroke-linecap:round;paint-order:stroke fill markers"
         transform="matrix(0.26458333,0,0,0.26458333,-1.1013597,14.317676)"
         d="m 396.76562,298.01367 c -0.12417,0.0134 -0.21029,1.52695 -0.21289,4.17383 -0.004,3.85001 0.17148,5.54672 0.39258,3.77148 0.22035,-1.77523 0.22419,-4.92522 0.008,-7 -0.0676,-0.64836 -0.13105,-0.95138 -0.1875,-0.94531 z m -0.0801,92.86133 c -0.11932,0.11885 -0.2019,0.93946 -0.20899,2.31445 -0.0111,2.20007 0.18534,3.21779 0.43555,2.26172 0.24907,-0.95611 0.2588,-2.75608 0.0195,-4 -0.0897,-0.46645 -0.1745,-0.64748 -0.24609,-0.57617 z m -31.91407,8.31445 -0.29687,18.96875 c -0.16297,10.43305 -0.075,19.54557 0.19531,20.25 0.27032,0.70443 1.51867,1.21937 2.77344,1.14453 2.28137,-0.13617 2.2813,-0.135 0.0312,-0.56835 -2.23305,-0.43012 -2.25172,-0.58298 -2.47656,-20.11524 z m 65.95704,0 -0.27344,19.75 c -0.27152,19.63737 -0.28579,19.74965 -2.50196,19.86719 -1.77746,0.0944 -1.62103,0.27404 0.77149,0.88281 1.64999,0.41987 3,0.81705 3,0.88282 0,0.0656 -0.22403,-9.21978 -0.49805,-20.63282 z m -67.91407,7.44141 c -0.10238,0.17251 -0.17317,4.37423 -0.17383,11.55859 -9.7e-4,10.45002 0.14702,14.85972 0.32813,9.80078 0.18134,-5.05893 0.18204,-13.60892 0.002,-19 -0.0563,-1.68471 -0.10971,-2.43778 -0.15625,-2.35937 z m 33.56641,1.91797 c -0.32321,0.16427 -0.40665,2.19291 -0.17383,4.9375 h 0.002 c 0.48394,5.70308 0.48205,5.70204 0.8086,0.8125 0.17956,-2.68921 -0.0367,-5.25567 -0.48242,-5.70313 -0.0558,-0.0559 -0.10813,-0.0703 -0.1543,-0.0469 z m 1.95117,6.41211 c -0.0494,0.0539 0.33737,0.38231 1.12695,1.02148 0.95407,0.7722 1.44033,1.69639 1.08204,2.05469 v 0.002 c -0.3583,0.35819 -0.42025,0.65039 -0.13868,0.65039 0.28143,0 1.35746,-1.0125 2.39063,-2.25 1.03313,-1.23764 1.2591,-1.70863 0.50195,-1.04687 -0.97474,0.85175 -1.98997,0.9093 -3.47461,0.19531 -0.95457,-0.45902 -1.43891,-0.68084 -1.48828,-0.62695 z m -16.65625,16.24414 c -0.0519,0.0167 0.041,0.16735 0.29883,0.46094 0.68753,0.78289 1.25,1.80877 1.25,2.28125 0,0.47244 -0.56247,0.52244 -1.25,0.10937 -0.84934,-0.51027 -0.81146,-0.20825 0.12109,0.94141 1.44603,1.78265 2.64554,2.33696 1.68164,0.77734 -0.31086,-0.50302 -0.078,-1.07892 0.51758,-1.27734 0.59562,-0.19854 0.0356,-1.23725 -1.24414,-2.3086 -0.79982,-0.66959 -1.28842,-1.01222 -1.375,-0.98437 z m 31.6543,0.41601 c -0.16536,-0.0127 -0.92116,0.53712 -2.11719,1.56836 -1.91365,1.65003 -3.60474,3.04846 -3.75781,3.10743 -0.15319,0.0588 0.0204,0.88219 0.38476,1.83203 v 0.002 c 0.50665,1.3203 0.84936,1.4227 1.45704,0.43945 0.43728,-0.70734 0.52608,-1.72167 0.19726,-2.2539 -0.33906,-0.54841 0.0902,-0.70363 0.99219,-0.35743 0.90996,0.34919 2.15729,-0.11312 2.91406,-1.08007 1.189,-1.51934 1.14489,-1.54975 -0.42773,-0.31641 -2.2489,1.76409 -2.25677,0.39357 -0.0137,-2.29492 0.35772,-0.42874 0.47032,-0.6389 0.3711,-0.64649 z m -33.10547,7.17774 c -1.35938,0 -2.71875,0.0542 -3.75,0.16211 -2.0625,0.21577 -0.375,0.39258 3.75,0.39258 4.12493,0 5.81249,-0.17677 3.75,-0.39258 -1.03125,-0.10791 -2.39063,-0.16211 -3.75,-0.16211 z m 36,0 c -1.17813,0 -2.35626,0.0551 -3.25,0.16601 -1.78753,0.22194 -0.32498,0.4043 3.25,0.4043 3.57505,0 5.03749,-0.18244 3.25,-0.4043 -0.89375,-0.11093 -2.07187,-0.16601 -3.25,-0.16601 z m -18.05859,2.01758 c -5.61875,-1.5e-4 -11.28051,0.0417 -15.62891,0.125 -8.69684,0.16667 -1.86249,0.30228 15.1875,0.30273 17.05002,3.8e-4 24.16567,-0.13568 15.8125,-0.30273 -4.17659,-0.0836 -9.75234,-0.12486 -15.37109,-0.125 z m -7.35743,24.45898 c -0.0362,-0.0376 -0.12553,2.01372 -0.30468,6.11328 -0.3583,8.19912 -0.35994,8.19751 -5.57032,8.59375 -5.21048,0.3961 -5.20898,0.39798 0.29102,0.30274 5.49989,-0.0954 5.49957,-0.0957 5.56836,-8.59571 0.0344,-4.24998 0.0518,-6.37645 0.0156,-6.41406 z m 13.96485,1.125 c -0.12079,0.0261 -0.20444,1.76405 -0.20703,4.78906 -0.004,4.40002 0.16813,6.32337 0.38281,4.27539 0.21581,-2.04793 0.2189,-5.64792 0.008,-8 -0.066,-0.73501 -0.12869,-1.07632 -0.18359,-1.06445 z m -31.54883,13.4043 c -0.81563,0 -1.63125,0.0585 -2.25,0.17773 -1.2375,0.23834 -0.225,0.4336 2.25,0.4336 2.47499,0 3.4875,-0.19511 2.25,-0.4336 -0.61875,-0.11924 -1.43438,-0.17773 -2.25,-0.17773 z m 24.87109,0 c -0.90624,-0.003 -1.84739,0.0531 -2.60742,0.16797 -1.52009,0.22975 -0.51365,0.42408 2.23633,0.43164 2.74862,0.007 3.99364,-0.18062 2.76367,-0.41797 -0.61497,-0.11943 -1.48633,-0.179 -2.39258,-0.18164 z m 12.12891,0 c -0.81563,0 -1.63125,0.0585 -2.25,0.17773 -1.23749,0.23834 -0.22499,0.4336 2.25,0.4336 2.47491,0 3.48749,-0.19511 2.25,-0.4336 -0.61877,-0.11924 -1.43437,-0.17773 -2.25,-0.17773 z m 12,0 c -0.81563,0 -1.63125,0.0585 -2.25,0.17773 -1.23749,0.23834 -0.22499,0.4336 2.25,0.4336 2.47491,0 3.48749,-0.19511 2.25,-0.4336 -0.61877,-0.11924 -1.43437,-0.17773 -2.25,-0.17773 z m -13,1.99609 c -0.99687,0 -1.99375,0.0574 -2.75,0.17188 -1.51253,0.22915 -0.27498,0.41601 2.75,0.41601 3.02513,0 4.26253,-0.18697 2.75,-0.41601 -0.75625,-0.11452 -1.75313,-0.17188 -2.75,-0.17188 z m 3,11.99805 c -1.17813,0 -2.35624,0.0551 -3.25,0.16601 -1.78749,0.22194 -0.32502,0.4043 3.25,0.4043 3.57505,0 5.03749,-0.18244 3.25,-0.4043 -0.89376,-0.11093 -2.07187,-0.16601 -3.25,-0.16601 z m -26.12305,0.002 c -1.0875,-0.002 -2.21071,0.0528 -3.10937,0.16406 -1.79737,0.22247 -0.56756,0.40846 2.73242,0.41602 3.29817,0.006 4.7702,-0.17797 3.26758,-0.40625 -0.75133,-0.11471 -1.80313,-0.17184 -2.89063,-0.17383 z m 12.0625,2.01367 c -5.25625,-1.5e-4 -10.55582,0.0429 -14.6289,0.12696 -8.14613,0.16819 -1.76055,0.30618 14.18945,0.30664 15.95002,3.7e-4 22.6144,-0.1377 14.81055,-0.30664 -3.90193,-0.0843 -9.11485,-0.1268 -14.3711,-0.12696 z m -7.35742,10.66602 c -0.13586,-0.14211 -0.23074,1.99648 -0.22852,5.70898 h 0.002 c 0.003,4.94997 0.17607,6.84787 0.38281,4.21875 0.20485,-2.62907 0.20214,-6.6791 -0.008,-9 -0.0524,-0.58022 -0.10315,-0.88036 -0.14844,-0.92773 z m 14.00781,0.36328 c -0.13431,-0.25606 -0.23047,1.92695 -0.23047,5.8457 0,5.22501 0.16902,7.36249 0.375,4.75 0.20599,-2.61252 0.20599,-6.88751 0,-9.5 -0.0515,-0.65313 -0.0998,-1.01035 -0.14453,-1.0957 z m 51.94727,31.07617 c -0.1554,-0.12129 -0.26563,0.91329 -0.26563,2.76953 0,2.47488 0.19511,3.48753 0.4336,2.25 0.23849,-1.23749 0.23849,-3.2625 0,-4.5 -0.0596,-0.30937 -0.11617,-0.4791 -0.16797,-0.51953 z m 15,0 c -0.1554,-0.12129 -0.26563,0.91329 -0.26563,2.76953 0,2.47488 0.19511,3.48753 0.4336,2.25 0.23849,-1.23749 0.23849,-3.2625 0,-4.5 -0.0596,-0.30937 -0.11617,-0.4791 -0.16797,-0.51953 z m -80.78711,13.41992 c -0.41269,0.25652 -0.67791,4.37816 -0.58984,9.15821 0.16327,8.8662 0.5618,7.56122 1.06054,-3.4668 0.15319,-3.38653 -0.0582,-5.94804 -0.4707,-5.69141 z m 13.46289,0.20313 c -0.3722,0.0994 -0.47476,3.93556 -0.2207,8.93945 0.49304,9.70454 0.49281,9.70564 0.79101,0.79688 0.16407,-4.89982 -0.057,-9.26737 -0.49219,-9.70508 -0.0272,-0.0274 -0.0533,-0.038 -0.0781,-0.0312 z m 52.72852,2.75195 c -0.0465,-0.0175 -0.096,-0.0102 -0.1504,0.0234 -0.43501,0.26887 -0.75635,2.37467 -0.71289,4.67969 0.0886,4.70422 0.594,4.04589 1.14063,-1.48828 0.17494,-1.77092 0.0482,-3.09238 -0.27734,-3.21485 z m 14.51953,2.57813 c -0.11932,0.11884 -0.2019,0.94141 -0.20899,2.3164 -0.0111,2.20007 0.18534,3.21783 0.43555,2.26172 0.24907,-0.95611 0.2588,-2.75612 0.0195,-4 -0.0897,-0.46647 -0.1745,-0.64943 -0.24609,-0.57812 z m -24.98633,3.875 c -0.0647,0.0232 -0.13166,0.1664 -0.19922,0.4414 -0.27039,1.1 -1.00642,2.64835 -1.63477,3.44141 -0.87915,1.10986 -0.8527,1.26941 0.10938,0.69141 0.78663,-0.4726 1.25,-0.17246 1.25,0.80859 0,0.85746 0.22485,1.55859 0.5,1.55859 0.27515,0 0.44669,-1.91247 0.38281,-4.25 -0.0478,-1.75297 -0.21425,-2.76108 -0.4082,-2.6914 z m 10.0625,5.79297 c -0.0995,0.02 -0.19402,0.70898 -0.32813,1.99218 -0.19237,1.83984 -0.10686,3.97735 0.18946,4.75 0.94817,2.47091 1.12692,1.52558 0.63672,-3.3457 -0.23575,-2.34264 -0.37012,-3.42218 -0.49805,-3.39648 z m -58.53711,9.28515 c -18.03437,0 -36.06875,0.0374 -49.75,0.11133 -27.3625,0.14778 -4.97499,0.26953 49.75,0.26953 54.72503,0 77.11253,-0.12175 49.75,-0.26953 -13.68125,-0.0739 -31.71563,-0.11133 -49.75,-0.11133 z" />
      <path
         id="path42037"
         style="fill:#0000c9;fill-opacity:1;stroke:#0000c9;stroke-width:0.5986793;stroke-miterlimit:4;stroke-dasharray:none;stroke-opacity:1;stroke-linejoin:round;stroke-linecap:round;paint-order:stroke fill markers"
         transform="matrix(0.26458333,0,0,0.26458333,-1.1013597,14.317676)"
         d="m 398.29297,295.6875 c -0.64184,0 -1.06836,2.43927 -1.06836,6.10547 0,5.05374 -0.43071,6.61696 -2.5,9.07617 -3.09018,3.67165 -3.09017,3.89185 0.0293,7.25781 2.35321,2.53917 2.43257,2.92967 1.11718,5.56641 -0.77809,1.5597 -4.39235,6.64844 -8.03125,11.30859 -6.61622,8.47302 -6.61523,8.47261 -6.61523,17.60743 0,8.1855 -0.31604,9.75997 -3.03516,15.14648 -1.66895,3.30618 -2.81466,6.36823 -2.54492,6.80469 0.26975,0.43646 -0.16403,0.79297 -0.96484,0.79297 -1.09269,0 -1.45508,-1.32955 -1.45508,-5.33204 0,-3.13587 -0.44429,-5.33398 -1.07617,-5.33398 -0.73338,0 -0.98588,5.16071 -0.79883,16.25 0.26204,15.53654 0.18805,16.25 -1.67578,16.25 -1.62906,0 -1.90468,-0.60308 -1.67383,-3.67383 0.15194,-2.02114 -0.23335,-3.99051 -0.85547,-4.375 -0.79968,-0.49413 -1.02624,0.7453 -0.77539,4.22852 0.3008,4.17713 0.0889,4.92073 -1.39453,4.875 -1.61171,-0.0498 -1.75669,1.64561 -1.83399,21.44531 -0.0674,17.26825 0.22773,22.36053 1.5,25.875 1.38121,3.81536 1.58399,12.29955 1.58399,66.25 v 61.875 H 331.2832 c -22.2153,0 -35.16565,0.36421 -35.55859,1 -0.4105,0.6644 33.99003,1 102.44141,1 h 103.05859 v -11.41406 c 0,-11.01861 -0.13887,-11.75586 -4,-21.20899 -2.19999,-5.38628 -4,-9.9253 -4,-10.08593 0,-0.16026 -2.87064,-0.29102 -6.37891,-0.29102 -6.13859,0 -6.42445,-0.11151 -7.61523,-2.98633 -1.35991,-3.28312 -2.64303,-3.09818 -4.04297,0.58399 -0.77885,2.04869 -1.58,2.40234 -5.4375,2.40234 -4.52474,0 -4.52539,-10e-6 -4.52539,-9.5 0,-5.66665 -0.40348,-9.5 -1,-9.5 -0.59649,0 -1,3.83335 -1,9.5 0,9.49999 -2.9e-4,9.5 -4.47461,9.5 -3.96004,0 -4.65236,-0.34481 -6.02539,-3 -1.60868,-3.11078 -3.16531,-4.17359 -2.11914,-1.44727 0.36219,0.9436 0.18312,1.29533 -0.45899,0.89844 -0.58072,-0.3589 -1.30348,0.2919 -1.60546,1.44727 -0.50884,1.946 -1.2414,2.10156 -9.9336,2.10156 -9.38336,0 -9.38263,-10e-6 -9.42383,-5.25 -0.0227,-2.88748 -0.0185,-21.57141 0.0117,-41.51953 0.0489,-33.70254 0.19362,-36.63949 2.04102,-41.5 1.752,-4.60985 1.98783,-7.69338 1.98828,-25.98047 4.9e-4,-20.0835 -0.0642,-20.75 -2,-20.75 -1.70744,0 -2,-0.66625 -2,-4.55859 0,-2.95416 -0.37235,-4.3284 -1.05859,-3.9043 -0.58243,0.36 -0.98203,1.62364 -0.88868,2.80859 0.33064,4.19668 -0.0705,5.6543 -1.55273,5.6543 -1.27287,0 -1.5,-2.49999 -1.5,-16.5 0,-10.33334 -0.37377,-16.5 -1,-16.5 -0.55,0 -1,2.47502 -1,5.5 0,3.02502 -0.3375,5.48973 -0.75,5.47461 -0.4125,-0.0136 -2.21247,-3.1858 -4,-7.05078 -2.90566,-6.2826 -3.25,-7.98222 -3.25,-16.03125 0,-9.00295 9.9e-4,-9.0022 -5.17969,-15.94727 -2.84935,-3.81981 -5.57746,-6.94531 -6.06054,-6.94531 -0.48341,0 -0.65123,-0.36852 -0.37305,-0.81836 0.27806,-0.44988 -0.48141,-1.91235 -1.68945,-3.25 -2.44706,-2.70949 -2.88384,-6.03677 -0.87891,-6.70508 0.72068,-0.24023 1.74691,-1.58214 2.2793,-2.98242 0.78867,-2.07438 0.55975,-2.97904 -1.23243,-4.88672 -1.86618,-1.98657 -2.1632,-3.328 -1.96289,-8.84961 0.14861,-4.09872 -0.16077,-6.50781 -0.83398,-6.50781 z m -0.99024,15.38867 c 0.59353,0.0195 1.28415,0.28363 2.23438,0.79492 1.9909,1.07127 2.28979,1.73618 1.59961,3.56641 -0.82027,2.17519 -4.67668,3.15147 -6.2461,1.58203 -1.14824,-1.14825 -0.72963,-4.03641 0.76563,-5.27734 0.55638,-0.46177 1.05296,-0.68553 1.64648,-0.66602 z m 0.16602,14.25977 c 0.75443,0.22074 2.8394,2.49581 5.02344,5.53515 2.496,3.4735 5.50493,7.33398 6.68554,8.57813 1.5673,1.65165 1.79509,2.38974 0.84571,2.73633 -2.51747,0.9191 -24.79883,1.00338 -24.79883,0.0937 0,-0.74661 9.36669,-13.93829 12.00586,-16.90821 0.0498,-0.0561 0.1305,-0.0667 0.23828,-0.0351 z m 0.0879,19.35156 c 7.88334,0 14.52096,0.18534 14.75,0.41211 0.22904,0.22673 0.26892,3.82672 0.0879,8 -0.32901,7.58778 -0.32902,7.58789 -14.75,7.58789 -14.42101,0 -14.41992,10e-6 -14.41992,-8 0,-7.99997 -10e-4,-8 14.33203,-8 z m 6.37305,6.36914 c -0.28763,-0.029 -0.59831,0.1237 -0.93164,0.45703 -0.5503,0.55004 -0.6726,1.52798 -0.27344,2.17383 0.48382,0.78282 1.05794,0.8405 1.72461,0.17383 0.5503,-0.55 0.67451,-1.52798 0.27539,-2.17383 -0.24193,-0.39141 -0.5073,-0.60182 -0.79492,-0.63086 z m -12.20508,0.48047 c -0.52248,0 -1.11168,0.48299 -1.30859,1.07422 -0.19711,0.59127 0.39194,1.07617 1.30859,1.07617 0.91669,0 1.50551,-0.4849 1.30859,-1.07617 -0.19706,-0.59123 -0.78607,-1.07422 -1.30859,-1.07422 z m 6.33203,10.72656 c 14.90007,-0.076 14.8992,-0.0762 16.19531,2.92383 0.71286,1.64999 2.57398,5.66778 4.13477,8.92773 1.56079,3.25996 2.83789,6.29748 2.83789,6.75 0,0.45241 -10.62357,0.82227 -23.60742,0.82227 -18.48718,0 -23.49743,-0.2711 -23.10352,-1.25 7.81246,-19.41483 6.08957,-18.08463 23.54297,-18.17383 z m 0.16797,21.34571 c 11.55001,-10e-6 21.63835,0.0164 22.41992,0.0391 1.06798,0.0295 1.50282,1.90237 1.75,7.54101 0.18066,4.12626 0.33008,7.43679 0.33008,7.35743 0,-0.0793 -1.79998,-0.41747 -4,-0.75196 -3.88362,-0.5904 -4.00888,-0.73237 -4.30859,-4.88086 -0.38279,-5.2998 -2.19141,-4.57615 -2.19141,0.87696 0,3.98653 -6.3e-4,3.98696 -6.67188,3.6914 -6.67132,-0.29571 -6.67109,-0.29493 -6.85742,-4.29492 -0.26067,-5.59291 -0.67226,-5.74307 -1.37109,-0.5 -0.59981,4.50013 -0.5996,4.49936 -7.34961,4.79492 -6.75001,0.29567 -6.75,0.29612 -6.75,-4.30859 0,-3.0104 -0.37021,-4.37679 -1.06836,-3.94531 -0.58737,0.36302 -0.92484,2.30358 -0.75,4.31054 0.31676,3.63561 0.30282,3.64856 -3.93164,3.95508 -4.25,0.3075 -4.25,0.30751 -4.25,-6.75 0,-6.37773 0.19263,-7.06169 2,-7.0957 1.1,-0.0204 11.45003,-0.0391 23,-0.0391 z m -3.70117,16.07031 c 1.92859,-0.15216 2.70117,0.79493 2.70117,2.91797 0,2.45234 -0.6965,3.24727 -4.41797,5.04882 -5.57888,2.7007 -7.16261,5.19972 -7.48047,11.8086 -0.23728,4.93455 -0.0217,5.47377 3.38086,8.5 6.17874,5.49543 13.89669,5.37113 18.66797,-0.30274 5.67073,-6.74347 3.78031,-15.7359 -4.15039,-19.73437 -3.69577,-1.86331 -4.49741,-2.75689 -4.47852,-5 0.0196,-2.44577 0.36322,-2.71457 3.29493,-2.57813 4.23885,0.19737 9.51078,3.81053 12.9082,8.84766 3.27749,4.85938 3.68181,12.93556 0.93164,18.60742 -1.85514,3.82606 -7.60846,10.27435 -8.43164,9.45117 -0.26899,-0.26914 -1.21727,-0.11451 -2.10742,0.34375 -2.20986,1.13745 -8.17947,1.9509 -10.61719,1.44532 -1.09999,-0.22817 -4.0768,-1.40358 -6.61523,-2.61133 -8.4001,-3.99663 -12.71873,-14.64755 -9.42969,-23.25977 2.09799,-5.4935 6.27387,-10.04804 11.03906,-12.03906 2.07417,-0.86664 3.64753,-1.35402 4.80469,-1.44531 z m -26.7793,0.008 c 3.52114,0 3.52114,0 3.25,19.75 -0.27114,19.75 -0.27117,19.74898 -2.80859,20.04492 -1.39559,0.16275 -2.8581,-0.0241 -3.25,-0.41601 -0.39193,-0.3919 -0.71094,-9.41356 -0.71094,-20.04688 0,-19.33334 -0.002,-19.33203 3.51953,-19.33203 z m 12.60352,0 c 7.12359,0 7.12364,-6e-4 2.99609,3.88672 -5.04782,4.75404 -7.11914,9.44858 -7.11914,16.13086 0,6.09751 1.84004,10.05493 7.31641,15.73242 4.09946,4.24997 4.09881,4.25 -3.10938,4.25 -7.20821,0 -7.20703,-3e-5 -7.20703,-20 0,-20.00001 -5.5e-4,-20 7.12305,-20 z m 34.87695,0 c 6.99999,0 7,-10e-6 7,20 0,19.99997 -1e-5,20 -7,20 -3.85002,0 -7,-0.3375 -7,-0.75 4e-5,-0.4125 1.57564,-2.00794 3.50195,-3.54492 9.69585,-7.73635 10.11704,-21.87213 0.94141,-31.59375 -1.55422,-1.64674 -3.18984,-2.76929 -3.63477,-2.49414 -0.445,0.275 -0.80859,0.0239 -0.80859,-0.5586 0,-0.64448 2.73994,-1.05859 7,-1.05859 z m 12.46094,0 c 3.46046,0 3.45853,-9.9e-4 3.74804,20.5 0.15912,11.27558 0.29102,20.42501 0.29102,20.33203 0,-0.093 -1.68751,-0.34473 -3.75,-0.56055 -3.75001,-0.39227 -3.75,-0.39237 -3.75,-20.33203 0,-19.93961 2.9e-4,-19.93945 3.46094,-19.93945 z m -27.98633,8.45703 c 0.4324,0.004 1.18577,0.35024 2.52539,1.04297 1.64999,0.85327 3,1.74463 3,1.98047 0,0.23582 -1.14738,1.5731 -2.54688,2.97265 -3.44723,3.44724 -4.26568,3.19362 -3.89453,-1.20507 0.10432,-1.2375 0.24762,-2.93626 0.31641,-3.77539 0.0558,-0.68089 0.16721,-1.01928 0.59961,-1.01563 z m -4.37695,0.31641 c 1.24462,-0.0169 1.46769,0.99837 1.70117,5.47656 0.16494,3.16252 0.54435,5.75 0.84179,5.75 0.29764,0 2.34446,-1.54479 4.54883,-3.43164 2.20434,-1.88685 4.54993,-3.22116 5.21289,-2.9668 1.5538,0.59622 1.37916,9.13627 -0.24804,12.13672 -0.66804,1.23182 -2.52839,2.9193 -4.13477,3.75 -8.88695,4.5956 -18.61611,-2.84577 -16.07226,-12.29297 1.12738,-4.18673 4.42113,-7.83224 7.55273,-8.35937 0.22252,-0.0375 0.41985,-0.0601 0.59766,-0.0625 z m 1.72656,32.22656 c 19.30896,0 32.2924,0.37927 32.64844,0.95508 0.32496,0.52581 -0.0762,2.55078 -0.89063,4.5 -1.48078,3.54402 -1.48155,3.54492 -31.41602,3.54492 -29.93442,0 -29.93292,-10e-6 -30.46874,-2.25 -0.29471,-1.23753 -0.85083,-3.26251 -1.23438,-4.5 -0.69736,-2.24999 -0.6963,-2.25 31.36133,-2.25 z m 10.94336,10.71289 c 10.38397,-0.0204 17.92407,0.0959 18.27343,0.3125 0.46579,0.28864 0.98454,6.86724 1.15235,14.62109 0.30538,14.09806 0.30661,14.0994 -4.69336,13.97657 -5.00005,-0.12272 -5.0005,-0.12306 -5.2832,-11.37305 -0.15553,-6.1875 -0.70282,-11.25 -1.2168,-11.25 -0.51394,0 -1.06341,5.0625 -1.21875,11.25 -0.28275,11.25007 -0.28178,11.25 -4.10156,11.56445 -6.04751,0.49796 -6.89858,-0.88073 -6.64649,-10.76367 0.33668,-13.19422 -0.36515,-13.94502 -0.98242,-1.05078 -0.55053,11.50001 -0.55077,11.5 -5.55078,11.5 -4.99998,0 -5.00022,1e-5 -5.55078,-11.5 -0.57687,-12.05019 -0.92585,-11.21677 -1.25391,3 -0.19623,8.49989 -0.19532,8.50037 -5.44531,8.80273 -5.25002,0.30229 -5.25,0.30228 -5.25,-11.25 0,-15.07045 -1.84129,-15.32163 -2.21875,-0.30273 -0.28275,11.24995 -0.28208,11.2498 -4.31836,11.54688 -2.21995,0.16337 -4.35745,-0.0235 -4.75,-0.41602 -0.39254,-0.39254 -0.71289,-6.92576 -0.71289,-14.51758 v -13.80273 l 28.59766,-0.28125 c 3.93218,-0.0385 7.70859,-0.0596 11.16992,-0.0664 z m -20.17383,30.70117 c 2.79932,-0.005 6,0.002 9.65625,0.0117 29.24988,0.074 29.24905,0.0742 29.54687,6.32422 0.29772,6.25002 0.29771,6.25 -29.25,6.25 -29.54773,0 -29.54687,-2.4e-4 -29.54687,-6.32422 0,-5.53358 -0.001,-6.22488 19.59375,-6.26172 z m -8.53516,4.58594 c -1.26097,0 -2.16416,1.56042 -1.36523,2.35938 1.12619,1.12613 2.30664,0.68701 2.30664,-0.85938 0,-0.82503 -0.42387,-1.5 -0.94141,-1.5 z m 36.9043,0.23828 c -1.05634,0.0423 -1.97458,0.93263 -1.41992,1.83008 0.31642,0.51197 0.97196,0.93164 1.45703,0.93164 1.4005,0 2.13399,-1.79907 1.01562,-2.49023 -0.33299,-0.20581 -0.70062,-0.28557 -1.05273,-0.27149 z m -24.46289,0.61133 c -0.52248,0 -1.11168,0.48299 -1.30859,1.07422 -0.19711,0.59127 0.39194,1.07617 1.30859,1.07617 0.91669,0 1.50551,-0.4849 1.30859,-1.07617 -0.19706,-0.59123 -0.78607,-1.07422 -1.30859,-1.07422 z m 12,0 c -0.52248,0 -1.11168,0.48299 -1.30859,1.07422 -0.19711,0.59127 0.39194,1.07617 1.30859,1.07617 0.91669,0 1.50588,-0.4849 1.30859,-1.07617 -0.19706,-0.59123 -0.78607,-1.07422 -1.30859,-1.07422 z m -35,8.65039 h 29 29 L 427,511.4375 c 0.27602,15.24998 0.27602,15.25 -4.75,15.25 -5.02605,0 -5.02539,-3e-5 -5.02539,-11.5 0,-7.00003 -0.39127,-11.5 -1,-11.5 -0.60896,0 -1,4.5179 -1,11.55273 0,11.55239 -10e-6,11.55237 -5.25,11.25 -4.64364,-0.26736 -5.26426,-0.56258 -5.375,-2.55273 -0.0687,-1.23749 -0.27083,-6.41249 -0.44922,-11.5 -0.32447,-9.24998 -0.32447,-9.24997 -0.875,2.25 -0.55053,11.49993 -0.55079,11.50037 -5.80078,11.80273 -5.25003,0.30225 -5.25,0.30095 -5.25,-11.41796 0,-6.44542 -0.20607,-11.51268 -0.45703,-11.26172 -0.25104,0.25096 -0.5324,4.93405 -0.625,10.4082 -0.0925,5.47415 -0.38507,10.51932 -0.65039,11.21094 -0.29658,0.77284 -2.36763,1.25781 -5.375,1.25781 -4.89301,0 -4.89258,-3e-5 -4.89258,-11.5 0,-7.00003 -0.3913,-11.5 -1,-11.5 -0.6087,0 -1,4.49997 -1,11.5 0,11.49997 -10e-4,11.5 -5.02734,11.5 -5.02606,0 -5.02606,-2e-5 -4.75,-15.25 z m 35.29687,30.50977 c 0.12172,-0.002 0.18184,0.18425 0.1875,0.55859 0.0101,0.7008 3.97328,1.03495 11.51563,0.9707 11.50001,-0.0979 11.5,-0.098 11.5,6.18164 0,6.27969 -0.001,6.2793 -29.54883,6.2793 -29.54773,0 -29.54771,10e-4 -29.25,-6.2168 0.29772,-6.21796 0.29884,-6.21836 17.29883,-6.17187 11.08785,0.0303 17.25517,-0.32784 17.73437,-1.03125 0.25745,-0.37848 0.44079,-0.56851 0.5625,-0.57031 z m 46.18164,3.99023 c 2.28258,0 4.68438,7.4943 4.48633,14 -0.10885,3.57502 -0.25871,6.8375 -0.33203,7.25 -0.0735,0.4125 -1.70782,0.75 -3.63281,0.75 -3.48355,0 -3.50092,-0.0223 -3.67969,-4.75 -0.26974,-7.13027 0.18517,-11.40166 1.45899,-13.69141 0.6297,-1.13234 1.04842,-2.39609 0.93164,-2.80859 -0.11683,-0.4125 0.22878,-0.75 0.76757,-0.75 z m 26.95508,0.006 c 0.31064,0.003 1.35391,1.39096 2.31641,3.08203 1.26047,2.21465 1.75,5.28828 1.75,10.99219 0,7.91894 -1e-5,7.91992 -4,7.91992 -4.00003,0 -4,-7.2e-4 -4,-7.4668 0,-6.77658 2.10351,-14.54624 3.93359,-14.52734 z m -85.35156,2.99414 c -0.87084,0 -1.58203,0.71314 -1.58203,1.58398 0,1.76595 2.15146,1.45776 2.76953,-0.39648 0.2177,-0.65314 -0.31666,-1.1875 -1.1875,-1.1875 z m 11.91797,0 c -1.56155,0 -1.98461,1.18335 -0.83399,2.33398 1.15061,1.15064 2.33399,0.72761 2.33399,-0.83398 0,-0.825 -0.67501,-1.5 -1.5,-1.5 z m 12.15625,0.18359 c -0.38549,0.12541 -0.65625,0.62892 -0.65625,1.31641 0,0.91669 0.48295,1.50551 1.07422,1.30859 0.59123,-0.19706 1.07422,-0.78607 1.07422,-1.30859 0,-0.52248 -0.48299,-1.11168 -1.07422,-1.30859 -0.14782,-0.0493 -0.28947,-0.0494 -0.41797,-0.008 z m 65.64844,0.0234 c 0.12971,-0.0438 0.47954,0.0216 1.02734,0.19922 1.00747,0.32704 3.70749,0.59662 6,0.59961 4.16821,0.006 4.16655,0.006 7.31055,9 3.14404,8.99365 3.14403,8.99414 -4.75,8.99414 -8.67217,0 -8.05402,1.09524 -8.18555,-14.5 -0.014,-1.64999 -0.51489,-3.38135 -1.11523,-3.8457 -0.32644,-0.25248 -0.41683,-0.40352 -0.28711,-0.44727 z m -102.3418,0.0312 c -1.05634,0.0423 -1.97458,0.93263 -1.41992,1.83008 0.31643,0.51197 0.97195,0.93164 1.45703,0.93164 1.40048,0 2.13398,-1.79907 1.01562,-2.49023 -0.33299,-0.20581 -0.70062,-0.28557 -1.05273,-0.27149 z m 91.58594,0.44727 c 1.47731,0.16983 1.45005,1.54201 1.34375,7.03125 -0.14895,7.69319 -0.57168,8.73153 -2.94141,7.23242 -0.79873,-0.50529 -1.01339,-0.92604 -0.47851,-0.9336 0.53484,-0.008 -0.0276,-0.71608 -1.25,-1.57226 -1.77548,-1.24362 -2.22266,-2.52904 -2.22266,-6.39063 0,-4.78454 0.036,-4.83765 3.51758,-5.24414 0.87938,-0.10266 1.53881,-0.17966 2.03125,-0.12304 z m -33.90625,0.3125 c 8.8569,-0.002 8.85604,-0.002 8.53515,9 -0.32095,9.0023 -0.32096,9.00195 -8.25,9.00195 -7.92903,0 -7.92773,2.2e-4 -7.92773,-7.41797 0,-4.08004 -0.27369,-8.13003 -0.60742,-9 -0.52532,-1.36906 0.58496,-1.58198 8.25,-1.58398 z m 22.51367,0 c 3.65756,0.002 3.65757,0.002 4,5.42187 0.18822,2.98095 0.17074,5.24681 -0.0391,5.03516 -0.65976,-0.66539 -4.19674,1.607 -3.71485,2.38672 0.25232,0.40822 -0.37434,0.80608 -1.39257,0.88281 -1.60861,0.12117 -1.89554,-0.76994 -2.18165,-6.79492 -0.32938,-6.93385 -0.32932,-6.93365 3.32813,-6.93164 z m -90.65625,7.75 29,0.0508 29,0.0508 L 427,558.11328 c 0.30641,17.32879 1.01783,15.59607 -6.52539,15.875 -2.75002,0.10167 -2.7505,0.10208 -3.0332,-11.09961 -0.37369,-14.80316 -2.2188,-14.76243 -2.2168,0.0488 0.002,11.24999 0.002,11.25 -4.75,11.25 -3.28373,0 -4.94031,-0.46339 -5.36523,-1.5 -0.3382,-0.825 -0.70076,-5.76187 -0.80469,-10.9707 -0.26465,-13.25386 -1.08008,-12.69924 -1.08008,0.73437 0,12.36204 0.0812,12.243 -7.75,11.37695 -3.25002,-0.35938 -3.25,-0.35874 -3.25,-11.41601 0,-6.08149 -0.21502,-10.84358 -0.47656,-10.58203 -0.26166,0.26169 -0.53158,5.28605 -0.59961,11.16601 -0.12378,10.69089 -0.12299,10.69141 -5.52344,10.69141 -5.40044,0 -5.40039,1e-5 -5.40039,-11 0,-6.66667 -0.39394,-11 -1,-11 -0.60541,0 -1,4.29385 -1,10.88281 0,10.50962 -0.0773,10.89643 -2.25,11.25586 -1.2375,0.20447 -3.49912,0.22725 -5.02539,0.0488 -2.77504,-0.32432 -2.77504,-0.32597 -2.5,-15.88281 z m 95.63867,4.25195 c 1.48384,0 5.86133,3.96871 5.86133,5.31445 0,0.37712 -2.69998,0.68555 -6,0.68555 -3.29998,0 -6,-0.37206 -6,-0.82617 0,-1.36638 4.51725,-5.17383 6.13867,-5.17383 z m 12.28906,7.39258 c 0.45974,6.9e-4 0.98161,0.0323 1.57227,0.0781 2.48489,0.19291 2.5,0.25945 2.5,10.01758 0,10.4702 -0.0667,10.5933 -5.25,9.74219 -2.14609,-0.3524 -2.25,-0.80074 -2.25,-9.69336 0,-8.64459 0.2096,-10.14941 3.42773,-10.14453 z m -24.34765,0.13867 c 2.59858,-0.0487 2.71176,1.56108 2.55469,11.33594 -0.13456,8.36802 -0.13476,8.36975 -3.88477,8.59765 -2.06249,0.12526 -3.82165,-0.0414 -3.9082,-0.36914 -1.09637,-4.14259 -0.8984,-17.3731 0.27734,-18.54882 0.30146,-0.30142 1.96153,-0.71104 3.68945,-0.91211 0.47919,-0.0558 0.90026,-0.0966 1.27149,-0.10352 z m 16.3789,0.0957 c 3.20634,0.12022 3.24685,0.91861 3.41211,4.11328 0.2205,4.25957 0.22076,4.25977 -7.88281,4.25977 -8.10372,0 -8.10453,-10e-4 -7.79687,-4.07227 0.3075,-4.0713 0.30724,-4.07154 7.88281,-4.25976 1.89393,-0.0471 3.31598,-0.0811 4.38476,-0.041 z m -31.26562,0.0352 c 7.30567,-0.1152 7.30563,-0.11471 7.61328,4.11133 0.3075,4.22604 0.30751,4.22675 -8,4.22656 -8.3057,-2.3e-4 -8.30626,-1.1e-4 -8.29492,-3.42969 0.007,-1.88628 0.32076,-3.73677 0.69531,-4.11133 0.37455,-0.37455 3.96812,-0.73337 7.98633,-0.79687 z m 47.05664,0.0879 c 0.4125,0.13757 4.02332,0.25 8.02539,0.25 7.27642,0 7.276,1e-5 6.89453,4 -0.38147,3.99999 -0.38155,4 -8.59375,4 -8.21219,0 -8.21176,-3e-5 -7.64453,-4.25 0.31196,-2.33752 0.90586,-4.13757 1.31836,-4 z m -47.08594,10.25 c 7.94521,0 7.94526,-7.5e-4 7.64063,4.65234 -0.30478,4.65324 -0.30466,4.65325 -8.0293,4.75 -8.44679,0.10598 -8.64093,-0.0433 -7.93359,-6.15234 0.37629,-3.25002 0.37686,-3.25 8.32226,-3.25 z m 58.19727,0.11133 c 3.44857,0.0792 3.53312,0.88311 3.86914,4.09961 0.24642,2.3588 0.33402,4.4381 0.19531,4.61914 -0.13859,0.181 -3.72322,0.40627 -7.9668,0.5 -8.36265,0.18497 -8.65886,-0.005 -8.83007,-5.6582 -0.0961,-3.17122 -0.0973,-3.17219 8.02734,-3.46094 2.03116,-0.0722 3.55555,-0.12604 4.70508,-0.0996 z m -31.36133,0.38867 c 7.5007,0 7.49937,4.4e-4 7.48047,4.34766 -0.0182,4.34728 -0.0173,4.3473 -7.37696,4.5 -8.02037,0.16652 -8.43897,-0.12437 -7.92382,-5.50196 0.32046,-3.34522 0.32033,-3.3457 7.82031,-3.3457 z" />
    </g>
  </g>
</svg>
