<?xml version="1.0" encoding="UTF-8" standalone="no"?>
<!-- Created with Inkscape (http://www.inkscape.org/) -->

<svg
   width="348.70499mm"
   height="273.96271mm"
   viewBox="0 0 348.70499 273.96271"
   version="1.1"
   id="svg39020"
   xmlns="http://www.w3.org/2000/svg"
   xmlns:svg="http://www.w3.org/2000/svg">
  <defs
     id="defs39017" />
  <g
     id="layer1"
     transform="translate(185.13131,130.98949)">
    <g
       id="g39152"
       transform="matrix(1.796519,0,0,2.068708,-42.470303,-69.489689)"
       style="fill:#0000c9;fill-opacity:1;stroke:#0000c9;stroke-width:0.518722;stroke-opacity:1">
      <path
         style="fill:#0000c9;fill-opacity:1;stroke:#0000c9;stroke-width:0.518722;stroke-opacity:1"
         d="m 26.022271,97.826173 c 0.327422,-0.06307 0.863203,-0.06307 1.190625,0 0.327422,0.06306 0.05953,0.114663 -0.595312,0.114663 -0.654844,0 -0.922735,-0.0516 -0.595313,-0.114663 z m -94.036567,-8.544526 c 0,-1.091406 0.0467,-1.53789 0.103785,-0.992187 0.05708,0.545703 0.05708,1.438672 0,1.984375 -0.05708,0.545703 -0.103785,0.09922 -0.103785,-0.992188 z m 85.708108,0.529167 c 0,-0.654844 0.0516,-0.922734 0.114662,-0.595312 0.06307,0.327421 0.06307,0.863203 0,1.190625 -0.06306,0.327422 -0.114662,0.05953 -0.114662,-0.595313 z M 3.6808195,87.297272 c 0.00159,-0.873125 0.050879,-1.198414 0.109765,-0.722865 0.058886,0.475549 0.057671,1.189924 -0.0027,1.5875 -0.060373,0.397576 -0.1085506,0.0085 -0.1070663,-0.864635 z M 8.030604,70.8295 c 0.9095052,-0.05167 2.397786,-0.05167 3.307292,0 0.909505,0.05166 0.165364,0.09394 -1.6536462,0.09394 -1.8190104,0 -2.563151,-0.04227 -1.6536458,-0.09394 z m 5.69218,0.006 c 0.402182,-0.06082 0.997495,-0.05919 1.322916,0.0036 0.325422,0.0628 -0.0036,0.112559 -0.731242,0.110575 -0.727604,-0.0021 -0.993857,-0.05337 -0.591674,-0.114186 z M 4.3311759,69.24614 c 0.4755489,-0.05889 1.1899239,-0.05767 1.5875001,0.0027 0.3975761,0.06037 0.00849,0.108551 -0.8646346,0.107066 -0.873125,-0.0016 -1.1984143,-0.05088 -0.7228655,-0.109765 z m 4.7577614,0.005 c 0.3274219,-0.06307 0.8632032,-0.06307 1.1906247,0 0.327422,0.06306 0.05953,0.114663 -0.5953122,0.114663 -0.6548437,0 -0.9227343,-0.0516 -0.5953125,-0.114663 z M 24.173273,68.986179 c 0.329118,-0.06329 0.805368,-0.06088 1.058333,0.0053 0.252966,0.06622 -0.01632,0.118004 -0.598398,0.115067 -0.582083,-0.0029 -0.789053,-0.05712 -0.459935,-0.120406 z M -68.018566,64.14623 c 0,-0.945885 0.04802,-1.332838 0.106714,-0.859896 0.05869,0.472943 0.05869,1.246849 0,1.719792 -0.05869,0.472943 -0.106714,0.08599 -0.106714,-0.859896 z M 113.99681,62.161855 c 0.003,-0.582083 0.0571,-0.789053 0.12041,-0.459936 0.0633,0.329118 0.0609,0.805368 -0.005,1.058334 -0.0662,0.252965 -0.118,-0.01633 -0.11506,-0.598398 z M 1.2843056,60.838939 c 0.00294,-0.582084 0.057121,-0.789054 0.1204066,-0.459936 0.063286,0.329118 0.060883,0.805368 -0.00534,1.058333 -0.066222,0.252966 -0.1180041,-0.01633 -0.1150666,-0.598397 z M 61.100238,52.107688 c 0.0011,-1.018645 0.049,-1.402942 0.106272,-0.853995 0.05727,0.548949 0.05631,1.382387 -0.0021,1.852083 -0.05845,0.469699 -0.105312,0.02056 -0.104138,-0.998088 z M 114.27936,43.50873 c 0,-0.945885 0.048,-1.332839 0.10671,-0.859896 0.0587,0.472943 0.0587,1.246849 0,1.719792 -0.0587,0.472943 -0.10671,0.08599 -0.10671,-0.859896 z M -68.537036,35.042063 c 0,-1.382448 0.04459,-1.947995 0.0991,-1.256771 0.0545,0.691224 0.0545,1.822318 0,2.513542 -0.0545,0.691224 -0.0991,0.125677 -0.0991,-1.256771 z m -10.611993,-0.661458 c 0.0029,-0.582084 0.05712,-0.789054 0.120406,-0.459936 0.06329,0.329118 0.06088,0.805368 -0.0053,1.058333 -0.06622,0.252966 -0.118004,-0.01632 -0.115068,-0.598397 z M 56.582223,29.882688 c 0.0029,-0.582083 0.05712,-0.789054 0.120407,-0.459936 0.06329,0.329118 0.06088,0.805368 -0.0053,1.058334 -0.06622,0.252965 -0.118004,-0.01633 -0.115067,-0.598398 z"
         id="path39184" />
      <path
         id="path39182"
         style="fill:#0000c9;fill-opacity:1;stroke:#0000c9;stroke-width:1.96052;stroke-opacity:1"
         transform="matrix(0.26458333,0,0,0.26458333,150.30315,99.514616)"
         d="m -818.91992,-400.0918 c -0.15184,-0.22934 -0.26162,0.85352 -0.26758,2.91602 -0.007,2.74995 0.18062,3.99361 0.41797,2.76367 0.23732,-1.22994 0.24349,-3.47994 0.0137,-5 -0.0575,-0.38001 -0.11344,-0.60324 -0.16406,-0.67969 z m 464.98437,127.61524 c -0.15906,-0.20164 -0.27693,0.65078 -0.28515,2.30078 -0.0111,2.19997 0.18526,3.21781 0.43554,2.26172 0.25013,-0.95609 0.2588,-2.75609 0.0195,-4 -0.0598,-0.31098 -0.11691,-0.49529 -0.16993,-0.5625 z m -512.98242,14.41601 c -0.14939,-0.14824 -0.25586,1.11602 -0.25586,3.38477 0,3.025 0.18691,4.2625 0.41602,2.75 0.22912,-1.5125 0.22912,-3.9875 0,-5.5 -0.0573,-0.37813 -0.11038,-0.58535 -0.16016,-0.63477 z m 600.98242,73.61524 c -0.15541,-0.12129 -0.26562,0.91328 -0.26562,2.76953 0,2.475 0.19525,3.4875 0.43359,2.25 0.23837,-1.2375 0.23837,-3.2625 0,-4.5 -0.0596,-0.30938 -0.11617,-0.4791 -0.16797,-0.51953 z m -292.96093,2.15429 c -0.14067,-0.20214 -0.24024,1.52149 -0.24024,4.61524 0,4.12501 0.17683,5.8125 0.39258,3.75 0.21574,-2.0625 0.21574,-5.4375 0,-7.5 -0.0539,-0.51563 -0.10546,-0.79785 -0.15234,-0.86524 z m -112.03907,5.84571 c -0.15541,-0.12129 -0.26562,0.91328 -0.26562,2.76953 0,2.47499 0.19525,3.4875 0.43359,2.25 0.23837,-1.2375 0.23837,-3.2625 0,-4.5 -0.0596,-0.30938 -0.11617,-0.4791 -0.16797,-0.51953 z m 102,0 c -0.1554,-0.12129 -0.26562,0.91328 -0.26562,2.76953 0,2.47499 0.19524,3.4875 0.43359,2.25 0.23836,-1.2375 0.23836,-3.2625 0,-4.5 -0.0596,-0.30938 -0.11617,-0.4791 -0.16797,-0.51953 z m 10.0293,8.74219 c -0.14657,-0.25779 -0.25331,1.05234 -0.25781,3.52734 -0.006,3.30003 0.17807,4.77022 0.40625,3.26758 0.22817,-1.50265 0.23226,-4.20265 0.01,-6 -0.0556,-0.44934 -0.10934,-0.709 -0.1582,-0.79492 z m -112.01367,7.61132 c -0.15184,-0.22934 -0.26162,0.85352 -0.26758,2.91602 -0.007,2.75014 0.18062,3.99361 0.41797,2.76367 0.23732,-1.22994 0.24349,-3.47994 0.0137,-5 -0.0575,-0.38001 -0.11344,-0.60324 -0.16406,-0.67969 z m 148.31836,45.5293 c -0.90625,-0.002 -1.8474,0.053 -2.60742,0.16797 -1.52007,0.22986 -0.51368,0.4237 2.23632,0.43164 2.75014,0.008 3.99362,-0.18061 2.76368,-0.41797 -0.61497,-0.11866 -1.48633,-0.17917 -2.39258,-0.18164 z m -152.8711,4.00195 c -0.81563,0 -1.63125,0.0586 -2.25,0.17774 -1.2375,0.23835 -0.225,0.43359 2.25,0.43359 2.47499,0 3.4875,-0.19525 2.25,-0.43359 -0.61875,-0.11919 -1.43438,-0.17774 -2.25,-0.17774 z m 251,12.996097 c -0.99687,0 -1.99375,0.0573 -2.75,0.171875 -1.5125,0.22913 -0.275,0.416016 2.75,0.416016 3.025,0 4.2625,-0.186896 2.75,-0.416016 -0.75625,-0.11455 -1.75312,-0.171875 -2.75,-0.171875 z m -11,0.0039 c -0.81562,0 -1.63125,0.05859 -2.25,0.177735 -1.2375,0.238349 -0.22499,0.433593 2.25,0.433593 2.475,0 3.4875,-0.195254 2.25,-0.433593 -0.61875,-0.11919 -1.43437,-0.177735 -2.25,-0.177735 z m 115.53711,41.115235 c -0.15541,-0.12129 -0.26562,0.913281 -0.26562,2.769531 0,2.475 0.19525,3.4875 0.43359,2.25 0.23837,-1.2375 0.23837,-3.2625 0,-4.5 -0.0596,-0.30938 -0.11617,-0.479102 -0.16797,-0.519531 z m -20,8 c -0.15541,-0.12129 -0.26562,0.913281 -0.26562,2.769531 0,2.475 0.19525,3.4875 0.43359,2.25 0.23837,-1.2375 0.23837,-3.2625 0,-4.5 -0.0596,-0.30938 -0.11617,-0.479102 -0.16797,-0.519531 z" />
      <path
         id="path39180"
         style="fill:#0000c9;fill-opacity:1;stroke:#0000c9;stroke-width:1.96052;stroke-opacity:1"
         transform="matrix(0.26458333,0,0,0.26458333,150.30315,99.514616)"
         d="m -818.93555,-408.44531 c -0.15541,-0.12129 -0.26562,0.91328 -0.26562,2.76953 0,2.475 0.19525,3.4875 0.43359,2.25 0.23837,-1.2375 0.23837,-3.2625 0,-4.5 -0.0596,-0.30938 -0.11617,-0.4791 -0.16797,-0.51953 z m 147,132.96875 c -0.15906,-0.20164 -0.27693,0.65078 -0.28515,2.30078 -0.0111,2.19994 0.18526,3.21781 0.43554,2.26172 0.25013,-0.95609 0.2588,-2.75609 0.0195,-4 -0.0598,-0.31098 -0.11691,-0.49529 -0.16993,-0.5625 z m 1,107.03125 c -0.15541,-0.12129 -0.26562,0.91328 -0.26562,2.76953 0,2.47499 0.19525,3.4875 0.43359,2.25 0.23837,-1.2375 0.23837,-3.2625 0,-4.5 -0.0596,-0.30938 -0.11617,-0.4791 -0.16797,-0.51953 z m 102,0 c -0.1554,-0.12129 -0.26562,0.91328 -0.26562,2.76953 0,2.47499 0.19524,3.4875 0.43359,2.25 0.23836,-1.2375 0.23836,-3.2625 0,-4.5 -0.0596,-0.30938 -0.11617,-0.4791 -0.16797,-0.51953 z m 0.46289,53.88476 c -0.81562,0 -1.63125,0.0586 -2.25,0.17774 -1.2375,0.23834 -0.225,0.43359 2.25,0.43359 2.475,0 3.4875,-0.19526 2.25,-0.43359 -0.61875,-0.11919 -1.43437,-0.17774 -2.25,-0.17774 z m -99,4 c -0.81563,0 -1.63125,0.0586 -2.25,0.17774 -1.2375,0.23835 -0.225,0.43359 2.25,0.43359 2.47499,0 3.4875,-0.19525 2.25,-0.43359 -0.61875,-0.11919 -1.43438,-0.17774 -2.25,-0.17774 z m 515.55469,17.500003 c -0.14939,-0.14824 -0.25586,1.116016 -0.25586,3.384766 0,3.025 0.18698,4.2625 0.41602,2.75 0.22904,-1.5125 0.22904,-3.9875 0,-5.5 -0.0573,-0.37813 -0.11038,-0.585346 -0.16016,-0.634766 z m -520.01758,54.583985 c -0.15906,-0.20164 -0.27693,0.650781 -0.28515,2.300781 -0.0111,2.19998 0.18526,3.217808 0.43554,2.261719 0.25013,-0.95609 0.2588,-2.756091 0.0195,-4 -0.0598,-0.31098 -0.11691,-0.495291 -0.16993,-0.5625 z" />
      <path
         id="path39178"
         style="fill:#0000c9;fill-opacity:1;stroke:#0000c9;stroke-width:1.96052;stroke-opacity:1"
         transform="matrix(0.26458333,0,0,0.26458333,15.93727,42.978152)"
         d="m -254.15039,-227.41602 c -0.11359,0.16541 -0.19231,1.20313 -0.19727,2.92188 -0.007,2.74976 0.18062,3.99361 0.41797,2.76367 0.23732,-1.22994 0.24355,-3.47994 0.0137,-5 -0.0862,-0.57002 -0.16622,-0.78479 -0.23437,-0.68555 z m -88.02149,225.6054731 c -0.11939,0.1188458 -0.20213,0.94140706 -0.20898,2.31640628 -0.0111,2.19994202 0.18527,3.21780692 0.43555,2.26171872 0.25013,-0.9560919 0.25874,-2.75608942 0.0195,-4 -0.0897,-0.4664664 -0.17446,-0.6494324 -0.2461,-0.578125 z M -68.632812,99.121094 c -0.815625,0 -1.63125,0.05855 -2.25,0.177734 -1.237501,0.238345 -0.225,0.433594 2.25,0.433594 2.474999,0 3.4875,-0.195257 2.25,-0.433594 -0.618751,-0.119187 -1.434376,-0.177734 -2.25,-0.177734 z M -164.0625,185.25781 c -0.11157,0.0783 -0.18808,2.71055 -0.18945,7.24805 -0.002,6.59998 0.15765,9.43 0.35547,6.28906 0.19838,-3.14095 0.19972,-8.54095 0.004,-12 -0.0612,-1.08095 -0.1192,-1.57268 -0.16992,-1.53711 z" />
      <path
         id="path39176"
         style="fill:#0000c9;fill-opacity:1;stroke:#0000c9;stroke-width:1.96052;stroke-opacity:1"
         transform="matrix(0.26458333,0,0,0.26458333,150.30315,99.514616)"
         d="m -762.01172,-432.49219 c -0.11939,0.11885 -0.20213,0.94141 -0.20898,2.31641 -0.0111,2.19998 0.18526,3.21781 0.43554,2.26172 0.25013,-0.95609 0.25877,-2.75609 0.0195,-4 -0.0897,-0.46647 -0.17446,-0.64943 -0.2461,-0.57813 z m -72.92383,48.04688 c -0.15541,-0.12129 -0.26562,0.91328 -0.26562,2.76953 0,2.475 0.19525,3.4875 0.43359,2.25 0.23837,-1.2375 0.23837,-3.2625 0,-4.5 -0.0596,-0.30938 -0.11617,-0.4791 -0.16797,-0.51953 z m -25.95507,21.56054 c -0.13588,-0.14212 -0.23077,1.99649 -0.22852,5.70899 h 0.002 c 0.003,4.95 0.17419,6.84784 0.38086,4.21875 0.20617,-2.6291 0.204,-6.6791 -0.006,-9 -0.0524,-0.58023 -0.10315,-0.88037 -0.14843,-0.92774 z m 223.8789,76.39258 c -0.11939,0.11885 -0.20213,0.94141 -0.20898,2.31641 -0.0111,2.19997 0.18526,3.21781 0.43554,2.26172 0.25013,-0.95609 0.25877,-2.75609 0.0195,-4 -0.0897,-0.46647 -0.17446,-0.64943 -0.2461,-0.57813 z m 401.09375,20.43164 c -0.14939,-0.14824 -0.25586,1.11602 -0.25586,3.38477 0,3.025 0.18691,4.2625 0.41602,2.75 0.22912,-1.5125 0.22912,-3.9875 0,-5.5 -0.0573,-0.37813 -0.11037,-0.58535 -0.16016,-0.63477 z m -193.01758,25.61524 c -0.1554,-0.12129 -0.26562,0.91328 -0.26562,2.76953 0,2.475 0.19525,3.4875 0.43359,2.25 0.23838,-1.2375 0.23838,-3.2625 0,-4.5 -0.0596,-0.30938 -0.11617,-0.4791 -0.16797,-0.51953 z m -420.94336,2.30859 c -0.13171,-0.28301 -0.22461,2.12969 -0.22461,6.46094 0,5.775 0.16517,8.1375 0.36719,5.25 0.20201,-2.8875 0.20201,-7.6125 0,-10.5 -0.0505,-0.72188 -0.0987,-1.1166 -0.14258,-1.21094 z m 173.9961,79.61524 c -0.13431,-0.25606 -0.23047,1.92695 -0.23047,5.8457 0,5.225 0.16902,7.3625 0.375,4.75 0.20599,-2.6125 0.20599,-6.8875 0,-9.5 -0.0515,-0.65313 -0.0998,-1.01035 -0.14453,-1.0957 z m 359.90625,109.818355 c -0.10943,0.21142 -0.18372,1.464844 -0.1875,3.527344 -0.006,3.30003 0.17808,4.770228 0.40625,3.267578 0.22817,-1.50265 0.2321,-4.20265 0.01,-6 -0.0835,-0.67401 -0.16285,-0.921782 -0.22851,-0.794922 z m -82.4961,37.142578 c -0.81563,0 -1.63125,0.05849 -2.25,0.177735 -1.2375,0.238339 -0.225,0.433593 2.25,0.433593 2.47499,0 3.4875,-0.195254 2.25,-0.433593 -0.61875,-0.11919 -1.43438,-0.177735 -2.25,-0.177735 z" />
      <path
         id="path39174"
         style="fill:#0000c9;fill-opacity:1;stroke:#0000c9;stroke-width:1.96052;stroke-opacity:1"
         transform="matrix(0.26458333,0,0,0.26458333,150.30315,99.514616)"
         d="m -739.89648,-391.29102 c -0.14066,-0.20213 -0.24024,1.52149 -0.24024,4.61524 0,4.125 0.17685,5.8125 0.39258,3.75 0.21574,-2.0625 0.21574,-5.4375 0,-7.5 -0.0539,-0.51563 -0.10545,-0.79785 -0.15234,-0.86524 z m -95.03907,14.84571 c -0.15541,-0.12129 -0.26562,0.91328 -0.26562,2.76953 0,2.475 0.19525,3.4875 0.43359,2.25 0.23837,-1.2375 0.23837,-3.2625 0,-4.5 -0.0596,-0.30938 -0.11617,-0.4791 -0.16797,-0.51953 z m 163,88 c -0.15541,-0.12129 -0.26562,0.91328 -0.26562,2.76953 0,2.47499 0.19525,3.4875 0.43359,2.25 0.23837,-1.2375 0.23837,-3.2625 0,-4.5 -0.0596,-0.30938 -0.11617,-0.4791 -0.16797,-0.51953 z m -44.9707,14.74219 c -0.14656,-0.25779 -0.25327,1.05234 -0.25781,3.52734 -0.006,3.30003 0.17808,4.77022 0.40625,3.26758 0.22817,-1.50265 0.23187,-4.20265 0.01,-6 -0.0556,-0.44934 -0.10934,-0.709 -0.1582,-0.79492 z m -57.01367,8.61132 c -0.15184,-0.22934 -0.26162,0.85352 -0.26758,2.91602 -0.007,2.75015 0.18062,3.99361 0.41797,2.76367 0.23732,-1.22994 0.24349,-3.47994 0.0137,-5 -0.0575,-0.38001 -0.11344,-0.60324 -0.16406,-0.67969 z m 584.00195,193.031253 c -0.1494,-0.14824 -0.25586,1.116016 -0.25586,3.384766 0,3.025 0.18698,4.2625 0.41602,2.75 0.22904,-1.5125 0.22904,-3.9875 0,-5.5 -0.0573,-0.37813 -0.11038,-0.585346 -0.16016,-0.634766 z" />
      <path
         id="path39172"
         style="fill:#0000c9;fill-opacity:1;stroke:#0000c9;stroke-width:1.96052;stroke-opacity:1"
         transform="matrix(0.26458333,0,0,0.26458333,15.93727,42.978152)"
         d="m -287.09766,-50.794922 c -0.15906,-0.201642 -0.27498,0.650782 -0.2832,2.300781 -0.0111,2.19998 0.18527,3.217807 0.43555,2.261719 0.25013,-0.956092 0.25874,-2.756093 0.0195,-4 -0.0598,-0.310978 -0.11886,-0.495286 -0.17188,-0.5625 z m -39.92578,24.800781 c -0.21483,0 -0.57605,1.575 -0.80078,3.5 -0.22474,1.925001 -0.0489,3.5 0.39063,3.5 0.43957,0 0.80078,-1.574999 0.80078,-3.5 0,-1.925 -0.1758,-3.5 -0.39063,-3.5 z M 31.367188,-6.8828125 c -0.996875,0 -1.993749,0.057317 -2.75,0.171875 -1.512499,0.2291263 -0.274998,0.4160156 2.75,0.4160156 3.025001,0 4.262498,-0.1869006 2.75,-0.4160156 -0.756252,-0.1145575 -1.753126,-0.171875 -2.75,-0.171875 z m 40,2.9980469 c -1.178126,0 -2.35625,0.055105 -3.25,0.1660156 -1.787502,0.2218356 -0.324999,0.4042969 3.25,0.4042969 3.575002,0 5.037501,-0.1824764 3.25,-0.4042969 -0.893751,-0.1109102 -2.071875,-0.1660156 -3.25,-0.1660156 z M 285.9043,149.23633 c -0.15541,-0.12129 -0.26563,0.91328 -0.26563,2.76953 0,2.47499 0.19526,3.4875 0.4336,2.25 0.23837,-1.2375 0.23837,-3.2625 0,-4.5 -0.0596,-0.30938 -0.11617,-0.4791 -0.16797,-0.51953 z m -551.96094,1.1289 c -0.14243,-0.28631 -0.24493,1.25313 -0.24805,4.14063 -0.004,3.85001 0.17167,5.54672 0.39258,3.77148 0.22076,-1.77523 0.22427,-4.92522 0.008,-7 -0.0541,-0.51869 -0.10486,-0.81667 -0.15234,-0.91211 z" />
      <path
         id="path39170"
         style="fill:#0000c9;fill-opacity:1;stroke:#0000c9;stroke-width:1.96052;stroke-opacity:1"
         transform="matrix(0.26458333,0,0,0.26458333,150.30315,99.514616)"
         d="m -704.91797,-405.06055 c -0.14939,-0.14824 -0.25586,1.11602 -0.25586,3.38477 0,3.025 0.18691,4.2625 0.41602,2.75 0.22912,-1.5125 0.22912,-3.9875 0,-5.5 -0.0573,-0.37813 -0.11037,-0.58535 -0.16016,-0.63477 z m 56.05078,13.76563 c -1.95101,0.28635 -3.36064,1.61914 -1.71289,1.61914 0.67417,0 0.94735,0.45 0.60742,1 -0.33992,0.55 0.068,1 0.90821,1 1.00266,0 1.33433,0.60137 0.96484,1.75 -0.47052,1.46272 -0.38964,1.50458 0.49023,0.25781 0.60628,-0.8591 0.67884,-1.86413 0.17188,-2.37109 -0.4841,-0.48411 -0.65544,-1.46608 -0.38086,-2.18164 0.29399,-0.76613 -0.137,-1.20804 -1.04883,-1.07422 z m -107.02929,114.0039 c -0.14067,-0.20214 -0.24024,1.52149 -0.24024,4.61524 10e-6,4.12501 0.17685,5.8125 0.39258,3.75 0.21574,-2.0625 0.21574,-5.4375 0,-7.5 -0.0539,-0.51563 -0.10545,-0.79785 -0.15234,-0.86524 z m -35.99219,6.36133 c -0.13861,-0.31475 -0.23907,1.45391 -0.24219,4.75391 -0.004,4.40002 0.1699,6.32335 0.38477,4.27539 0.21547,-2.04796 0.21696,-5.64796 0.006,-8 -0.0528,-0.58801 -0.10223,-0.92438 -0.14844,-1.0293 z m 338.23047,2.28321 c -2.05408,0.027 -2.11701,0.1465 -0.56446,1.05078 1.29372,0.75352 1.75,2.30913 1.75,5.96875 0,4.02114 -0.32847,4.96437 -1.75,5.02148 -1.49642,0.0601 -1.46022,0.19479 0.25,0.92969 1.09997,0.47269 1.6068,0.89102 1.12696,0.92969 -0.47985,0.0387 -0.34086,0.70964 0.30859,1.49218 0.95556,1.15138 0.74107,1.50638 -1.12695,1.86329 -2.05116,0.39189 -2.00217,0.4571 0.4414,0.57812 2.62667,0.13007 3.49991,-0.77938 2.09571,-2.18359 -0.35973,-0.35974 -0.55619,-4.03604 -0.43555,-8.16797 0.21192,-7.2578 0.14107,-7.5119 -2.0957,-7.48242 z m 249.43554,6.29882 c 0,0.0959 0.75,0.4359 2.25,1.11914 1.65,0.75157 3.18683,1.18315 3.41602,0.95899 0.66205,-0.6476 -0.19896,-1.08163 -3.41602,-1.72461 -1.5,-0.29979 -2.25,-0.44938 -2.25,-0.35352 z m -590.66796,6.46289 c -0.13588,-0.14211 -0.23077,1.99649 -0.22852,5.70899 h 0.002 c 0.003,4.95 0.17419,6.84784 0.38086,4.21875 0.20617,-2.6291 0.204,-6.6791 -0.006,-9 -0.0524,-0.58023 -0.10315,-0.88037 -0.14843,-0.92774 z m 320.91796,3.20899 c -0.92326,0 -1.45616,0.86511 -1.38476,2.25 0.10577,2.0515 0.16174,2.07358 0.63476,0.25 0.5188,-2 0.51953,-2 1.31446,0 0.75355,1.89591 0.79864,1.88287 0.86523,-0.25 0.0426,-1.36457 -0.51998,-2.25 -1.42969,-2.25 z m 8.87696,0.64258 c -0.69271,-0.0223 -1.01087,0.97215 -1.05469,3.21484 -0.053,2.7148 0.0417,2.93699 0.37109,0.875 0.24313,-1.52183 0.86244,-2.50817 1.375,-2.19141 0.51258,0.31678 0.93164,0.14862 0.93164,-0.375 0,-0.52362 -0.58618,-1.17816 -1.30273,-1.45312 -0.11458,-0.044 -0.22136,-0.0671 -0.32031,-0.0703 z m -28.20313,0.0527 c -0.35875,-0.0375 -0.94345,0.15319 -1.84179,0.5625 -1.28334,0.58473 -2.33204,1.44063 -2.33204,1.90235 0,0.4617 -0.7875,0.87145 -1.75,0.91015 -1.48354,0.0596 -1.44545,0.1909 0.25,0.86328 1.37831,0.54661 2.09979,0.36602 2.32422,-0.58203 0.17913,-0.75664 0.8129,-1.07571 1.40625,-0.70898 0.69079,0.42693 0.78391,0.18987 0.25977,-0.65821 -0.57607,-0.9321 -0.37607,-1.15438 0.67773,-0.75 0.85925,0.32973 1.49805,0.0177 1.49805,-0.73242 0,-0.50331 -0.13344,-0.7691 -0.49219,-0.80664 z m -25.79101,0.41992 c -0.33752,0.0635 -0.73871,0.68124 -1.38282,1.88477 -0.72567,1.35599 -0.737,2 -0.0351,2 0.56935,0 1.03515,-0.47614 1.03515,-1.0586 0,-0.58245 0.44459,-0.78525 0.98828,-0.44921 0.56687,0.35034 0.73406,-0.0515 0.39258,-0.94141 -0.38737,-1.00946 -0.66052,-1.49905 -0.99804,-1.43555 z m -6.69922,0.33008 c -1.2766,-0.16194 -2.91352,1.37413 -2.25391,2.44141 0.9922,1.60539 3.57031,1.36879 3.57031,-0.32813 0,-0.79253 -0.36007,-1.66241 -0.79882,-1.93359 -0.15992,-0.0988 -0.33521,-0.15655 -0.51758,-0.17969 z m 55.73047,0.95508 c -0.11431,-0.0309 -0.2396,-0.009 -0.3711,0.0723 -0.52597,0.32506 -0.7009,1.25668 -0.38867,2.07031 0.41651,1.08541 0.0727,1.31743 -1.29297,0.87304 -1.4841,-0.48292 -1.56807,-0.3961 -0.41015,0.42383 1.86999,1.32415 3.04882,0.56635 3.04882,-1.95898 0,-0.82499 -0.243,-1.38772 -0.58593,-1.48047 z m 8.08593,2.09961 c -1.375,0 -2.5,0.3375 -2.5,0.75 0,0.41249 1.125,0.75 2.5,0.75 1.375,0 2.5,-0.3375 2.5,-0.75 0,-0.41249 -1.125,-0.75 -2.5,-0.75 z m -301.01757,88.07812 c -0.11359,0.16541 -0.19231,1.20313 -0.19727,2.92188 -0.007,2.75014 0.18062,3.99361 0.41797,2.76367 0.23732,-1.22994 0.24352,-3.47994 0.0137,-5 -0.0862,-0.57002 -0.16622,-0.78479 -0.23437,-0.68555 z m -28.88477,2.32813 c -0.13046,-0.39923 -0.22311,2.05625 -0.22461,6.59375 -0.002,6.05002 0.16003,8.65258 0.36133,5.78516 0.20138,-2.86743 0.20479,-7.81742 0.006,-11 -0.0498,-0.79565 -0.0991,-1.24584 -0.14258,-1.37891 z m 132.40234,15.20898 c -0.81563,0 -1.63125,0.0585 -2.25,0.17774 -1.2375,0.23835 -0.225,0.43359 2.25,0.43359 2.47499,0 3.4875,-0.19526 2.25,-0.43359 -0.61875,-0.11919 -1.43438,-0.17774 -2.25,-0.17774 z m 12.72657,15.17969 c -0.10183,-0.0781 -0.23949,0.0854 -0.4043,0.49609 -0.3792,0.94506 -0.86744,1.00108 -1.82422,0.20704 -1.00055,-0.83039 -1.64605,-0.41013 -2.74414,1.79101 -1.14061,2.28642 -1.16959,2.87695 -0.13867,2.87695 0.71344,0 1.52916,-0.60064 1.81054,-1.33398 0.28141,-0.73333 1.2007,-1.33203 2.04297,-1.33203 0.84226,0 1.49457,-0.7875 1.45118,-1.75 -0.0251,-0.55645 -0.0915,-0.87694 -0.19336,-0.95508 z m 291.26953,7.26953 c -0.42622,0.0301 -1.04261,0.48164 -1.56446,1.19531 -1.0453,1.42954 -0.97439,2.01251 0.40235,3.35547 0.91641,0.89393 1.86127,1.45149 2.09961,1.23828 0.23834,-0.21321 -0.0992,-0.91947 -0.75,-1.57031 -1.43833,-1.43832 -1.5755,-3.14344 -0.1836,-2.2832 1.10311,0.68176 1.38291,-0.7831 0.34766,-1.81836 -0.0895,-0.0895 -0.20949,-0.12722 -0.35156,-0.11719 z m 3.40234,7.1875 c -0.44395,0.006 -0.94398,0.0326 -1.48242,0.084 -2.15373,0.20539 -3.91602,0.55228 -3.91602,0.76953 0,0.74482 6.88022,0.39397 7.35547,-0.375 0.19589,-0.31692 -0.62516,-0.49535 -1.95703,-0.47852 z m 130.0625,41.431642 c -0.11939,0.11885 -0.20213,0.941407 -0.20898,2.316407 -0.0111,2.19994 0.18526,3.217808 0.43554,2.261719 0.25013,-0.95609 0.25877,-2.756091 0.0195,-4 -0.0897,-0.46647 -0.17446,-0.649425 -0.2461,-0.578126 z m -627.92383,18.046876 c -0.15541,-0.12129 -0.26562,0.913281 -0.26562,2.769531 0,2.475 0.19525,3.4875 0.43359,2.25 0.23837,-1.2375 0.23837,-3.2625 0,-4.5 -0.0596,-0.30938 -0.11617,-0.479102 -0.16797,-0.519531 z m 635.03907,2.128906 c -0.14243,-0.28631 -0.24493,1.253125 -0.24805,4.140625 -0.004,3.85001 0.17167,5.546724 0.39258,3.771484 0.22076,-1.77523 0.22408,-4.92522 0.008,-7 -0.0541,-0.51869 -0.10486,-0.816669 -0.15234,-0.912109 z m -165.00977,15.640625 c -0.14463,-0.1752 -0.24609,1.31875 -0.24609,4 0,3.575 0.18052,5.0375 0.40234,3.25 0.22182,-1.7875 0.22182,-4.7125 0,-6.5 -0.0555,-0.44688 -0.10804,-0.6916 -0.15625,-0.75 z m 63.89453,0.183593 c -0.11939,0.11885 -0.20213,0.941407 -0.20898,2.316407 -0.0111,2.19998 0.18526,3.217808 0.43554,2.261719 0.25013,-0.95609 0.25877,-2.756091 0.0195,-4 -0.0897,-0.46647 -0.17446,-0.649425 -0.2461,-0.578126 z m -335.46094,23.931641 c -0.81563,0 -1.63125,0.05849 -2.25,0.177735 -1.2375,0.238339 -0.225,0.433593 2.25,0.433593 2.47499,0 3.4875,-0.195254 2.25,-0.433593 -0.61875,-0.11919 -1.43438,-0.177735 -2.25,-0.177735 z m 153.84375,14.1835939 c -0.0727,-0.0423 -0.58527,0.1920412 -1.58398,0.6757812 -2.25143,1.09054 -2.59488,2.9270832 -0.78906,4.2207031 1.46197,1.04731 2.06225,-0.060803 0.74609,-1.3769531 -0.86471,-0.86472 -0.72494,-1.4925925 0.56641,-2.5390625 0.7647,-0.61973 1.13326,-0.9382187 1.06054,-0.9804687 z m -5.29882,5.1171875 c -0.26939,-0.033 -0.75723,0.1619319 -1.53125,0.5761718 -2.29292,1.22706 -2.72579,2.2180828 -0.61524,1.4082032 0.76937,-0.29526 1.6688,-0.0984 2,0.4374996 0.33118,0.53582 1.5021,0.738792 2.60156,0.451172 2.71411,-0.7097897 2.53747,-1.4911054 -0.25,-1.1035154 -1.42595,0.19827 -2.1538,-0.1591856 -1.98632,-0.9785156 0.10155,-0.49672 0.0506,-0.7579756 -0.21875,-0.7910156 z" />
      <path
         id="path39168"
         style="fill:#0000c9;fill-opacity:1;stroke:#0000c9;stroke-width:1.96052;stroke-opacity:1"
         transform="matrix(0.26458333,0,0,0.26458333,150.30315,99.514616)"
         d="m -648.06055,-387.33984 c -0.15274,0.0527 -0.31184,0.1634 -0.47851,0.33007 -0.55,0.54998 -0.70004,1.78044 -0.33399,2.73438 0.44371,1.15629 0.99935,1.40105 1.66602,0.73437 0.55004,-0.54998 0.70002,-1.78043 0.33398,-2.73437 -0.33279,-0.86722 -0.72931,-1.22265 -1.1875,-1.06445 z m 194.07813,120.54687 c -0.5532,-0.0503 -1.10267,1.56183 -1.29297,4.86719 -0.24627,4.27758 -0.005,5.25 1.30273,5.25 1.29926,0 1.54558,-0.95352 1.30078,-5.01367 -0.20143,-3.34099 -0.75735,-5.05321 -1.31054,-5.10352 z m -337.95508,9.31641 c -0.15906,-0.20164 -0.27498,0.65078 -0.2832,2.30078 -0.0111,2.19997 0.18526,3.21781 0.43554,2.26172 0.25013,-0.95609 0.2588,-2.75609 0.0195,-4 -0.0598,-0.31098 -0.11886,-0.49529 -0.17188,-0.5625 z m 337.75195,1.80078 c -0.70796,0 -1.28711,0.9 -1.28711,2 0,1.1 0.64668,2 1.4375,2 0.8214,0 1.37321,-0.85746 1.28711,-2 -0.0829,-1.1 -0.72955,-2 -1.4375,-2 z m 4.51367,2.88867 c -0.44807,-0.0387 -0.80078,0.28499 -0.80078,1.11133 0,0.55 -1.2375,1.03165 -2.75,1.07031 -2.43684,0.0623 -2.52225,0.16813 -0.75,0.92969 1.71024,0.73491 1.74645,0.86959 0.25,0.92969 -1.05989,0.0426 -1.75,0.85899 -1.75,2.07031 0,1.66668 0.66667,2 4,2 4.15508,0 5.70879,-1.8971 1.75,-2.13672 -2.19257,-0.13271 -2.1955,-0.14633 -0.10937,-0.55469 1.54265,-0.30197 2.10144,-1.1021 2,-2.86328 -0.0819,-1.42207 -1.09306,-2.49218 -1.83985,-2.55664 z m -32.80078,0.11133 c -0.55001,0 -0.94797,0.3375 -0.88281,0.75 0.30577,1.93654 -0.23583,2.60969 -1.05664,1.3125 -0.73545,-1.16227 -1.35472,-1.20842 -3.23633,-0.24414 -2.3028,1.18011 -2.30205,1.18616 -0.0742,0.61914 1.2857,-0.32723 2.25,-0.11579 2.25,0.49414 0,0.58708 -0.3375,1.0143 -0.75,0.94922 -2.0627,-0.32569 -3.25,0.26627 -3.25,1.61914 0,0.825 0.45001,1.5 1,1.5 0.55,0 1,-0.54118 1,-1.20117 0,-0.93333 0.26589,-0.93333 1.19922,0 0.66,0.66 2.1225,1.19348 3.25,1.18554 1.67364,-0.0125 1.77639,-0.18907 0.5586,-0.95898 -1.18794,-0.75105 -1.23886,-1.19473 -0.25,-2.18359 1.49055,-1.49057 1.63899,-3.8418 0.24218,-3.8418 z m 21.25196,0.1543 c -0.12666,-0.0245 -0.12456,0.10444 0.0352,0.39257 0.31942,0.57626 0.1674,1.70126 -0.33789,2.5 -0.70632,1.11653 -0.94118,0.8752 -1.01367,-1.04687 -0.0519,-1.375 -0.32591,-1.92243 -0.60937,-1.2168 -0.28343,0.70564 -0.26274,1.94315 0.0469,2.75 0.30962,0.80686 1.04243,1.4668 1.62695,1.4668 1.69735,0 2.3878,-3.02283 0.98633,-4.31836 -0.35184,-0.32527 -0.60772,-0.50287 -0.73437,-0.52734 z m -10.69336,0.63086 c -0.22619,-0.14171 -0.40651,0.36995 -0.70899,1.43164 -0.58391,2.04956 -0.66769,2.07902 -0.82031,0.2832 -0.16996,-2 -0.16987,-2 -1.0293,0 -0.73491,1.71024 -0.86959,1.74644 -0.92968,0.25 -0.0387,-0.9625 -0.48948,-1.75 -1.00196,-1.75 -0.72078,0 -0.79582,3.09805 -0.13867,5.78125 0.0379,0.15481 1.55116,0.18049 3.36133,0.0586 3.25245,-0.21904 3.27896,-0.25961 2.25,-3.5625 -0.4843,-1.55456 -0.75623,-2.35049 -0.98242,-2.49218 z m -43.66602,0.21484 c -2.39715,0 -2.9712,0.35341 -2.51172,1.55078 0.34149,0.88988 0.17428,1.29173 -0.39258,0.94141 -0.54369,-0.33603 -0.98828,-0.1653 -0.98828,0.3789 0,0.54421 1.01251,1.15194 2.25,1.34961 2.87549,0.45927 3.59978,-0.0714 1.72071,-1.25976 -1.162,-0.73489 -0.99802,-0.93322 0.77929,-0.94532 1.2375,-0.008 2.25,-0.46562 2.25,-1.01562 0,-0.55 -1.39857,-1 -3.10742,-1 z m 8.38477,0.0703 c -2.32659,0.14924 -4.27735,1.34595 -4.27735,2.94727 0,1.67951 0.64675,1.96732 4.25,1.88281 3.61042,-0.0847 3.87378,-0.22024 1.75,-0.90039 -2.5,-0.80063 -2.5,-0.80063 0,-1 2.5,-0.19936 2.5,-0.19936 0,-1 -2.5,-0.80062 -2.5,-0.80188 0,-1.01758 1.8959,-0.16357 2.05703,-0.32912 0.66993,-0.6875 -0.8007,-0.20686 -1.61705,-0.27436 -2.39258,-0.22461 z m 8.73828,0.10156 c -1.48397,0.0534 -2.01563,0.44165 -2.01563,1.30274 0,0.83829 0.675,1.52539 1.5,1.52539 0.82501,0 1.5,-0.45 1.5,-1 0,-0.55 0.40774,-1 0.90625,-1 0.4985,0 0.78715,0.7875 0.64258,1.75 -0.14457,0.9625 -0.0743,1.2117 0.15625,0.55469 0.23052,-0.65708 0.99059,-0.97523 1.68946,-0.70703 0.69887,0.26817 1.2718,-0.0935 1.27148,-0.80469 -3.4e-4,-0.78465 -1.50815,-1.40199 -3.83398,-1.56836 -0.72179,-0.0516 -1.32175,-0.0706 -1.81641,-0.0527 z m -41.01563,0.82813 c -2.2,0 -4,0.45 -4,1 0,0.55 1.8,1 4,1 2.2,0 4,-0.45 4,-1 0,-0.55 -1.8,-1 -4,-1 z m -9.25,0.2793 c -2.0625,0.071 -3.75,0.48623 -3.75,0.92382 0,0.95739 1.63203,0.88304 5,-0.22851 2.163,-0.71369 1.9945,-0.80707 -1.25,-0.69531 z m -3.16601,8.05664 c -0.34294,-0.0343 -0.58399,0.22996 -0.58399,0.71093 0,0.64132 -0.65223,0.91717 -1.44922,0.61133 -0.96661,-0.37092 -1.26593,-0.076 -0.89648,0.88672 0.30462,0.7937 1.02841,1.15082 1.60742,0.79297 0.66829,-0.41302 0.84664,0.13742 0.48828,1.50781 -0.36764,1.40585 0.0127,2.4951 1.0918,3.125 2.09298,1.22173 1.91561,1.2314 2.75391,-0.125 0.47265,-0.76477 0.26951,-0.88089 -0.59961,-0.34375 -0.97733,0.60403 -1.16811,0.26058 -0.74805,-1.3457 0.31014,-1.186 0.10813,-2.15625 -0.44922,-2.15625 -0.55735,0 -0.75905,-0.66137 -0.44922,-1.46875 0.30982,-0.80739 0.13145,-1.73352 -0.39453,-2.05859 -0.13149,-0.0813 -0.25678,-0.12529 -0.37109,-0.13672 z m 44.41601,22.77929 c -0.81562,0 -1.63125,0.0585 -2.25,0.17774 -1.23749,0.23835 -0.225,0.43359 2.25,0.43359 2.475,0 3.4875,-0.19526 2.25,-0.43359 -0.61874,-0.11919 -1.43437,-0.17774 -2.25,-0.17774 z m 8,4 c -0.81562,0 -1.63125,0.0585 -2.25,0.17774 -1.2375,0.23834 -0.225,0.43359 2.25,0.43359 2.475,0 3.4875,-0.19526 2.25,-0.43359 -0.61875,-0.11919 -1.43437,-0.17774 -2.25,-0.17774 z m -350.39453,62.56446 c -0.12621,-0.45496 -0.21529,2.45781 -0.21679,7.82031 -0.002,7.15 0.15493,10.20564 0.3496,6.79101 0.19451,-3.41462 0.19666,-9.26462 0.004,-13 -0.0482,-0.93384 -0.0947,-1.45967 -0.13672,-1.61132 z m 86.92969,1.51953 c -0.15906,-0.20164 -0.27498,0.65078 -0.2832,2.30078 -0.0111,2.19994 0.18526,3.21781 0.43554,2.26172 0.25013,-0.95609 0.2588,-2.75609 0.0195,-4 -0.0598,-0.31098 -0.11886,-0.49529 -0.17188,-0.5625 z m 113.15625,20.07226 c -0.13482,-0.0395 -0.35325,0.0188 -0.62305,0.18555 -0.5396,0.33349 -0.72628,1.27231 -0.41406,2.08594 0.40169,1.04672 0.099,1.29924 -1.03711,0.86328 -0.88309,-0.33887 -1.36095,-1.01393 -1.06055,-1.5 0.30041,-0.48605 -0.22613,-0.58676 -1.16992,-0.22461 -1.26487,0.48538 -1.49753,0.30473 -0.88672,-0.68359 0.45576,-0.73744 -0.32641,-0.47639 -1.73828,0.58007 -1.73867,1.30102 -2.26253,2.29345 -1.62304,3.07422 0.61661,0.75288 0.49598,1.33338 -0.34766,1.67188 -0.82147,0.32961 -0.65391,0.54551 0.45898,0.5957 0.9625,0.0434 1.7577,-0.48242 1.76563,-1.16992 0.0104,-0.84892 0.35827,-0.76873 1.08594,0.25 0.85431,1.196 0.96825,1.02691 0.55859,-0.83008 -0.41394,-1.87641 -0.18903,-2.19667 1.16211,-1.65234 0.92237,0.37158 2.12773,0.75764 2.67773,0.85742 0.55,0.0998 1.60724,0.56002 2.34961,1.02344 1.12683,0.70346 1.13274,0.452 0.0371,-1.52735 -0.72173,-1.30387 -1.20469,-2.74193 -1.07422,-3.19531 0.0652,-0.2267 0.0137,-0.36479 -0.12109,-0.4043 z m 0.96875,6.82813 c -0.15856,-0.0575 -0.4924,0.36346 -1.12695,1.21679 -0.74297,0.99913 -1.61828,1.78667 -1.94336,1.75 -1.915,-0.21573 -2.58985,0.0563 -2.58985,1.04102 0,0.60885 0.71205,0.83385 1.58204,0.5 0.86997,-0.33384 2.12413,-0.60742 2.7871,-0.60742 0.66298,0 1.27427,-1.0125 1.35938,-2.25 0.0727,-1.05693 0.0902,-1.59294 -0.0684,-1.65039 z m 297.61523,4.22851 c -0.10227,0.0877 -0.17365,0.39916 -0.19726,0.92188 -0.0434,0.9625 0.48437,1.75769 1.17187,1.76562 0.93481,0.0115 0.91268,0.22827 -0.0859,0.86133 -0.73448,0.46557 -1.33594,1.19603 -1.33594,1.62305 0,0.42702 0.60146,1.15143 1.33594,1.61133 0.93896,0.58792 1.45516,0.17728 1.73828,-1.38672 0.3935,-2.17375 0.41974,-2.16773 1.15039,0.27539 0.69971,2.33963 0.75433,2.29152 0.84765,-0.75 0.0788,-2.5709 -0.30218,-3.25 -1.81835,-3.25 -1.05416,0 -2.14252,-0.5625 -2.41993,-1.25 -0.15065,-0.37337 -0.28445,-0.50954 -0.38672,-0.42188 z m -4.4414,2.67188 c -0.52429,0 -0.6439,0.4985 -0.26758,1.10742 0.4488,0.72618 0.0264,0.89705 -1.22461,0.5 -1.51491,-0.48081 -1.94988,-0.0685 -2.12109,2 -0.16607,2.00615 0.14634,2.46503 1.36328,1.99805 0.86865,-0.33332 1.88053,-0.60703 2.24805,-0.60742 0.3675,-3.9e-4 0.7332,-1.12538 0.8125,-2.5 0.0793,-1.37461 -0.28628,-2.49805 -0.81055,-2.49805 z m -296.83399,4.51953 c -7.5693,0.25436 -7.29638,0.1919 -6.5,1.48047 0.33992,0.55 1.29218,1 2.11719,1 0.82496,0 1.22274,-0.45 0.88281,-1 -0.33992,-0.55 -0.143,-1 0.43946,-1 0.58246,0 1.06054,0.3761 1.06054,0.83594 0,0.45983 1.9125,0.84362 4.25,0.85156 3.35632,0.0121 3.61916,-0.0945 1.25,-0.50195 -3,-0.51597 -3,-0.51619 0,-1.20118 1.91076,-0.43632 0.63999,-0.60396 -3.5,-0.46484 z m -203.43359,24.453125 c -0.14656,-0.25779 -0.25327,1.052344 -0.25781,3.527344 -0.006,3.30004 0.17808,4.770228 0.40625,3.267578 0.22817,-1.50265 0.23187,-4.20265 0.01,-6 -0.0556,-0.44934 -0.10934,-0.708992 -0.1582,-0.794922 z m 634.00977,33.386719 c -0.14243,-0.28631 -0.24493,1.253125 -0.24805,4.140625 -0.004,3.85 0.17167,5.546724 0.39258,3.771484 0.22076,-1.77523 0.22392,-4.92522 0.008,-7 -0.0541,-0.51869 -0.10486,-0.816669 -0.15234,-0.912109 z m -118.03907,30.871094 c -0.15541,-0.12129 -0.26562,0.913281 -0.26562,2.769531 0,2.475 0.19525,3.4875 0.43359,2.25 0.23837,-1.2375 0.23837,-3.2625 0,-4.5 -0.0596,-0.30938 -0.11617,-0.479102 -0.16797,-0.519531 z M -500.72656,3.640625 c -0.63801,0.0549 -0.38173,0.4276981 0.68945,1.6113281 2.16046,2.38719 1.95781,3.3531456 -0.43555,2.0722657 -1.41569,-0.75768 -2,-0.7592863 -2,-0.00391 0,0.58708 1.0125,1.4473563 2.25,1.9101563 1.77492,0.6637999 2.40807,0.4264662 3,-1.1210938 0.9188,-2.40216 -0.14117,-4.2356069 -2.56445,-4.4355469 -0.41413,-0.0342 -0.72678,-0.051503 -0.93945,-0.033203 z" />
      <path
         id="path39166"
         style="fill:#0000c9;fill-opacity:1;stroke:#0000c9;stroke-width:1.96052;stroke-opacity:1"
         transform="matrix(0.26458333,0,0,0.26458333,150.30315,99.514616)"
         d="m -794.01172,-352.49219 c -0.11939,0.11885 -0.20213,0.94141 -0.20898,2.31641 -0.0111,2.19996 0.18526,3.21781 0.43554,2.26172 0.25013,-0.95609 0.25877,-2.75609 0.0195,-4 -0.0897,-0.46647 -0.17446,-0.64943 -0.2461,-0.57813 z m 358.53906,71.93164 c -0.81562,0 -1.63125,0.0585 -2.25,0.17774 -1.2375,0.23834 -0.22499,0.43359 2.25,0.43359 2.475,0 3.4875,-0.19526 2.25,-0.43359 -0.61875,-0.11919 -1.43437,-0.17774 -2.25,-0.17774 z m -353.41796,104.67578 c -0.13588,-0.14211 -0.23077,1.99649 -0.22852,5.70899 0.003,4.95 0.17569,6.84784 0.38281,4.21875 0.20617,-2.6291 0.204,-6.6791 -0.006,-9 -0.0524,-0.58023 -0.10315,-0.88037 -0.14843,-0.92774 z m 25.95507,31.43946 c -0.15541,-0.12129 -0.26562,0.91328 -0.26562,2.76953 0,2.47499 0.19525,3.4875 0.43359,2.25 0.23837,-1.2375 0.23837,-3.2625 0,-4.5 -0.0596,-0.30938 -0.11617,-0.4791 -0.16797,-0.51953 z m 296.33399,1.88281 c -0.90625,-0.002 -1.8474,0.053 -2.60742,0.16797 -1.52007,0.22985 -0.51368,0.4237 2.23632,0.43164 2.75015,0.007 3.99362,-0.18061 2.76368,-0.41797 -0.61497,-0.11866 -1.48633,-0.17917 -2.39258,-0.18164 z m -65,23 c -0.90625,-0.002 -1.84739,0.053 -2.60742,0.16797 -1.52006,0.22986 -0.51368,0.4237 2.23632,0.43164 2.75015,0.008 3.99362,-0.18061 2.76368,-0.41797 -0.61497,-0.11866 -1.48633,-0.17917 -2.39258,-0.18164 z m -318.41016,39.070312 c -0.11939,0.11885 -0.20213,0.941407 -0.20898,2.316407 -0.0111,2.19998 0.18526,3.217808 0.43554,2.261719 0.25013,-0.95609 0.25877,-2.756091 0.0195,-4 -0.0897,-0.46647 -0.17446,-0.649425 -0.2461,-0.578126 z m 669.09375,12.431641 c -0.1494,-0.14824 -0.25586,1.116016 -0.25586,3.384766 0,3.025 0.18698,4.2625 0.41602,2.75 0.22904,-1.5125 0.22904,-3.9875 0,-5.5 -0.0573,-0.37813 -0.11037,-0.585346 -0.16016,-0.634766 z m -25.97265,2.154297 c -0.13727,-0.2291 -0.23243,1.724219 -0.23243,5.230469 0,4.675 0.17226,6.5875 0.38282,4.25 0.21052,-2.3375 0.21052,-6.1625 0,-8.5 -0.0526,-0.58438 -0.10465,-0.904099 -0.15039,-0.980469 z m -643.04493,1.460938 c -0.15541,-0.12129 -0.26562,0.913281 -0.26562,2.769531 0,2.47499 0.19525,3.4875 0.43359,2.25 0.23837,-1.2375 0.23837,-3.2625 0,-4.5 -0.0596,-0.30938 -0.11617,-0.479102 -0.16797,-0.519531 z" />
      <path
         id="path39164"
         style="fill:#0000c9;fill-opacity:1;stroke:#0000c9;stroke-width:1.96052;stroke-opacity:1"
         transform="matrix(0.26458333,0,0,0.26458333,15.93727,42.978152)"
         d="m 64.367188,-66.878906 c -0.815625,0 -1.63125,0.05855 -2.25,0.177734 -1.237501,0.238345 -0.225001,0.433594 2.25,0.433594 2.474993,0 3.4875,-0.195257 2.25,-0.433594 -0.618751,-0.119187 -1.434376,-0.177734 -2.25,-0.177734 z M -340.06641,51.005859 c -0.14463,-0.175195 -0.24609,1.318749 -0.24609,4 0,3.575003 0.18052,5.037498 0.40234,3.25 0.22182,-1.787501 0.22182,-4.712499 0,-6.5 -0.0555,-0.446875 -0.10804,-0.691601 -0.15625,-0.75 z m 58.97071,2.230469 c -0.15541,-0.12129 -0.26563,0.913281 -0.26563,2.769531 0,2.474998 0.19526,3.487501 0.4336,2.25 0.23837,-1.2375 0.23837,-3.262499 0,-4.5 -0.0596,-0.309375 -0.11617,-0.479101 -0.16797,-0.519531 z m 637,90.000002 c -0.1554,-0.12129 -0.26563,0.91328 -0.26563,2.76953 0,2.47499 0.19511,3.4875 0.4336,2.25 0.23848,-1.2375 0.23848,-3.2625 0,-4.5 -0.0596,-0.30938 -0.11617,-0.4791 -0.16797,-0.51953 z" />
      <path
         id="path39162"
         style="fill:#0000c9;fill-opacity:1;stroke:#0000c9;stroke-width:1.96052;stroke-opacity:1"
         transform="matrix(0.26458333,0,0,0.26458333,150.30315,99.514616)"
         d="m -793.89062,-372.88477 c -0.13588,-0.14212 -0.23076,1.99649 -0.22852,5.70899 h 0.002 c 0.003,4.95 0.17419,6.84784 0.38086,4.21875 0.20617,-2.6291 0.204,-6.6791 -0.006,-9 -0.0524,-0.58023 -0.10315,-0.88037 -0.14843,-0.92774 z m 370.3125,83.31836 c -1.63125,-10e-4 -3.30069,0.051 -4.61524,0.1543 -2.62909,0.20666 -0.7293,0.37786 4.2207,0.38086 4.94999,0.003 7.10021,-0.16527 4.7793,-0.375 -1.16045,-0.10511 -2.75352,-0.15909 -4.38476,-0.16016 z m -15.89454,36 c -1.54062,0 -3.08125,0.0529 -4.25,0.15821 -2.3375,0.21052 -0.425,0.38281 4.25,0.38281 4.675,0 6.5875,-0.17229 4.25,-0.38281 -1.16875,-0.10526 -2.70937,-0.15821 -4.25,-0.15821 z m -417.44531,3.50586 c -0.14939,-0.14824 -0.25586,1.11602 -0.25586,3.38477 0,3.025 0.18691,4.2625 0.41602,2.75 0.22912,-1.5125 0.22912,-3.9875 0,-5.5 -0.0573,-0.37813 -0.11037,-0.58535 -0.16016,-0.63477 z m 554.90625,73.56836 c -0.11939,0.11885 -0.20213,0.94141 -0.20898,2.31641 -0.0111,2.19994 0.18526,3.21781 0.43554,2.26172 0.25013,-0.95609 0.25873,-2.75609 0.0195,-4 -0.0897,-0.46647 -0.17446,-0.64943 -0.2461,-0.57813 z m 156.07617,16.04688 c -0.15537,-0.12129 -0.26562,0.91328 -0.26562,2.76953 0,2.475 0.1951,3.4875 0.43359,2.25 0.23848,-1.2375 0.23848,-3.2625 0,-4.5 -0.0596,-0.30938 -0.11618,-0.4791 -0.16797,-0.51953 z m -702.07617,8.95312 c -0.11939,0.11885 -0.20213,0.94141 -0.20898,2.31641 -0.0111,2.19994 0.18526,3.21781 0.43554,2.26172 0.25013,-0.95609 0.25873,-2.75609 0.0195,-4 -0.0897,-0.46647 -0.17446,-0.64943 -0.2461,-0.57813 z m 370.53906,13.92578 c -1.17812,0 -2.35625,0.0551 -3.25,0.16602 -1.78749,0.22184 -0.325,0.4043 3.25,0.4043 3.57501,0 5.0375,-0.18248 3.25,-0.4043 -0.89375,-0.11091 -2.07187,-0.16602 -3.25,-0.16602 z m -371.53906,57.074222 c -0.11939,0.11885 -0.20213,0.941407 -0.20898,2.316407 -0.0111,2.19998 0.18526,3.217808 0.43554,2.261719 0.25013,-0.95609 0.25877,-2.756091 0.0195,-4 -0.0897,-0.46647 -0.17446,-0.649425 -0.2461,-0.578126 z m 126,17 c -0.11939,0.11885 -0.20213,0.941407 -0.20898,2.316407 -0.0111,2.19998 0.18526,3.217808 0.43554,2.261719 0.25013,-0.95609 0.25877,-2.756101 0.0195,-4 -0.0897,-0.46647 -0.17446,-0.649425 -0.2461,-0.578126 z m 390.07617,15.046876 c -0.15541,-0.12129 -0.26562,0.913281 -0.26562,2.769531 0,2.475 0.19525,3.4875 0.43359,2.25 0.23837,-1.2375 0.23837,-3.2625 0,-4.5 -0.0596,-0.30938 -0.11617,-0.479102 -0.16797,-0.519531 z m -121,24 c -0.1554,-0.12129 -0.26562,0.913281 -0.26562,2.769531 0,2.475 0.19525,3.4875 0.43359,2.25 0.23838,-1.2375 0.23838,-3.2625 0,-4.5 -0.0596,-0.30938 -0.11617,-0.479102 -0.16797,-0.519531 z" />
      <path
         id="path39160"
         style="fill:#0000c9;fill-opacity:1;stroke:#0000c9;stroke-width:1.96052;stroke-opacity:1"
         transform="matrix(0.26458333,0,0,0.26458333,150.30315,99.514616)"
         d="m -720.93555,-456.44531 c -0.15541,-0.12129 -0.26562,0.91328 -0.26562,2.76953 0,2.475 0.19525,3.4875 0.43359,2.25 0.23837,-1.2375 0.23837,-3.2625 0,-4.5 -0.0596,-0.30938 -0.11617,-0.4791 -0.16797,-0.51953 z m -0.002,23.96875 c -0.15906,-0.20164 -0.27498,0.65078 -0.2832,2.30078 -0.0111,2.19998 0.18526,3.21781 0.43554,2.26172 0.25013,-0.95609 0.2588,-2.75609 0.0195,-4 -0.0598,-0.31098 -0.11886,-0.49529 -0.17188,-0.5625 z m -72.93359,19.10937 c -0.12732,-0.33691 -0.2168,2.53516 -0.2168,7.69141 0,6.875 0.16018,9.6875 0.35547,6.25 0.19525,-3.4375 0.19525,-9.0625 0,-12.5 -0.0488,-0.85938 -0.0962,-1.3291 -0.13867,-1.44141 z m -0.0195,24.46094 c -0.13727,-0.2291 -0.23243,1.72422 -0.23243,5.23047 0,4.675 0.1723,6.5875 0.38282,4.25 0.21052,-2.3375 0.21052,-6.1625 0,-8.5 -0.0526,-0.58438 -0.10465,-0.9041 -0.15039,-0.98047 z m 33.9707,144.81445 c -0.15184,-0.22934 -0.26162,0.85352 -0.26758,2.91602 -0.007,2.75015 0.18062,3.99361 0.41797,2.76367 0.23732,-1.22994 0.24349,-3.47994 0.0137,-5 -0.0575,-0.38001 -0.11344,-0.60324 -0.16406,-0.67969 z m -96.9707,5.18555 c -0.13727,-0.2291 -0.23243,1.72422 -0.23243,5.23047 0,4.675 0.17226,6.5875 0.38282,4.25 0.21052,-2.3375 0.21052,-6.1625 0,-8.5 -0.0526,-0.58438 -0.10465,-0.9041 -0.15039,-0.98047 z m 332.29492,19.3418 c -1.0875,-0.002 -2.2107,0.0528 -3.10938,0.16406 -1.79735,0.22256 -0.56758,0.40801 2.73242,0.41406 3.30004,0.006 4.77023,-0.17612 3.26758,-0.40429 -0.75132,-0.11409 -1.80312,-0.17198 -2.89062,-0.17383 z m -332.32227,11.5039 c -0.14939,-0.14824 -0.25586,1.11602 -0.25586,3.38477 0,3.025 0.18691,4.2625 0.41602,2.75 0.22912,-1.5125 0.22912,-3.9875 0,-5.5 -0.0573,-0.37813 -0.11038,-0.58535 -0.16016,-0.63477 z m 711.02735,57.17578 c -0.13516,-0.14211 -0.22852,1.99649 -0.22852,5.70899 h 0.006 c 0.003,4.95 0.17606,6.84784 0.38281,4.21875 0.20068,-2.6291 0.198,-6.6791 -0.0117,-9 -0.0524,-0.58023 -0.10339,-0.88036 -0.14843,-0.92774 z m -354.58204,13.32618 c -3.17187,0 -6.34375,0.047 -8.75,0.13867 -4.81249,0.18334 -0.87499,0.33203 8.75,0.33203 9.62501,0 13.5625,-0.14872 8.75,-0.33203 -2.40625,-0.0917 -5.57812,-0.13867 -8.75,-0.13867 z m -87,16.99804 c -0.81562,0 -1.63125,0.0586 -2.25,0.17774 -1.2375,0.23834 -0.225,0.43359 2.25,0.43359 2.475,0 3.4875,-0.19526 2.25,-0.43359 -0.61875,-0.11919 -1.43437,-0.17774 -2.25,-0.17774 z m -96,6 c -0.81563,0 -1.63125,0.0586 -2.25,0.17774 -1.2375,0.23834 -0.225,0.43359 2.25,0.43359 2.47499,0 3.4875,-0.19526 2.25,-0.43359 -0.61875,-0.11919 -1.43438,-0.17774 -2.25,-0.17774 z m 500.55469,32.500003 c -0.14939,-0.14824 -0.25586,1.116016 -0.25586,3.384766 0,3.025 0.18698,4.2625 0.41602,2.75 0.22904,-1.5125 0.22904,-3.9875 0,-5.5 -0.0573,-0.37813 -0.11038,-0.585346 -0.16016,-0.634766 z m -150.01758,41.615235 c -0.15541,-0.12129 -0.26562,0.913281 -0.26562,2.769531 0,2.47499 0.19525,3.4875 0.43359,2.25 0.23837,-1.2375 0.23837,-3.2625 0,-4.5 -0.0596,-0.30938 -0.11617,-0.479102 -0.16797,-0.519531 z m -55.92968,1.835937 c -0.12441,-0.48269 -0.2114,2.658594 -0.21289,8.433594 -0.002,7.7 0.154,10.981408 0.3457,7.292969 0.19202,-3.68844 0.19215,-9.988441 0.002,-14 -0.0476,-1.00289 -0.0933,-1.565673 -0.13476,-1.726563 z m -168.01758,12.087891 c -0.13431,-0.25606 -0.23047,1.926953 -0.23047,5.845703 0,5.225 0.169,7.3625 0.375,4.75 0.206,-2.6125 0.206,-6.8875 0,-9.5 -0.0515,-0.65313 -0.0998,-1.010353 -0.14453,-1.095703 z" />
      <path
         id="path39158"
         style="fill:#0000c9;fill-opacity:1;stroke:#0000c9;stroke-width:1.96052;stroke-opacity:1"
         transform="matrix(0.26458333,0,0,0.26458333,150.30315,99.514616)"
         d="m -720.93555,-448.44531 c -0.15541,-0.12129 -0.26562,0.91328 -0.26562,2.76953 0,2.47499 0.19525,3.4875 0.43359,2.25 0.23837,-1.2375 0.23837,-3.2625 0,-4.5 -0.0596,-0.30938 -0.11617,-0.4791 -0.16797,-0.51953 z m 309.46289,158.88476 c -0.81562,0 -1.63125,0.0585 -2.25,0.17774 -1.2375,0.23834 -0.22499,0.43359 2.25,0.43359 2.475,0 3.4875,-0.19526 2.25,-0.43359 -0.61875,-0.11919 -1.43437,-0.17774 -2.25,-0.17774 z m -445.46289,73.11524 c -0.15541,-0.12129 -0.26562,0.91328 -0.26562,2.76953 0,2.475 0.19525,3.4875 0.43359,2.25 0.23837,-1.2375 0.23837,-3.2625 0,-4.5 -0.0596,-0.30938 -0.11617,-0.4791 -0.16797,-0.51953 z m 477,48 c -0.15541,-0.12129 -0.26562,0.91328 -0.26562,2.76953 0,2.47499 0.19525,3.4875 0.43359,2.25 0.23837,-1.2375 0.23837,-3.2625 0,-4.5 -0.0596,-0.30938 -0.11617,-0.4791 -0.16797,-0.51953 z m -263.53711,25.88476 c -0.81563,0 -1.63125,0.0585 -2.25,0.17774 -1.2375,0.23835 -0.225,0.43359 2.25,0.43359 2.47499,0 3.4875,-0.19526 2.25,-0.43359 -0.61875,-0.11919 -1.43438,-0.17774 -2.25,-0.17774 z m 39,21.9961 c -0.99687,0 -1.99375,0.0573 -2.75,0.17187 -1.51249,0.22913 -0.275,0.41602 2.75,0.41602 3.025,0 4.2625,-0.1869 2.75,-0.41602 -0.75625,-0.11455 -1.75312,-0.17187 -2.75,-0.17187 z m 24.86914,0.008 c -0.725,-0.004 -1.48546,0.0542 -2.10742,0.17383 -1.24391,0.23919 -0.46172,0.44412 1.73828,0.45508 2.19996,0.0111 3.21781,-0.18527 2.26172,-0.43555 -0.47804,-0.12507 -1.16758,-0.18972 -1.89258,-0.19336 z m -55.86914,5.99023 c -1.35938,0 -2.71875,0.0542 -3.75,0.16211 -2.0625,0.21576 -0.37501,0.39258 3.75,0.39258 4.125,0 5.8125,-0.17684 3.75,-0.39258 -1.03125,-0.10786 -2.39063,-0.16211 -3.75,-0.16211 z m -40,0.006 c -0.81563,0 -1.63125,0.0586 -2.25,0.17774 -1.2375,0.23834 -0.225,0.43359 2.25,0.43359 2.47499,0 3.4875,-0.19526 2.25,-0.43359 -0.61875,-0.11919 -1.43438,-0.17774 -2.25,-0.17774 z m 264,7.99414 c -1.72187,0 -3.44375,0.0513 -4.75,0.1543 -2.6125,0.20602 -0.47499,0.375 4.75,0.375 5.22501,0 7.3625,-0.16898 4.75,-0.375 -1.30625,-0.10299 -3.02812,-0.1543 -4.75,-0.1543 z m 263.56641,18.890629 c -0.14463,-0.1752 -0.24609,1.31875 -0.24609,4 0,3.575 0.18049,5.0375 0.40234,3.25 0.22186,-1.7875 0.22186,-4.7125 0,-6.5 -0.0555,-0.44687 -0.10803,-0.6916 -0.15625,-0.75 z m -427.0293,39.230469 c -0.1554,-0.12129 -0.26562,0.913281 -0.26562,2.769531 0,2.475 0.19524,3.4875 0.43359,2.25 0.23836,-1.2375 0.23836,-3.2625 0,-4.5 -0.0596,-0.30938 -0.11617,-0.479102 -0.16797,-0.519531 z m -191.00195,12.96875 c -0.15906,-0.20164 -0.27498,0.650781 -0.2832,2.300781 -0.0111,2.19998 0.18526,3.217808 0.43554,2.261719 0.25013,-0.95609 0.2588,-2.756091 0.0195,-4 -0.0598,-0.31098 -0.11886,-0.495291 -0.17188,-0.5625 z M -490.60156,10.4375 c -0.90625,-0.003 -1.8474,0.0531 -2.60742,0.167969 v 0.002 c -1.52007,0.22976 -0.51368,0.424081 2.23632,0.43164 2.75014,0.007 3.99362,-0.180608 2.76368,-0.417968 -0.61497,-0.11943 -1.48633,-0.180944 -2.39258,-0.183594 z" />
      <path
         id="path39156"
         style="fill:#0000c9;fill-opacity:1;stroke:#0000c9;stroke-width:1.96052;stroke-opacity:1"
         transform="matrix(0.26458333,0,0,0.26458333,150.30315,99.514616)"
         d="m -699.93555,-416.44531 c -0.15541,-0.12129 -0.26562,0.91328 -0.26562,2.76953 0,2.475 0.19525,3.4875 0.43359,2.25 0.23837,-1.2375 0.23837,-3.2625 0,-4.5 -0.0596,-0.30938 -0.11617,-0.4791 -0.16797,-0.51953 z m 296.46289,126.88476 c -0.81563,0 -1.63125,0.0585 -2.25,0.17774 -1.2375,0.23834 -0.225,0.43359 2.25,0.43359 2.47499,0 3.4875,-0.19526 2.25,-0.43359 -0.61875,-0.11919 -1.43438,-0.17774 -2.25,-0.17774 z m 23.53711,113.11524 c -0.15541,-0.12129 -0.26562,0.91328 -0.26562,2.76953 0,2.47499 0.19525,3.4875 0.43359,2.25 0.23837,-1.2375 0.23837,-3.2625 0,-4.5 -0.0596,-0.30938 -0.11617,-0.4791 -0.16797,-0.51953 z m -101.07617,24.95312 c -0.1194,0.11885 -0.20213,0.94141 -0.20898,2.31641 -0.0111,2.19994 0.18526,3.21781 0.43554,2.26172 0.25013,-0.95609 0.25874,-2.75609 0.0195,-4 -0.0897,-0.46647 -0.17446,-0.64943 -0.2461,-0.57813 z m -308,8 c -0.11939,0.11885 -0.20213,0.94141 -0.20898,2.31641 -0.0111,2.19994 0.18526,3.21781 0.43554,2.26172 0.25013,-0.95609 0.25877,-2.75609 0.0195,-4 -0.0897,-0.46647 -0.17446,-0.64943 -0.2461,-0.57813 z m -58.97851,9.39453 c -0.11359,0.16541 -0.19231,1.20313 -0.19727,2.92188 -0.007,2.75014 0.18062,3.99361 0.41797,2.76367 0.23732,-1.22994 0.24352,-3.47994 0.0137,-5 -0.0862,-0.57002 -0.16622,-0.78479 -0.23437,-0.68555 z m 276.38867,13.53516 c -0.90625,-0.002 -1.84739,0.053 -2.60742,0.16797 -1.52006,0.22986 -0.51368,0.4237 2.23632,0.43164 2.75005,0.008 3.99362,-0.18061 2.76368,-0.41797 -0.61497,-0.11866 -1.48633,-0.17917 -2.39258,-0.18164 z m -55.8711,0.002 c -0.81563,0 -1.63125,0.0586 -2.25,0.17774 -1.2375,0.23834 -0.225,0.43359 2.25,0.43359 2.47499,0 3.4875,-0.19526 2.25,-0.43359 -0.61875,-0.11919 -1.43438,-0.17774 -2.25,-0.17774 z m -39.1289,5.99805 c -0.90625,-0.002 -1.84739,0.053 -2.60742,0.16797 -1.52006,0.22985 -0.51368,0.4237 2.23632,0.43164 2.74977,0.008 3.99362,-0.18061 2.76368,-0.41797 -0.61497,-0.11866 -1.48633,-0.17917 -2.39258,-0.18164 z m 270.00586,7.99805 c -1.0875,-0.002 -2.21071,0.0528 -3.10938,0.16406 -1.79735,0.22256 -0.56758,0.40802 2.73242,0.41406 3.30003,0.006 4.77023,-0.17613 3.26758,-0.40429 -0.75133,-0.11409 -1.80312,-0.17198 -2.89062,-0.17383 z m -30.87696,0.004 c -0.81562,0 -1.63125,0.0586 -2.25,0.17774 -1.2375,0.23835 -0.225,0.43359 2.25,0.43359 2.475,0 3.4875,-0.19525 2.25,-0.43359 -0.61875,-0.11919 -1.43437,-0.17774 -2.25,-0.17774 z m -366.91601,32.8418 c -0.21224,-0.0217 -0.45512,0.0782 -0.70899,0.332031 -0.34293,0.34294 -0.27181,1.431749 0.15625,2.417969 0.74368,1.71336 0.79658,1.711834 1.21094,-0.03516 0.35054,-1.47793 -0.0215,-2.649704 -0.6582,-2.714844 z m 544.45312,25.273438 c -0.15541,-0.12129 -0.26562,0.913281 -0.26562,2.769531 0,2.475 0.19525,3.4875 0.43359,2.25 0.23837,-1.2375 0.23837,-3.2625 0,-4.5 -0.0596,-0.30938 -0.11617,-0.479102 -0.16797,-0.519531 z m -0.0762,8.953124 c -0.11939,0.11885 -0.20213,0.941407 -0.20898,2.316407 -0.0111,2.19994 0.18526,3.217808 0.43554,2.261719 0.25013,-0.95609 0.25877,-2.756091 0.0195,-4 -0.0897,-0.46647 -0.17446,-0.649425 -0.2461,-0.578126 z m -544.92383,1.046876 c -0.15541,-0.12129 -0.26562,0.913281 -0.26562,2.769531 0,2.475 0.19525,3.4875 0.43359,2.25 0.23837,-1.2375 0.23837,-3.2625 0,-4.5 -0.0596,-0.30938 -0.11617,-0.479102 -0.16797,-0.519531 z m 335.94532,22.347656 c -0.11359,0.16541 -0.19231,1.203125 -0.19727,2.921875 -0.007,2.75014 0.18061,3.9936116 0.41797,2.763672 0.23732,-1.22994 0.24354,-3.47994 0.0137,-5 -0.0862,-0.57002 -0.16622,-0.784787 -0.23437,-0.685547 z m -32.48243,18.5371091 c -0.81562,0 -1.63125,0.060497 -2.25,0.1796875 -1.2375,0.23834 -0.22499,0.4335938 2.25,0.4335938 2.475,0 3.4875,-0.1951038 2.25,-0.4335938 -0.61875,-0.11924 -1.43437,-0.1796875 -2.25,-0.1796875 z m 32,7.9999999 c -0.81562,0 -1.63125,0.0605 -2.25,0.179688 -1.2375,0.23838 -0.225,0.433593 2.25,0.433593 2.475,0 3.4875,-0.195103 2.25,-0.433593 -0.61875,-0.11924 -1.43437,-0.179688 -2.25,-0.179688 z m -23.13086,0.0039 c -0.725,-0.004 -1.48546,0.0542 -2.10742,0.173829 v -0.002 c -1.24391,0.23928 -0.46172,0.443739 1.73828,0.455078 2.19998,0.0111 3.21781,-0.185346 2.26172,-0.435546 -0.47804,-0.12454 -1.16758,-0.187907 -1.89258,-0.191407 z" />
      <path
         id="path39154"
         style="fill:#0000c9;fill-opacity:1;stroke:#0000c9;stroke-width:1.96052;stroke-opacity:1"
         transform="matrix(0.26458333,0,0,0.26458333,150.30315,99.514616)"
         d="m -706.19531,-487.44141 c -3.21597,-0.39482 -7.53756,1.47801 -17.77735,5.0293 -26.55937,9.21114 -48.09147,18.85481 -65.54687,29.35938 -25.4802,15.33385 -49.41626,38.57116 -64.76953,62.87695 -5.68504,9 -5.6836,9 -5.6836,62 0,53 -0.002,53 -3.41211,58.5 -3.41056,5.5 -3.40971,5.5 -2.20703,59 1.24071,55.19129 3.53972,132.762124 4.67383,157.683592 0.64542,14.18372 0.64555,14.183821 4.79492,16.900391 2.84843,1.86488 3.63459,2.120916 2.50782,0.816406 -2.44513,-2.83085 -3.8244,-59.15397 -1.58008,-64.52539 1.72543,-4.129539 -1.73952,-3.598619 41.72265,-6.396489 12.925,-0.83206 30.025,-1.98299 38,-2.55859 7.975,-0.5756 37.33749,-1.30066 65.25,-1.60937 42.1257,-0.4659 50.75,-0.79404 50.75,-1.93555 0,-0.75637 -0.5625,-1.38842 -1.25,-1.4043 -0.6875,-0.0159 -14.075,-0.008 -29.75,0.0176 -45.31949,0.0745 -93.83187,2.53659 -138,7.00195 -10.725,1.08429 -21.075,1.94222 -23,1.90821 -3.49997,-0.0622 -3.50137,-0.0625 -0.0488,-1.56641 12.83024,-5.58891 82.31796,-11.12897 162.54882,-12.95898 29.35982,-0.66969 30.08049,-0.7343 33.81446,-3.08204 3.66799,-2.30624 4.37917,-4.22713 1.87304,-5.0625 -0.65313,-0.21771 -1.1875,0.31666 -1.1875,1.1875 0,1.08421 -0.92515,1.58399 -2.93164,1.58399 -2.8171,0 -2.89428,-0.12272 -2.01758,-3.17969 0.50156,-1.74883 1.48214,-3.54162 2.17969,-3.98437 1.74089,-1.10497 0.71807,-1.0792 -25.30859,0.66992 -61.8124,4.15408 -153.80495,14.06418 -167.7793,18.07422 -2.94661,0.84555 -5.52416,1.37231 -5.72656,1.16992 -0.64604,-0.64606 -0.54312,-69.73766 0.10547,-70.78711 1.23488,-1.99808 12.67494,-7.0451 25.82617,-11.39453 41.7404,-13.80455 121.75537,-25.00191 221.65234,-31.01563 45.97244,-2.76751 40.55728,-8.53347 40.09571,42.71485 -0.40288,44.73206 -0.40225,44.73242 2.37304,44.73242 2.7753,0 2.77595,0 2.08399,-23.75 -0.38059,-13.0625 -1.09059,-32.94148 -1.57617,-44.17383 -0.48558,-11.23236 -0.6524,-20.79486 -0.3711,-21.25 0.28129,-0.45514 2.20536,-0.82617 4.27539,-0.82617 3.76369,0 3.76412,-2.8e-4 3.69141,45.49805 -0.04,25.02407 -0.29727,45.50289 -0.57227,45.50781 -0.275,0.005 -6.125,0.2282 -13,0.49609 -6.875,0.2679 -27.12501,0.99132 -45,1.60742 -17.875,0.61612 -32.66614,1.27166 -32.86914,1.45703 -0.20297,0.18537 0.34606,1.0531 1.22071,1.92774 0.87464,0.87465 1.87117,3.70979 2.21484,6.29883 0.62484,4.70742 0.62535,4.70589 80.7793,4.68359 44.08467,-0.0122 82.9641,-0.406 86.39843,-0.87695 6.24425,-0.85628 6.24456,-0.85704 7.66993,2.52148 1.42538,3.37851 1.42547,3.3792 -8.24414,4.01758 -5.31829,0.35113 -44.76993,0.6755 -87.66993,0.7207 -66.5964,0.0702 -78.04421,0.28914 -78.30273,1.50391 -0.24548,1.1535 2.44198,1.5604 14.20508,2.14844 19.96301,0.99794 153.02895,1.17164 158.64648,0.20703 5.43881,-0.93393 3.08471,-5.47645 22.40821,43.248046 7.43489,18.747218 16.73307,41.28934 20.6621,50.09375 3.92904,8.804409 6.97171,16.169074 6.76172,16.365234 -0.79862,0.74604998 -34.02244,2.5725181 -46.9082,2.5800781 -7.41028,0.004 -16.41375,0.2856 -20.00781,0.625 -6.53467,0.61738 -6.53408,0.6183183 -6.14453,3.9550781 0.38954,3.3367498 0.38808,3.3360698 8.5332,3.7187498 18.91248,0.88853 59.17375,-1.1300068 67.89648,-3.4042966 2.0625,-0.53779 3.75,-1.55049 3.75,-2.25 0,-0.69951 -1.12539,-4.14085764 -2.5,-7.6484375 -1.37461,-3.50758 -2.61212,-6.9253401 -2.75,-7.5937499 -0.19098,-0.92583 7.61012,-1.342014 32.75,-1.746094 66.40832,-1.06741 117.5268,-6.878474 169.5,-19.271484 34.50947,-8.22878 79.01039,-24.427828 80.41797,-29.273438 0.96544,-3.32358 1.27426,-158.641156 0.32227,-162.091796 -1.17751,-4.26785 -7.7774,-11.73929 -16.59961,-18.79297 -25.59715,-20.46582 -97.0108,-40.39878 -166.14063,-46.37305 -18.5921,-1.60674 -130.94567,-1.49553 -133.98828,0.13282 -1.8949,1.01412 -2.01172,2.06726 -2.01172,18.04297 0,14.41315 -0.22561,16.96484 -1.5,16.96484 -1.08333,0 -1.5,1.11111 -1.5,4 0,3.33333 0.33333,4 2,4 1.88888,0 2,-0.66667 2,-12 0,-11.33333 0.11111,-12 2,-12 1.77776,0 2,-0.66667 2,-6 0,-6 -10e-4,-6 24.33789,-6 13.38657,0 33.14188,-0.29595 43.90039,-0.65625 19.56095,-0.65511 19.56041,-0.65511 20.12891,6.75 0.31262,4.07282 1.25388,16.18125 2.08985,26.90625 3.25169,41.71744 3.36755,37.39504 -0.98047,36.68945 -4.85075,-0.78717 -11.91908,0.77596 -15.70899,3.47461 -2.93494,2.08987 -2.93472,2.09101 -2.60156,-15.53711 0.36295,-19.2037 0.62318,-18.31077 -5.16602,-17.81445 -0.825,0.0707 -3.8625,0.20077 -6.75,0.28906 -5.25,0.16047 -5.25,0.16132 -5.25,13.54883 0,13.38752 0,13.38758 -2.75,12.62305 -6.90337,-1.91919 -15.9111,-0.27108 -24.34179,4.45507 -0.32522,0.18231 -0.87361,-8.79036 -1.21875,-19.93945 -0.54394,-17.57039 -0.85677,-20.4377 -2.34961,-21.5293 -1.07606,-0.78683 -5.02758,-1.25976 -10.53125,-1.25976 -8.80888,0 -8.8086,0 -8.8086,4 0,4 0,4 9.5,4 9.5,0 9.49855,2e-5 9.49805,12.75 v 12.75 l -57.48633,0.19726 c -57.48655,0.19786 -57.48561,0.19877 -59.56836,-6.6582 -1.69218,-5.57116 -2.53774,-6.97185 -4.50195,-7.46484 -4.96139,-1.24522 -6.83848,-8.76924 -3.94727,-15.82032 0.62838,-1.53247 0.30634,-1.65481 -2.63867,-1 -1.84552,0.41037 -6.04447,0.7461 -9.33008,0.7461 -5.97383,0 -5.97433,0 -11.75,-15.5 -5.54382,-14.8778 -13.34506,-36.97373 -22.0664,-62.5 -3.86583,-11.3148 -4.58766,-12.59659 -12.6543,-22.42969 -4.70535,-5.73571 -8.85812,-10.87996 -9.22851,-11.43359 -0.3704,-0.55362 -3.72224,-1.03655 -7.44922,-1.07227 -6.77632,-0.0648 -6.7779,-0.0644 -11.56641,-11.06445 -4.78851,-11 -4.78712,-11.00061 -4.79883,-6.27344 -0.007,2.63825 1.09748,7.67814 2.5,11.4043 1.38216,3.67206 2.35912,6.83031 2.16992,7.01953 -0.18921,0.18921 -3.02965,0.62563 -6.3125,0.96875 -5.96883,0.62387 -5.96932,0.62358 -7.3457,-3.54688 -0.75696,-2.2937 -1.90689,-4.48549 -2.55469,-4.87109 -1.66122,-0.98882 -3.66954,-5.06888 -3.01562,-6.12695 0.30081,-0.48672 -3.23142,-10.49106 -7.84961,-22.23047 -10.12743,-25.74396 -28.05285,-75.7445 -27.38477,-76.38672 0.1539,-0.14794 4.68821,3.97631 10.07618,9.16406 9.79631,9.43231 9.79663,9.43077 20.27929,37.6543 5.76547,15.52295 10.95607,29.41878 11.53516,30.87891 0.57911,1.46013 1.95237,2.89049 3.05078,3.17773 1.56262,0.40863 1.84927,0.15593 1.32031,-1.15625 -2.84402,-7.05506 -14.26809,-37.59992 -18.95312,-50.67578 -5.73133,-15.99604 -5.73291,-16.00111 -11.31836,-20.5 -3.07275,-2.475 -10.17829,-8.85873 -15.78906,-14.18555 -5.81699,-5.52259 -7.9266,-8.18525 -11.14258,-8.58008 z m 3.20703,20.85547 c 1.13031,-0.0691 1.51562,0.26844 1.51562,0.99024 0,0.59419 3.18868,8.35669 7.08594,17.25 3.89731,8.89331 10.45846,24.94492 14.58203,35.66992 13.93239,36.23678 19.61014,50.49412 20.61524,51.77344 0.55053,0.70079 0.82525,1.43917 0.60937,1.64062 -0.21587,0.20145 -8.91819,1.59771 -19.33789,3.10352 -10.41975,1.50581 -24.99663,3.97272 -32.39258,5.48047 -13.4472,2.74138 -13.44643,2.74074 -12.79883,-8.87891 0.3562,-6.39081 0.9406,-31.98354 1.29883,-56.87305 0.65129,-45.25366 0.65087,-45.25441 4.24414,-46.22265 1.9763,-0.53255 5.84375,-1.64988 8.59375,-2.48438 2.97878,-0.90392 4.85408,-1.38011 5.98438,-1.44922 z m -30.96094,8.91016 c 0.84972,0 1.4068,4.06057 1.88477,13.75 0.37305,7.5625 1.54612,28.6 2.60742,46.75 3.25638,55.68854 4.46768,49.27448 -10.01563,53.0625 -6.875,1.79811 -15.38329,4.18188 -18.90625,5.29687 -6.40538,2.02727 -6.40442,2.02749 -5.74218,-16.16601 0.36422,-10.00643 0.95643,-35.18086 1.3164,-55.94336 0.35997,-20.7625 0.6934,-37.75191 0.74219,-37.75391 0.0488,-0.002 6.12295,-2.02674 13.49805,-4.5 7.37509,-2.47326 13.9521,-4.49609 14.61523,-4.49609 z m -37.63086,13.79101 c 1.98805,0.50497 2.13166,4.05867 2.50977,13.53907 1.14332,28.66654 2.6015,77.17932 2.57617,85.66992 -0.0255,8.5 -0.0251,8.49979 -12.25195,13.08984 -6.72478,2.52453 -13.01407,4.93566 -13.97657,5.35742 -1.65449,0.72511 -1.75,-2.18062 -1.75,-53.24609 0,-54.01197 -6e-4,-54.01131 4.47266,-56.63281 2.4603,-1.44183 8.03954,-4.14799 12.39844,-6.01367 2.97198,-1.27206 4.82864,-2.0667 6.02148,-1.76368 z m -28.39258,13.27344 0.70313,8.7168 c 0.90216,11.17168 4.11141,96.24776 3.64648,96.66601 -0.19291,0.17355 -3.27461,1.7685 -6.84961,3.54493 -3.575,1.77643 -9.03391,4.75539 -12.13086,6.61914 -3.09695,1.86374 -5.88314,3.38867 -6.1914,3.38867 -0.30826,0 -0.39918,-2.3625 -0.20117,-5.25 0.198,-2.8875 0.67507,-26.47023 1.06054,-52.40625 0.70086,-47.1564 0.70163,-47.1572 10.33203,-54.21875 z m 95.57227,5.41797 c -0.46264,0.0527 -0.79181,0.20667 -0.875,0.44922 -0.16638,0.48512 -1.17888,1.8939 -2.25,3.12891 -1.6011,1.84606 -1.9501,3.77396 -1.96484,10.84179 -0.01,4.72834 -0.44233,12.6316 -0.96094,17.5625 -0.62608,5.95229 -0.60585,9.17483 0.0625,9.58789 0.82229,0.50817 5.68714,0.53463 9.16601,0.0508 0.41249,-0.0574 0.75,-9.27743 0.75,-20.48828 0,-20.2965 -0.01,-20.38406 -2.25,-20.97265 -0.61875,-0.16255 -1.21508,-0.21289 -1.67773,-0.16016 z m -2.19336,5.73242 c 1.39692,0.26815 1.65897,2.47409 1.89648,16.04688 0.25907,14.80444 0.1635,15.73828 -1.5957,15.73828 -1.74808,0 -1.87109,-1.04778 -1.89453,-16.04883 -0.0222,-14.26168 0.15435,-16.01261 1.59375,-15.73633 z m -38.79687,7.8418 c -1.09945,-0.11268 -2.12957,0.20888 -2.62696,1.01367 -0.93865,1.51877 0.6135,34.00353 1.5957,33.39649 0.44562,-0.27541 1.09401,-0.0434 1.43946,0.51562 0.34546,0.55897 1.5478,1.01758 2.67187,1.01758 1.98937,0 2.03283,-0.43553 1.68946,-16.34766 -0.25807,-11.95886 -0.72059,-16.79078 -1.72461,-18 -0.77665,-0.93537 -1.94549,-1.48302 -3.04492,-1.5957 z m -79.75977,0.99023 c 0.42952,0.49272 2.72986,80.75791 2.66406,92.95313 -0.0405,7.49999 -0.0403,7.5 -6.26367,12 -3.42287,2.475 -6.54484,4.64358 -6.9375,4.82031 -0.39265,0.17672 -0.47223,-22.32328 -0.17773,-50 0.53548,-50.3213 0.53501,-50.32106 5.42773,-55.27344 2.691,-2.72381 5.07021,-4.74881 5.28711,-4.5 z m 80.24414,4.92579 c 0.0489,0.0859 0.10255,0.34558 0.1582,0.79492 0.22258,1.79735 0.2198,4.49735 -0.01,6 -0.22819,1.50265 -0.4123,0.0324 -0.40625,-3.26758 0.004,-2.475 0.11115,-3.78513 0.25781,-3.52734 z m -96.01758,11.84179 c 0.082,0.0153 0.13588,0.0761 0.15625,0.18555 0.15349,0.825 0.93042,22.37685 1.72656,47.89258 1.44753,46.39222 1.44745,46.39043 -6.74218,54.24023 -4.41276,4.22966 -7.87785,7.5549 -8.02344,7.69922 0.40264,-6.73512 1.46782,-39.57023 1.89453,-60.49805 0.75778,-37.16496 0.75698,-37.16496 5.81055,-44 2.58135,-3.49132 4.60339,-5.62656 5.17773,-5.51953 z m 224.28516,44.34375 c 0.10215,0.0997 0.16601,0.31483 0.16601,0.6211 0,0.61254 2.309,4.16439 5.13086,7.89257 4.85018,6.40799 5.80418,8.78295 17.45313,43.45703 6.77739,20.17349 13.42461,39.39236 14.77148,42.70704 1.34687,3.31466 2.1917,6.28291 1.87891,6.5957 -0.31278,0.31279 -2.70033,0.56836 -5.30664,0.56836 -4.73876,0 -4.73929,0 -7.71485,-8.25 -7.25735,-20.12162 -16.26609,-49.38624 -19.16211,-62.25 -1.73349,-7.7 -4.28151,-17.75933 -5.66406,-22.35352 -1.38256,-4.59419 -2.26112,-8.60603 -1.95117,-8.91601 0.155,-0.15499 0.29629,-0.1718 0.39844,-0.0723 z m -10.16211,8.85352 c 0.64484,-0.006 1.71305,1.67578 2.375,3.73828 0.66195,2.0625 4.48259,11.85 8.49023,21.75 8.89817,21.98103 15.46674,41.23972 19.26953,56.5 3.34683,13.43056 6.25587,11.67084 -24.80664,15.01562 -50.14755,5.39982 -128.06656,18.75798 -169.04101,28.98047 -18.17422,4.53419 -31.16715,8.58774 -46.56445,14.5293 -6.1081,2.35701 -12.98123,5.24176 -15.27149,6.41016 -3.59081,1.83189 -4.24276,1.91518 -4.74609,0.60351 -0.32107,-0.8366 -0.42384,-17.61363 -0.22852,-37.28125 0.35523,-35.7593 0.35533,-35.75781 3.78516,-40.75781 11.88164,-17.321 40.31743,-35.85109 71.14062,-46.35742 20.7279,-7.06529 55.15737,-14.03232 87.16406,-17.63868 10.93205,-1.23176 63.40374,-5.44288 68.4336,-5.49218 z m -25.60742,17.93164 c -3.80567,0.002 -8.1076,2.5756 -12.30469,7.56445 -5.76921,6.85756 -6.11325,8.81922 -6.53906,37.2832 -0.3933,26.29071 -0.39486,26.28892 1.9414,25.77149 1.28494,-0.28459 8.86289,-1.4291 16.83789,-2.54492 18.29155,-2.5593 19,-2.73104 19,-4.59766 0,-1.3062 -1.10667,-1.44275 -7.25,-0.89648 -6.22234,0.55327 -23.63527,2.97459 -26.80859,3.72851 -1.37255,0.32609 -1.23965,-39.95269 0.15234,-46.1875 1.96125,-8.78456 8.91088,-17.06445 14.32227,-17.06445 5.1438,0 10.22224,12.54229 12.95703,32 0.88899,6.325 1.78131,12.625 1.98438,14 0.20307,1.375 0.43096,-2.58894 0.50585,-8.8086 0.22597,-18.7643 -2.6269,-31.16266 -8.61523,-37.4414 -1.79588,-1.88299 -3.90019,-2.80802 -6.18359,-2.80664 z m -49.21875,10.46484 c -4.08393,0.0528 -9.55906,3.31414 -12.5625,7.73047 -5.26569,7.7428 -5.57394,9.57884 -6.04688,36.15625 -0.44122,24.7946 -0.4396,24.79465 2.41211,24.10156 13.6484,-3.31707 24.88401,-7.26142 25.19336,-8.84375 0.38891,-1.98916 -0.23962,-1.91882 -14.63476,1.64258 -4.56121,1.12845 -8.61123,1.73364 -9,1.3457 -1.23268,-1.22994 -1.43785,-29.05011 -0.26954,-36.58007 1.449,-9.339 4.45517,-16.22184 8.72266,-19.96875 8.68952,-7.6295 14.69899,-0.1095 17.98633,22.50781 1.30811,9 1.307,9.0004 0.82617,-1.22461 -0.70896,-15.07639 -4.85124,-25.15063 -10.97461,-26.6875 -0.51538,-0.12935 -1.06892,-0.18722 -1.65234,-0.17969 z m -43.22071,9.43164 c -2.52868,-0.0507 -5.26052,0.823 -7.41601,2.63672 -6.94267,5.84187 -8.881,17.88368 -7.67578,47.6836 0.71358,17.64379 0.76922,17.98187 2.84765,17.50585 20.56134,-4.70916 21.61914,-5.07484 21.61914,-7.46484 0,-1.76598 -0.42702,-2.2035 -1.75,-1.79101 -4.12115,1.28488 -17.66051,3.51296 -18.18164,2.99218 -0.3133,-0.3131 -0.56836,-10.99445 -0.56836,-23.73633 0,-25.30471 0.19209,-26.29724 6.16016,-31.76953 4.04369,-3.70776 5.84479,-4.07294 8.76562,-1.77539 3.30391,2.59885 5.45975,10.05574 7.17383,24.83008 l 1.33789,11.54883 -0.42578,-12 c -0.44939,-12.61172 -2.29956,-20.98226 -5.6914,-25.75 -1.34021,-1.88386 -3.66664,-2.85942 -6.19532,-2.91016 z m -39.80468,13.19141 c -3.00333,-0.0357 -5.0518,1.66746 -7.59375,6.3125 -1.48607,2.71556 -1.76986,6.81429 -2.03711,29.40625 -0.25,21.13282 -0.0551,26.25271 1,26.26367 2.70881,0.0279 17.81054,-4.35257 17.81054,-5.16601 0,-1.23734 -2.44174,-1.04696 -9.25586,0.71874 -4.96193,1.28578 -6.20213,1.33053 -6.92382,0.25 -0.48353,-0.72393 -0.75313,-11.8914 -0.59961,-24.8164 0.23996,-20.19965 0.52593,-23.95262 2.03906,-26.7207 2.66726,-4.87945 5.06625,-5.76375 8.23242,-3.03321 2.87193,2.47683 3.89703,5.98726 6.05859,20.75391 1.39064,9.5 1.39025,9.49948 1.07227,-2.50391 -0.41295,-15.58996 -3.05922,-21.38475 -9.80273,-21.46484 z m 430.17968,7.6875 21.75,0.66601 c 11.9625,0.36648 25.86558,1.15537 30.89649,1.75196 9.14712,1.08471 9.14686,1.08319 9.78515,18.72265 0.35106,9.70173 0.86126,19.06442 1.13282,20.80469 0.44666,2.86211 0.20523,3.22685 -2.52344,3.82617 -1.65913,0.36467 -4.48487,0.52937 -6.2793,0.36719 -1.79443,-0.16219 -3.20163,0.14132 -3.12695,0.67383 0.0747,0.53251 0.45199,9.7682 0.83789,20.52344 0.59295,16.52548 0.47553,19.74205 -0.75781,20.76562 -1.204,0.99923 -1.6802,0.67573 -2.72461,-1.8457 -0.69629,-1.68099 -3.00479,-4.54316 -5.12891,-6.36133 -3.52174,-3.01448 -3.86133,-3.74292 -3.86133,-8.27734 0,-6.67616 -2.41697,-14.41468 -5.56054,-17.80664 -2.22079,-2.39628 -3.12082,-2.70201 -6.57813,-2.23829 -3.79516,0.50904 -12.58367,5.31867 -11.57031,6.33204 0.26099,0.26097 2.19623,-0.69291 4.30078,-2.1211 2.85808,-1.93953 4.83511,-2.52087 7.81641,-2.29883 5.43762,0.40499 7.73553,4.35258 8.38086,14.40821 0.47414,7.38821 0.47328,7.38823 -2.90821,7.41015 -4.38022,0.0284 -11.56889,3.30636 -15.42968,7.03516 -3.04732,2.94315 -3.04732,2.94159 -7,-1.14453 -2.17397,-2.24737 -6.14995,-5.21 -8.83594,-6.58399 -4.88362,-2.49815 -4.88362,-2.4984 -4.25,-8.56054 0.34849,-3.33417 0.63476,-10.04475 0.63476,-14.91407 0,-10.00445 -0.39862,-9.69274 10.45508,-8.20507 4.73467,0.64896 4.73493,0.64895 4.17969,16.25 -0.52484,14.74649 -0.48955,15.17399 0.6543,7.82031 0.66558,-4.2789 1.21093,-11.7039 1.21093,-16.5 0,-8.72018 -2.1e-4,-8.71911 -8.38476,-9.01172 -8.38425,-0.29261 -8.38533,-0.29261 -7.75977,-5.5 0.34405,-2.86407 0.62986,-12.13288 0.63477,-20.59766 z m -461.03515,5.11133 c -1.80969,0.0167 -3.62626,0.46958 -4.69727,1.35351 -0.87625,0.7232 -2.52639,3.34141 -3.66601,5.81641 -1.87847,4.0796 -2.10514,6.77888 -2.42969,28.89258 -0.29521,20.11431 -0.12272,24.29871 0.98437,23.85937 6.97698,-2.76875 9.92234,-3.79909 13.42579,-4.69531 2.50828,-0.64166 4.08398,-1.62547 4.08398,-2.55078 0,-2.0177 -2.21527,-1.89802 -9.17383,0.49609 -3.20134,1.10142 -5.9597,1.86452 -6.12891,1.69531 -0.1692,-0.16921 -0.43286,-9.73224 -0.58593,-21.25195 -0.26125,-19.66441 -0.14523,-21.23006 1.8789,-25.60937 4.61105,-9.97623 10.6668,-8.59985 13.91993,3.16406 1.1874,4.29381 1.24868,4.34852 1.33398,1.2168 0.106,-3.8907 -1.92745,-9.15897 -4.29102,-11.11914 -1.04233,-0.86444 -2.8446,-1.28428 -4.65429,-1.26758 z m 535.55273,0.39453 c 0.5746,0.0302 1.23242,0.0958 1.98242,0.17187 6.37931,0.647 41.61872,6.37413 42.03907,6.83203 0.13695,0.14919 0.41486,8.48399 0.61718,18.52149 0.36787,18.25 0.36777,18.24981 -6.14453,18.40039 -6.5123,0.15057 -6.51189,0.15005 0.12305,1.14258 6.63495,0.99253 6.63493,0.99318 7.36133,17.46093 0.69244,15.69796 0.63207,16.56127 -1.29102,18.48438 -2.01741,2.01741 -2.01824,2.01721 -6.53906,-1.76172 -4.90663,-4.10144 -4.85149,-3.92745 -6.74219,-21.47656 -0.67518,-6.26666 -0.74807,-5.43604 -0.4375,5.05859 0.3717,12.56006 0.37176,12.56113 -4.3789,12.63281 -2.61286,0.0394 -6.29373,0.8383 -8.17969,1.7754 -1.88595,0.93708 -4.39327,2.85084 -5.57227,4.25195 -2.13397,2.53599 -2.14891,2.53802 -3.26367,0.45508 -1.84218,-3.44214 -7.5807,-7.19027 -12.23047,-7.98828 -5.04502,-0.86585 -4.67521,2.73303 -2.84179,-27.68555 0.59668,-9.9 1.17462,-24.45995 1.2832,-32.35547 0.17273,-12.56106 0.19261,-14.13133 4.21484,-13.91992 z m 52.90235,9.07422 c 0.0803,-0.11005 4.40667,0.89394 9.61328,2.23047 5.20661,1.33653 11.3617,2.43825 13.67773,2.44921 2.85693,0.0136 4.79069,0.64238 6.01367,1.95508 0.99145,1.0642 2.96569,2.3777 4.38672,2.91797 2.49469,0.94848 2.60564,1.35479 3.25781,11.81445 0.37153,5.95804 0.95805,13.69604 1.30274,17.19532 0.6268,6.36231 0.62616,6.36311 -2.77344,5.76367 -3.39956,-0.59944 -3.39825,-0.59946 -0.22461,0.85937 1.74548,0.80236 3.39344,2.25827 3.66406,3.23633 0.27042,0.97806 1.0503,8.3791 1.73243,16.44531 1.10914,13.11571 1.07297,14.8333 -0.34375,16.25 -1.97174,1.97177 -2.72657,2.00489 -2.72657,0.11915 0,-0.80588 -1.46251,-3.13173 -3.25,-5.16797 -2.94091,-3.35016 -3.25722,-4.32868 -3.31445,-10.28516 -0.15005,-15.61321 -2.96485,-23.08203 -8.69922,-23.08203 -1.8107,0 -4.34875,0.73966 -5.64062,1.64453 -2.34642,1.64349 -2.34893,1.64244 -1.93555,-1.89844 0.41381,-3.54457 0.4144,-3.54533 -4.62305,-4.18359 -2.7706,-0.35104 -6.51126,-1.10905 -8.3125,-1.68555 -3.27499,-1.04816 -3.27566,-1.04869 -2.61328,-18.71289 0.36431,-9.71531 0.72828,-17.75518 0.8086,-17.86523 z m -615.60352,6.07422 c -0.56054,0.0716 -1.15174,0.27093 -1.76953,0.60156 -4.16237,2.22763 -5.04688,7.72976 -5.04688,31.37109 0,22.30591 -9.9e-4,22.30571 6.72852,20.04102 3.70123,-1.24558 6.88937,-2.74237 7.08398,-3.32617 0.50924,-1.52771 -2.15657,-1.30708 -6.83398,0.56445 -2.23395,0.89386 -4.27555,1.41196 -4.53516,1.15234 -0.25962,-0.25962 -0.57698,-9.87828 -0.70703,-21.375 -0.26323,-23.26887 0.44788,-26.90234 5.27149,-26.90234 3.02742,0 4.49166,3.77517 5.92382,15.28516 0.95988,7.71453 0.95815,7.71457 0.6504,-1.31836 -0.36913,-10.83347 -2.84182,-16.59461 -6.76563,-16.09375 z m 363.18359,8.62695 c -1.61904,0 -2,0.66667 -2,3.5 0,2.83333 0.38096,3.5 2,3.5 1.61905,0 2,-0.66667 2,-3.5 0,-2.83333 -0.38095,-3.5 -2,-3.5 z m 11,0 c -0.55,0 -1,1.575 -1,3.5 0,1.925 0.45,3.5 1,3.5 0.55,0 1,-1.575 1,-3.5 0,-1.925 -0.45,-3.5 -1,-3.5 z m 287.44336,0.22266 c 0.1903,-0.19029 4.8476,1.91279 10.34961,4.67382 10.00365,5.02007 10.00345,5.01885 10.61524,16.31055 0.85535,15.78626 2.13321,48.79386 1.88867,48.79297 -0.11161,-4.1e-4 -1.30762,-0.50376 -2.6582,-1.11914 -1.93958,-0.88372 -3.1381,-0.77864 -5.70118,0.5 -3.96046,1.97593 -3.9375,1.97467 -3.9375,0.10351 0,-2.16039 -5.91299,-5.47631 -9.77148,-5.48047 -3.2702,-0.004 -3.26937,-0.004 -2.76563,-9.2539 0.27704,-5.0875 0.7573,-19.36061 1.06836,-31.7168 0.31109,-12.35618 0.722,-22.62026 0.91211,-22.81054 z m -309.94336,0.27734 c -0.55,0 -1.1421,1.4625 -1.31445,3.25 -0.23749,2.46316 0.0816,3.25 1.31445,3.25 1.23285,0 1.55,-0.78684 1.3125,-3.25 -0.17235,-1.7875 -0.7625,-3.25 -1.3125,-3.25 z m -31.46484,0.5 c -1.36851,0 -2.03516,0.65514 -2.03516,2 0,1.1 0.43419,2 0.96485,2 0.53065,0 1.44645,-0.9 2.03515,-2 0.90739,-1.69549 0.76047,-2 -0.96484,-2 z m 20.46484,0 c -0.93332,0 -1.5,0.94444 -1.5,2.5 0,1.55556 0.56668,2.5 1.5,2.5 0.93334,0 1.5,-0.94444 1.5,-2.5 0,-1.55556 -0.56666,-2.5 -1.5,-2.5 z m -32,1 c -0.825,0 -1.5,0.675 -1.5,1.5 0,0.825 0.675,1.5 1.5,1.5 0.825,0 1.5,-0.675 1.5,-1.5 0,-0.825 -0.675,-1.5 -1.5,-1.5 z m 145.01954,12 c 4.45843,0 5.44941,0.32935 5.97656,1.99023 0.34753,1.09508 0.41089,2.34981 0.14062,2.78711 -0.27027,0.43731 -0.0619,7.26904 0.46289,15.18164 0.5248,7.91259 0.58311,14.75674 0.12891,15.21094 -0.4542,0.4542 -2.55607,-0.9446 -4.66992,-3.10937 -2.11384,-2.16477 -5.17152,-4.48577 -6.79492,-5.15821 -2.95164,-1.2226 -2.95099,-1.22254 -2.31641,-10.3125 0.34902,-4.99947 0.88091,-10.77734 1.18164,-12.83984 0.54682,-3.75 0.54592,-3.75 5.89063,-3.75 z m 234.12304,0.0684 c 0.62857,-0.70257 7.40981,6.2061 8.91992,9.08789 1.13136,2.15942 1.27148,7.16398 0.75391,26.74023 -0.45343,17.14663 -0.95013,23.84247 -1.72656,23.24805 -0.59977,-0.4592 -1.84997,-1.10394 -2.77735,-1.43359 -0.9656,-0.34323 -2.81641,0.29025 -4.33203,1.48242 -2.64658,2.08182 -2.64711,2.08106 -1.93554,-28.30664 0.39137,-16.71323 0.88524,-30.58093 1.09765,-30.81836 z m -141.25,3.93164 c 5.607,0 5.6068,0 5.61133,4.75 0.003,2.6125 0.29355,9.75986 0.64648,15.88476 0.61474,10.66769 0.55388,11.16537 -1.42968,11.79493 -1.13887,0.36146 -3.67991,1.74942 -5.64649,3.08398 -3.57561,2.42648 -3.57422,2.42519 -3.57422,-14.96289 0,-9.56344 -0.27358,-18.09877 -0.60742,-18.96875 -0.50903,-1.32648 0.29799,-1.58203 5,-1.58203 z m 67.15235,4.13672 c 0.18994,-0.19936 2.47535,0.36314 5.07812,1.25 2.60279,0.88686 5.77767,1.61328 7.05469,1.61328 2.30531,0 2.3225,0.0944 2.46094,13.25 0.13944,13.25 0.13885,13.24961 0.92382,4.39453 0.63232,-7.13304 1.22279,-9.32082 3.03516,-11.25 2.24253,-2.38707 5.33546,-3.04282 7.58984,-1.60937 2.89044,1.83789 4.96267,13.8411 3.82227,22.13281 -0.64891,4.71811 -0.89561,5.08203 -3.46875,5.08203 -1.52422,0 -3.91603,0.9 -5.31445,2 -3.19473,2.51298 -3.17146,2.51582 -4.57227,-0.5586 -1.68141,-3.69027 -9.21211,-6.80968 -14.51758,-6.01367 -4.13731,0.62075 -4.13757,0.61981 -3.28711,-14.65429 0.46774,-8.40077 1.00536,-15.43735 1.19532,-15.63672 z m -326.92188,8.28906 c 0.0795,-0.059 0.16759,-0.0542 0.26758,0.008 0.60937,0.37661 1.10937,1.41633 1.10937,2.3125 0,0.89618 4.07716,11.72638 9.06055,24.06641 8.88395,21.99873 19.93945,53.81513 19.93945,57.38281 0,1.65113 -1.15374,1.80469 -13.53125,1.80469 -9.94622,0 -13.63719,-0.33119 -13.92968,-1.25 -0.21886,-0.6875 -0.88122,-14.525 -1.47071,-30.75 -0.58948,-16.22499 -1.34397,-35.0703 -1.67773,-41.87695 -0.38339,-7.81861 -0.32416,-11.28428 0.23242,-11.69727 z m 381.66992,1.81055 c -0.97336,-0.59639 -1.23976,3.13145 -1.09179,12.51367 0.13905,8.79805 0.29446,10.27035 0.50195,4.75 0.16532,-4.4 0.52771,-8.99499 0.80664,-10.21094 0.50737,-2.21085 0.50755,-2.21175 4.04101,-0.12695 1.94343,1.14665 3.81503,1.80412 4.15821,1.46094 0.70349,-0.70348 0.8407,-0.59047 -3.20899,-2.64844 -1.64999,-0.8385 -3.44535,-2.526 -3.98828,-3.75 -0.4924,-1.11018 -0.8943,-1.78949 -1.21875,-1.98828 z m -366.21679,2.85156 c 1.88005,-0.12343 5.44404,0.075 12.17382,0.49609 18.22316,1.1404 42.7618,1.14949 74,0.0274 20.86416,-0.74952 24.76518,-0.67102 24.85547,0.5 0.0589,0.76401 0.0195,4.6491 -0.0879,8.63476 -0.18856,7.00137 -0.0168,7.57684 5.07227,17 7.88281,14.59614 14.1018,27.47939 20.45312,42.375 3.13723,7.35773 7.67322,17.76882 10.08008,23.13477 2.40688,5.36595 4.37695,10.65344 4.37695,11.75 0,1.90242 0.68065,1.99414 14.89258,1.99414 14.80633,0 14.89492,-0.0132 14.80274,-2.25 -0.051,-1.2375 0.27253,-3.3265 0.71875,-4.64258 0.81132,-2.39288 0.80999,-2.39325 -10.55274,-1.69336 l -11.36133,0.69922 0.35352,-36.80078 c 0.3827,-39.72047 0.51542,-40.72283 6.05469,-45.73242 2.99066,-2.7047 11.8936,-3.31071 17.45312,-1.1875 4.77919,1.82518 13.49671,9.91665 14.0918,13.07812 0.47284,2.51204 2.58826,54.71055 2.56445,63.2793 -0.0168,5.99533 -0.11945,6.25 -2.51758,6.25 -2.26582,0 -2.5,0.38974 -2.5,4.1582 0,4.15796 -1e-5,4.15666 19.82813,3.49414 61.03786,-2.03943 139.25623,-8.79838 169.13672,-14.61523 9.753,-1.89863 11.48972,-1.64151 10.86523,1.60156 -0.299,1.55237 -2.53042,2.20851 -13.84375,4.08008 -44.3704,7.34025 -96.15845,11.76009 -166.98633,14.25 -15.675,0.55105 -50.12632,1.27679 -76.55859,1.61328 l -48.05859,0.61328 -4.82813,-13.49023 c -6.67123,-18.64162 -4.69027,-17.70508 -37.4668,-17.70508 -25.13859,0 -25.13803,-0.001 -26.11328,-2.56641 -0.53638,-1.4108 -0.97461,-2.80649 -0.97461,-3.10156 0,-0.29507 3.92341,-0.37695 8.71875,-0.18359 8.45419,0.34089 8.75636,0.27569 9.98438,-2.14844 1.55291,-3.06549 1.70292,-21.81448 0.27344,-34.29102 -1.95653,-17.07671 -5.565,-22.87695 -14.23438,-22.87695 -9.08864,0 -13.6099,6.47497 -14.50195,20.77344 -0.29182,4.67759 -0.85279,8.14228 -1.24805,7.69922 -0.89893,-1.00766 -10.99219,-40.2939 -10.99219,-42.78516 0,-0.86295 0.19612,-1.30821 2.07618,-1.43164 z m -58.07618,2.68164 c -8.35181,0 -15.53301,5.691 -19.05468,15.10352 -2.9535,7.89392 -4.12905,24.04814 -2.98633,41.04296 0.52253,7.77105 1.22247,14.56793 1.55469,15.10547 0.36351,0.58817 9.29767,0.97852 22.4375,0.97852 18.2738,0 21.92696,-0.24014 22.39843,-1.46875 0.30982,-0.80739 0.11966,-1.7415 -0.42187,-2.07617 -0.54152,-0.33469 -10.14797,-0.58127 -21.34766,-0.54688 -20.36306,0.0625 -20.36246,0.0642 -20.91797,-3.17187 -3.13822,-18.28097 -3.23447,-36.46645 -0.24414,-46.28125 1.92909,-6.33167 7.49945,-12.94378 12.21485,-14.5 4.84956,-1.6005 11.01629,-0.62962 14.06445,2.21289 5.56596,5.19043 9.77713,18.21229 10.99414,33.99414 0.3353,4.34807 0.99195,8.14104 1.45898,8.42969 0.46703,0.28863 0.83537,-3.43825 0.81836,-8.28321 -0.0966,-27.57216 -6.80375,-40.53906 -20.96875,-40.53906 z m -56.15625,1.75391 c -4.31125,-0.0619 -8.84083,1.70102 -12.88476,5.29882 -6.16116,5.48148 -6.95412,9.68047 -7.66992,40.58594 -0.60007,25.9087 -0.60088,25.9087 5.70117,25.25 3.46613,-0.3623 11.86193,-0.6582 18.65625,-0.6582 11.8477,0 12.35351,-0.0858 12.35351,-2.08203 0,-2.03457 -0.36564,-2.07486 -16.25,-1.80274 l -16.25,0.27735 -0.5,-20.94532 c -0.53726,-22.50778 0.31461,-30.71305 3.65235,-35.18359 4.35388,-5.83155 11.04775,-8.65366 16.88476,-7.11719 7.1455,1.88091 11.75619,11.34327 13.57422,27.85352 0.57535,5.225 1.40402,11.975 1.83985,15 0.73792,5.12161 0.79933,4.84642 0.90039,-4 0.20391,-17.84679 -2.57593,-29.98053 -8.43555,-36.82617 -3.16823,-3.70138 -7.26102,-5.58849 -11.57227,-5.65039 z m 247.24805,4.53515 c 8.05643,0.0948 16.20962,4.75158 20.06641,12.27344 1.67754,3.27168 2.18172,7.84656 3.44336,31.25391 0.81287,15.0812 1.34722,31.05412 1.1875,35.49609 -0.29039,8.07632 -0.28968,8.07536 -3.20313,1.24609 -6.22628,-14.59484 -25.59455,-52.28864 -31.43945,-61.1875 -3.38107,-5.14769 -6.14649,-9.90723 -6.14649,-10.57617 0,-1.81972 4.04379,-5.26826 8.23047,-7.01758 2.50107,-1.04501 5.17588,-1.51989 7.86133,-1.48828 z m -300.05859,3.1836 c -5.11736,0.37882 -10.10581,4.72555 -13.13086,12.58398 -1.84708,4.7983 -2.3066,8.75953 -2.97852,25.67383 -0.43699,11 -0.82384,22.5875 -0.85937,25.75 -0.0545,4.84163 0.212,5.7459 1.68554,5.72851 0.9625,-0.0113 8.5,-0.67935 16.75,-1.48632 8.25,-0.80698 15.1125,-1.47329 15.25,-1.48047 0.1375,-0.007 0.25,-0.68672 0.25,-1.51172 0,-1.67645 -3.27133,-1.78198 -20.25195,-0.65039 -9.75068,0.64979 -9.75068,0.65053 -9.75,-21.41797 8.1e-4,-25.8284 0.9054,-30.57142 6.98828,-36.6543 6.78536,-6.78535 12.7537,-4.43527 16.9043,6.65821 1.91588,5.12061 3.31405,13.25798 4.99609,29.06445 0.81622,7.67006 0.85668,7.40198 0.97071,-6.5 0.13385,-16.31923 -1.10049,-22.85553 -5.51563,-29.22656 -3.27049,-4.71933 -7.32842,-6.82589 -11.30859,-6.53125 z m 541.33007,0.83984 c -0.19954,-0.22916 -0.36328,3.93334 -0.36328,9.25 0,5.33024 0.41995,9.66797 0.93555,9.66797 0.85599,0 0.31452,-17.89956 -0.57227,-18.91797 z m -294.33203,1.94922 c -2.34358,0.003 -4.93355,0.6482 -7.76953,1.93555 -4.6553,2.11321 -9.40385,8.50618 -11.52734,15.51757 -1.32076,4.36091 -1.73663,37.73534 -0.50781,40.76563 0.63125,1.55668 2.35763,1.75 15.61718,1.75 17.82897,0 20.99512,-0.49407 21.70313,-3.37891 0.87091,-3.54858 -1.29808,-31.65318 -3.0293,-39.2539 -2.63614,-11.5736 -7.45559,-17.34544 -14.48633,-17.33594 z m 138.61914,1.96289 c 2.59867,-0.2258 5.10905,0.41034 7.3086,1.97656 3.96861,2.8259 7.18646,11.03245 7.63281,19.46875 1.54384,29.1794 2.46489,56.65747 1.92969,57.52344 -0.40058,0.64816 -6.82139,1.03711 -17.12305,1.03711 h -16.48242 l 0.6543,-34.25 c 0.65312,-34.25 0.65385,-34.25 3.38476,-37.75 3.78966,-4.85694 8.36418,-7.62952 12.69531,-8.00586 z m -425.20703,0.14844 c -0.68701,-0.002 -1.41788,0.0445 -2.20117,0.13281 -3.73052,0.42049 -5.2763,1.20135 -7.38281,3.72461 -4.42482,5.30022 -5.03031,9.56979 -5.57813,39.39648 -0.51237,27.89674 -0.51163,27.89669 1.85352,27.24414 1.30084,-0.3589 6.64023,-1.32992 11.86523,-2.1582 13.17158,-2.088 14,-2.32525 14,-4.00195 0,-0.81452 -0.5625,-1.47855 -1.25,-1.47657 -1.81791,0.005 -17.76088,2.67025 -21.07812,3.52344 -2.827,0.72709 -2.827,0.72734 -2.5,-24.65039 0.32701,-25.37773 0.32655,-25.37799 3.1582,-31.14453 5.83938,-11.89172 14.54078,-11.41967 17.99805,0.97656 0.88812,3.18444 2.11373,11.18756 2.72265,17.78516 0.60894,6.5976 1.34972,12.22262 1.64649,12.5 0.29677,0.2774 0.34582,-5.79414 0.10937,-13.49414 -0.38131,-12.41752 -0.72413,-14.6411 -3.02539,-19.66602 -2.90479,-6.34271 -5.52888,-8.67961 -10.33789,-8.6914 z m 230.13282,0.79882 c 2.28654,0.0234 4.66592,1.10148 6.92187,3.35743 2.82471,2.8247 3.42159,4.29795 4.15039,10.25 0.46811,3.82311 0.74044,13.9015 0.60547,22.39648 -0.13497,8.49497 -0.58497,15.69496 -1,16 -0.41502,0.30493 -4.37219,0.42549 -8.79492,0.26758 -8.04133,-0.28707 -8.0429,-0.28707 -11.26563,-9.5 -3.53755,-10.11293 -4.17239,-18.93585 -2.08398,-28.91406 1.85336,-8.85521 6.43639,-13.90897 11.4668,-13.85743 z m 55.96679,1.14063 c 1.16231,-0.008 2.29254,0.16645 3.35742,0.5332 5.53646,1.90678 8.5251,13.87292 9.65039,38.63477 l 0.7168,15.75 -13.88476,-0.11719 c -7.63626,-0.0638 -14.67032,-0.32074 -15.63282,-0.57226 -1.98531,-0.51882 -1.9485,-0.12261 -1.76757,-18.31055 0.18272,-18.36794 1.99255,-26.28027 7.13476,-31.20313 3.16408,-3.02908 6.93887,-4.69178 10.42578,-4.71484 z m 176.01758,0.31055 c 1.91405,0.0425 3.77178,0.49651 5.43945,1.41211 7.42659,4.07741 8.322,8.87949 9.59571,51.44531 l 0.71093,23.75 -14.90429,0.0137 c -8.19685,0.007 -15.86485,0.2723 -17.04102,0.58789 -2.1385,0.57382 -2.13939,0.57381 -1.63086,-31.76367 0.47526,-30.22178 0.64262,-32.58241 2.56446,-36.07422 3.26017,-5.92338 9.52349,-9.49866 15.26562,-9.37109 z m 33.6582,0.86914 c 4.34114,0.38239 8.25342,2.81892 10.3711,6.91406 1.34044,2.59213 1.79747,8.71675 2.54687,34.18359 0.50211,17.0635 1.12746,31.23685 1.38867,31.49805 0.5722,0.57222 1.0899,-40.79603 0.66407,-53.04883 -0.22047,-6.34396 0.11319,-9.49398 1.23437,-11.66211 3.90881,-7.55879 13.16253,-9.71441 18.55469,-4.32226 3.48925,3.48926 3.72964,5.73391 4.54883,42.30273 0.68038,30.37199 3.6256,27.28119 -27.02735,28.375 -8.25,0.2944 -17.99764,0.77518 -21.66015,1.06836 -3.6625,0.29321 -6.84524,0.17135 -7.07227,-0.26953 -0.22704,-0.44087 -0.0812,-8.00078 0.32227,-16.80078 0.40342,-8.8 0.77171,-23.66223 0.82031,-33.02734 0.0996,-19.18784 0.36588,-20.04383 7.32812,-23.59571 2.6165,-1.33483 5.37578,-1.84467 7.98047,-1.61523 z m -530.41992,1.0664 c -0.75767,0.0785 -1.49436,0.52291 -2.66406,1.37696 -1.44937,1.05825 -3.53477,3.69487 -4.63477,5.85937 -1.84127,3.62314 -2.02484,6.26495 -2.30664,33.28321 -0.30612,29.34736 -0.30612,29.34682 4,28.69335 11.37919,-1.72684 14.80664,-2.70843 14.80664,-4.24023 0,-1.27172 -0.77849,-1.43272 -4.25,-0.87695 -13.88744,2.22331 -12.53048,5.02551 -12.38281,-25.55469 0.12638,-26.18098 0.22833,-27.54866 2.33985,-31.49609 2.45177,-4.58352 4.53499,-5.84833 7.24414,-4.39844 2.92184,1.56372 4.77275,7.77984 6.57812,22.08984 0.93225,7.38918 1.86912,13.62241 2.08203,13.85156 0.72794,0.78356 0.35501,-11.40671 -0.63867,-20.84179 -1.09887,-10.43409 -3.01357,-14.82003 -7.38867,-16.9336 -1.24918,-0.60347 -2.0275,-0.89098 -2.78516,-0.8125 z m 579.56445,2.80469 c 0.80964,0.0258 1.72655,0.49323 3.42579,1.42383 7.51453,4.11539 7.53478,4.20139 8.37109,35.57812 0.41206,15.4592 0.92972,28.28926 1.15234,28.51172 0.2225,0.22247 0.62711,-11.5085 0.89844,-26.07031 0.54437,-29.22831 0.87198,-30.77723 6.79492,-32.07812 3.56916,-0.78393 7.56959,1.35378 8.99024,4.80468 0.49746,1.20841 1.25494,13.44727 1.68554,27.19727 0.73107,23.34416 0.82654,24.23831 1.41993,13.5 0.34953,-6.325 0.69343,-17.4625 0.76562,-24.75 0.11727,-11.81471 0.34944,-13.46665 2.13281,-15.25 2.46792,-2.46793 3.17965,-2.48489 6.07227,-0.14258 2.2071,1.78719 2.325,2.65089 3.10547,22.75 1.13862,29.32342 1.25106,29.57759 2.17773,4.90625 0.45414,-12.0922 1.25026,-22.7797 1.76953,-23.75 1.60441,-2.99786 4.81719,-2.14673 6.42578,1.70313 1.95432,4.67763 2.1295,43.36524 0.19922,44.01953 -0.6875,0.23302 -3.27502,0.63585 -5.75,0.89648 -2.47503,0.26065 -13.05002,1.37812 -23.5,2.48242 -39.24051,4.14672 -34.91455,7.57934 -34.1914,-27.125 0.34911,-16.75358 1.07618,-31.62584 1.61718,-33.04883 0.54102,-1.42298 2.1829,-3.37372 3.64844,-4.33398 1.2758,-0.83594 1.97943,-1.25037 2.78906,-1.22461 z m -611.45312,6.02735 c -2.66101,0.21186 -4.95003,2.28861 -6.85352,6.2207 -3.18386,6.57696 -4.01444,14.46681 -4.0371,38.34375 -0.0201,21.22525 -0.0194,21.22444 2.35351,20.32226 1.30511,-0.4962 5.5801,-1.21726 9.5,-1.60351 5.38988,-0.53111 7.12695,-1.07141 7.12695,-2.2168 0,-1.27992 -1.21918,-1.41346 -7.86328,-0.85937 -7.86212,0.65568 -7.86082,0.65643 -8.48633,-8.60547 -0.34404,-5.09405 -0.25767,-16.23672 0.19336,-24.76172 0.67946,-12.8427 1.18863,-16.2166 2.97071,-19.67774 5.20573,-10.11053 11.95613,-5.05258 14.15625,10.60743 0.92301,6.56969 0.92259,6.56892 0.63281,-1.06641 -0.33836,-8.91609 -2.85552,-14.85358 -6.9082,-16.29297 -0.96888,-0.34411 -1.89815,-0.48078 -2.78516,-0.41015 z m -28.24414,8.40234 c -2.33861,0.21361 -5.63003,3.64293 -6.62695,7.23242 -0.57489,2.06992 -1.03022,14.46036 -1.03321,28.08008 -0.006,24.375 -0.006,24.37427 3.24414,23.67187 1.7875,-0.38632 4.9375,-0.951 7,-1.25586 2.41539,-0.35701 3.75,-1.08711 3.75,-2.05078 0,-1.2116 -0.80826,-1.35388 -4.25,-0.74414 -9.13632,1.6186 -8.25157,4.03618 -8.24023,-22.49609 0.009,-20.06671 0.26085,-24.06028 1.73047,-27.32813 3.4917,-7.76417 7.94754,-2.06548 9.64062,12.32813 0.99983,8.5 0.9997,8.4996 0.71094,-1.00586 -0.29498,-9.71091 -1.96024,-15.15489 -4.99219,-16.31836 -0.28576,-0.10966 -0.5995,-0.1438 -0.93359,-0.11328 z m 694.28125,56.69922 c 1.74398,0.0242 1.80924,3.22935 2.33398,28.878904 0.59399,29.036038 0.45113,30.78287 -2.53125,30.84375 -0.4125,0.008 -0.77641,-8.871875 -0.80664,-19.734375 -0.0638,-22.293819 -0.88681,-26.749999 -4.93945,-26.749999 -4.2144,0 -5.29219,5.21807 -5.68164,27.499999 -0.18746,10.725 -0.33581,20.675501 -0.33203,22.113281 0.008,2.16061 -0.73315,2.89796 -4.27344,4.25 -2.35589,0.89972 -4.60587,1.636719 -5,1.636719 -0.39416,0 -0.7168,-5.577803 -0.7168,-12.394531 0,-14.17043 -1.52038,-30.979764 -3.29296,-36.406248 -1.71659,-5.25498 -4.69657,-5.45747 -7.23438,-0.49219 -1.73828,3.401 -1.97354,6.444223 -2.2793,29.470703 -0.34111,25.67799 -0.3428,25.67799 -3.41797,26.75 -1.69138,0.58961 -3.57034,1.071143 -4.17578,1.070313 -0.76699,-10e-4 -1.10255,-6.595892 -1.10742,-21.75 -0.006,-17.71886 -0.32608,-22.781046 -1.72656,-27.322266 -2.03911,-6.61202 -4.67605,-9.41634 -8.05469,-8.56836 -4.73767,1.18909 -5.18619,3.994274 -5.51758,34.439454 -0.308,28.296578 -0.30871,28.29658 -2.8164,29.25 -1.37923,0.52439 -3.37916,0.953125 -4.44336,0.953125 -1.84022,0 -1.93542,-0.86856 -1.94336,-17.75 -0.009,-19.44074 -1.25835,-33.562252 -3.43164,-38.763672 -1.53291,-3.66876 -5.93803,-6.486327 -10.14063,-6.486327 -3.58212,0 -8.73406,5.544391 -10.80859,11.632811 -1.32119,3.87748 -1.60938,9.51327 -1.60938,31.486328 0,14.71957 -0.3375,26.954225 -0.75,27.189453 -0.4125,0.23523 -2.40899,0.726397 -4.43554,1.091797 -3.68454,0.66439 -3.68518,0.665721 -3.72071,-17.630859 -0.0598,-30.85237 -3.24039,-45.965383 -10.39453,-49.376953 -4.13995,-1.9742 -7.97153,-0.639048 -10.60742,3.695312 -3.69681,6.07901 -4.39981,14.286369 -3.62305,42.330079 0.72721,26.254998 0.72666,26.255148 -6.31445,27.417968 -10.96026,1.81004 -10.1227,2.613493 -9.48047,-9.085937 0.69533,-12.667 -1.09537,-39.307458 -3.29101,-48.960938 -1.87748,-8.25464 -5.4155,-12.789062 -9.97852,-12.789062 -3.56672,0 -10.8534,7.456308 -12.41602,12.705078 -2.09776,7.04639 -3.21403,29.108895 -2.33398,46.140625 0.46455,8.99012 0.6207,16.476729 0.3457,16.636719 -0.275,0.15998 -3.71054,0.60746 -7.63281,0.99414 -7.13149,0.70305 -7.13172,0.702871 -7.66797,-25.636719 -0.66683,-32.752268 -2.29748,-41.407096 -8.98633,-47.654296 -5.54892,-5.18253 -12.36674,-1.87453 -16.86328,8.18164 -1.98444,4.43802 -2.33851,7.094633 -2.61328,19.632813 -0.17478,7.975 0.0644,21.925 0.53125,31 0.4667,9.075 0.68753,16.710127 0.49024,16.966797 -0.19726,0.25667 -4.7236,0.642332 -10.0586,0.857422 -9.70002,0.391088 -9.70017,0.390961 -9.37695,-14.966797 0.87145,-41.40776 -7.16405,-64.861509 -22.2207,-64.855469 -8.83472,0.003 -16.18175,7.305414 -19.20703,19.089844 -1.46961,5.72455 -1.52245,8.913863 -0.49024,29.908203 0.63547,12.925 1.39343,25.4125 1.68555,27.75 1.10994,8.8812792 -1.65206,3.6899 -7.45117,-14 -6.29458,-19.20125 -20.13868,-63.941213 -20.13868,-65.082031 0,-0.36746 8.8875,-0.675654 19.75,-0.683594 98.662,-0.0768 213.93966,-10.191254 280.33985,-24.595704 0.32388,-0.0703 0.60828,-0.13041 0.85742,-0.12695 z m -204.67773,4.19726 c -0.20009,0.0935 -0.45242,0.27783 -0.76954,0.54102 -0.825,0.68469 -1.5,1.86344 -1.5,2.62109 0,0.75766 0.675,1.37891 1.5,1.37891 0.95201,0 1.5,-0.95866 1.5,-2.62305 0,-1.66325 -0.13023,-2.19834 -0.73046,-1.91797 z m 198.64257,11.54102 c 1.5829,0 2.08789,6.29905 2.08789,26.099608 0,19.84932 2e-4,19.848186 -2.87304,21.333984 -1.58026,0.81717 -3.04288,1.317729 -3.25,1.111329 -0.20727,-0.2064 -0.0676,-9.373304 0.31054,-20.371094 0.65268,-18.98276 1.86678,-28.173827 3.72461,-28.173827 z m -23.09961,3.27734 c 0.31424,-0.0395 0.59665,0.70011 1.16211,2.17774 0.62203,1.625374 1.34589,9.050367 1.60743,16.499997 0.26152,7.44961 0.63102,17.963294 0.82226,23.365234 0.32777,9.26031 0.22559,9.867878 -1.7793,10.617188 -7.21338,2.69595 -6.62657,3.635976 -6.61523,-10.621094 0.0132,-16.35114 1.66955,-35.330739 3.45117,-39.544925 0.69153,-1.63562 1.03731,-2.45464 1.35156,-2.49414 z m -23.625,1.96289 c 1.34473,0.0786 3.01244,2.69588 4.3086,7.06055 1.14441,3.85362 1.5039,10.470676 1.5039,27.722656 0,22.66021 -0.001,22.659052 -4.10546,23.888672 -2.25725,0.67629 -4.78354,1.491397 -5.61524,1.810547 -1.33407,0.51193 -1.43454,-2.117826 -0.85352,-22.322266 0.64361,-22.380298 1.79839,-34.527843 3.55079,-37.363279 0.35048,-0.56709 0.76268,-0.82306 1.21093,-0.79688 z m -27.20312,4.759769 c 1.4873,0 2.6054,1.11514 3.75976,3.75 1.34841,3.07777 1.71667,8.504465 2.05274,30.277343 0.40948,26.52844 0.40954,26.52992 -8.24805,28.56836 -4.76168,1.12115 -8.81957,1.775428 -9.01758,1.455078 -0.67777,-1.09666 1.41007,-50.545179 2.28321,-54.074219 1.71704,-6.93999 4.5081,-9.976562 9.16992,-9.976562 z m -615.3418,1 c -2.21592,0 -5.6678,4.393027 -5.62109,7.154297 0.0125,0.74014 0.72799,-0.08439 1.58984,-1.832032 4.32192,-8.76367 8.77188,-3.327376 10.12695,12.371094 0.69672,8.0713 0.78851,8.347501 1.08399,3.306641 0.73205,-12.48946 -2.17782,-21 -7.17969,-21 z m 30.125,1.892578 c -2.82614,0.13397 -5.81397,2.274361 -7.72461,6.019531 -3.04619,5.97104 -4.02721,14.889933 -4.03515,36.644531 -0.008,20.05775 -0.008,20.058555 7.24218,21.640625 9.46266,2.06498 11.75,2.136341 11.75,0.369141 0,-1.71528 -1.56456,-2.215682 -9.60546,-3.076172 -6.10501,-0.65332 -6.10428,-0.653627 -6.69336,-10.322265 -0.74289,-12.1934 0.64481,-38.702586 2.23437,-42.666016 2.73145,-6.81063 7.3633,-8.480286 10.93359,-3.941406 1.91358,2.43273 3.62011,8.756983 4.4375,16.439453 0.25002,2.34985 0.42576,1.661963 0.53321,-2.091797 0.18114,-6.32825 -1.85952,-14.168236 -4.42578,-17.003906 -1.31267,-1.45049 -2.95081,-2.092109 -4.64649,-2.011719 z m 548.05274,0.107422 c 5.65063,0 7.28793,8.204569 7.90039,39.605469 0.50918,26.105898 0.50917,26.105594 -4.7461,26.802734 -2.8904,0.38342 -6.54235,0.954961 -8.11523,1.269531 -2.8599,0.57196 -2.86107,0.572264 -2.83008,-21.802734 0.017,-12.30625 0.4583,-25.66636 0.98047,-29.6875 1.19139,-9.17481 4.14236,-16.1875 6.81055,-16.1875 z m -270.10743,2.414062 c -11.61736,-0.31642 -19.03061,9.045132 -20.71484,26.357422 -1.47634,15.17538 -1.28787,61.9520101 0.25195,62.5312501 0.6875,0.25861 10.5875,0.5110369 22,0.5605469 17.27012,0.0749 20.75,-0.1480019 20.75,-1.3261719 0,-1.9909198 -5.86102,-2.68364 -24.29882,-2.875 -15.64251,-0.16233 -15.64156,-0.1621097 -16.38086,-4.6621091 -0.40662,-2.475 -0.75689,-16.875 -0.7793,-32 -0.0469,-31.64773 0.37913,-34.183855 6.8418,-40.646485 6.95072,-6.95073 16.04812,-7.160524 22.68164,-0.521484 2.97151,2.97399 3.98198,5.066799 5.3457,11.068359 1.79887,7.91658 3.95632,27.09079 5.24414,46.59961 0.79215,12 0.79189,12 1.51172,-3 0.80426,-16.75947 -0.43068,-37.658118 -2.67188,-45.205078 -2.97362,-10.01327 -8.73515,-15.539705 -17.40234,-16.689453 -0.81141,-0.10764 -1.60441,-0.170307 -2.37891,-0.191407 z m -171.85742,0.585938 c -5.17743,0 -9.37621,3.154509 -12.57617,9.449219 -2.70932,5.329538 -3.24756,11.239311 -4.75781,52.175781 -0.63177,17.12471 -0.63111,17.124292 11.17383,18.326172 6.49272,0.66103 12.25468,1.3574046 12.80468,1.5468746 0.55,0.18945 2.6875,0.378485 4.75,0.421875 2.571,0.0541 3.75,-0.3564938 3.75,-1.3085936 0,-1.67581 -3.23313,-2.294091 -16.63672,-3.181641 -5.57499,-0.36916 -10.68639,-1.011804 -11.35937,-1.427734 -0.91279,-0.56413 -1.26076,-7.962868 -1.36523,-29.128906 -0.13768,-27.89911 -0.0991,-28.461475 2.24414,-33.646485 2.72307,-6.02539 7.1348,-10.226562 10.74023,-10.226562 5.82251,0 10.1988,10.17612 13.54688,31.5 2.90474,18.50025 3.60725,20.67294 3.71093,11.5 0.21104,-18.67388 -3.52164,-36.242478 -9.03125,-42.517578 -2.51968,-2.86976 -3.75048,-3.482422 -6.99414,-3.482422 z m -77.86328,0.05469 c -1.12338,-0.0681 -2.3049,0.126613 -3.52734,0.595703 -2.22929,0.85546 -6.46203,10.02843 -6.39063,13.84961 0.0425,2.27579 0.40473,1.67229 1.5,-2.5 1.81448,-6.91207 6.35839,-11.64288 9.54492,-9.9375 1.12759,0.60347 2.68164,2.61177 3.45508,4.46289 1.53209,3.6668 4.35514,20.896417 4.54102,27.716797 0.0638,2.34109 0.34394,3.357813 0.62304,2.257813 0.86748,-3.41895 -0.43545,-25.83896 -1.68554,-29 -1.84488,-4.66505 -4.69048,-7.240893 -8.06055,-7.445313 z m 480.24609,0.16211 c 0.37523,-0.0779 0.72563,-0.06115 1.04297,0.06055 4.07672,1.56439 6.64664,26.012892 5.9375,56.488282 -0.27044,11.62212 -0.35716,12.052448 -2.58398,12.611328 -1.26792,0.31823 -5.5301,0.877912 -9.4707,1.24414 -7.16473,0.66589 -7.16407,0.665924 -7.16407,-17.753906 0,-20.462778 1.09568,-31.732667 4.00391,-41.148437 1.79178,-5.80108 5.60775,-10.956743 8.23437,-11.501953 z m -172.94921,0.07227 c -0.99249,0.009 -2.01161,0.103583 -3.05469,0.289063 -8.14611,1.44861 -13.19828,6.833293 -17.44922,18.595703 -2.20113,6.09063 -2.27938,7.412313 -2.12695,35.470703 0.11117,20.46343 0.51576,29.8101425 1.35742,31.3828125 1.14636,2.14199 1.57436,2.2107531 9.83984,1.5644531 4.75362,-0.37169 14.26953,-1.0729537 21.14453,-1.5585937 6.875,-0.48565 12.6683,-0.9174844 12.875,-0.9589844 0.20671,-0.0415 0.12469,-11.8867185 -0.18164,-26.3242185 -0.59638,-28.10831 -1.73233,-36.823431 -6.01172,-46.087891 -3.78055,-8.18457 -9.44519,-12.432697 -16.39257,-12.373047 z m -274.52149,0.806641 c -1.78365,-0.0751 -3.20153,0.767547 -4.9668,2.654297 -4.49629,4.80575 -6.78755,11.27967 -8.22851,23.25 -0.75961,6.31024 -0.9565,43.570998 -0.23633,44.736328 0.50299,0.81386 11.09015,2.366431 24.66406,3.619141 1.925,0.177648 3.8375,0.396396 4.25,0.484374 0.41249,0.088 0.75,-0.255428 0.75,-0.761718 0,-1.14806 -2.69642,-1.720031 -16.30078,-3.462891 -5.9404,-0.76103 -11.09128,-1.673314 -11.44531,-2.027344 -0.35399,-0.354 -0.66865,-11.092974 -0.69922,-23.865234 -0.0623,-26.02771 1.00018,-32.301934 6.62109,-39.121094 5.80158,-7.03832 10.42025,-3.827513 14.88868,10.347657 1.65578,5.252638 3.84541,15.175781 4.86523,22.050781 2.13306,14.38033 2.41445,13.46813 1.08203,-3.5 -1.31785,-16.78242 -6.18226,-30.890841 -11.48437,-33.306641 -1.48817,-0.67806 -2.68959,-1.052566 -3.75977,-1.097656 z m 403.45703,0.09961 c 0.63264,0.13036 1.23399,0.799114 2.3711,2.121094 4.8531,5.64206 6.32771,16.609186 6.37109,47.365234 0.0327,23.18138 0.0321,23.18139 -9.56641,23.5 -5.27918,0.17526 -9.67921,0.0934 -9.77929,-0.18164 -0.10001,-0.275 -0.13316,-12.875 -0.0723,-28 0.087,-21.52191 0.44316,-28.597695 1.63672,-32.546875 2.06022,-6.81675 3.41251,-9.145367 6.47852,-11.154297 1.26286,-0.82746 1.92789,-1.233866 2.56054,-1.103516 z m -304.96484,0.306641 c -2.84631,0.24022 -5.79736,1.659507 -8.60156,4.310547 -7.34218,6.94116 -8.71477,14.009014 -9.39453,48.382812 -0.63141,31.9281896 -2.04987,28.5508509 12.23632,29.1191409 17.32316,0.68909 25,0.2855167 25,-1.3144531 0,-1.25088 -2.68535,-1.5830398 -16.16992,-1.9999998 -8.89358,-0.275 -16.41172,-0.74185 -16.70508,-1.03711 -1.21926,-1.2272 -2.827,-33.33567 -2.22656,-44.46289 0.78511,-14.54879 2.56297,-20.463363 7.69531,-25.595703 7.03075,-7.03075 12.09224,-6.32274 16.28321,2.27539 4.39276,9.0121 9.62304,34.476566 9.62304,46.853516 0,2.18109 0.45,3.966797 1,3.966797 1.31062,0 1.28409,-15.86605 -0.0449,-27.46875 -1.18461,-10.34088 -3.23732,-18.095083 -6.52148,-24.626953 -2.97941,-5.92577 -7.42997,-8.802704 -12.17383,-8.402344 z m 57.95703,1.498047 c -15.14629,0 -20.27395,14.610827 -20.56641,58.603515 -0.10992,16.53429 0.15586,21.4598804 1.22657,22.7500004 1.54359,1.85987 7.78011,2.0884412 26.87304,0.9882812 7.70324,-0.44388 11.25,-1.02454 11.25,-1.84375 0,-1.27918 -13.10814,-2.4843206 -27.13476,-2.4941406 -7.0521,-0.005 -7.68249,-0.1752366 -8.29102,-2.253906 -1.42026,-4.85147 -1.88706,-42.515127 -0.625,-50.435547 2.4276,-15.23515 7.37438,-22.314453 15.5918,-22.314453 11.21373,0 16.35567,11.93474 19.82031,46 1.37303,13.5 1.3738,13.500227 1.50586,-3.613281 0.15184,-19.67858 -0.68251,-25.440385 -4.94141,-34.146485 -3.76681,-7.7002 -8.39926,-11.240234 -14.70898,-11.240234 z m 191.29492,0 c 10.13981,0 14.17688,13.576831 15.19532,51.099609 0.33707,12.41992 0.20545,21.775902 -0.31055,22.013672 -0.71526,0.32957 -25.14423,-0.55858 -27.50781,-1 -1.2556,-0.23449 -2.0509,-46.475594 -0.91993,-53.490234 1.95386,-12.11846 6.68483,-18.623047 13.54297,-18.623047 z m -71.71875,1.138672 c 2.12764,-0.02 3.18718,0.752305 6.06641,3.353515 7.34724,6.63778 9.70704,19.190949 10.54492,56.105469 l 0.47852,21.0957031 -14.19141,0.6582031 c -7.80557,0.3616 -16.55391,0.9420457 -19.44141,1.2910157 -5.25,0.63452 -5.25,0.6353039 -5.25,-25.9160159 0,-29.673568 1.0551,-38.365289 5.70899,-46.980469 3.1626,-5.854548 6.91897,-8.460098 13.49414,-9.361328 1.0534,-0.14434 1.88063,-0.239413 2.58984,-0.246093 z M -794.5918,-66.0625 c -0.41046,-0.76433 -0.64754,5.024936 -0.55273,17.660156 0.19171,25.54775 -1.04812,22.829428 11.67187,25.548828 2.47499,0.52914 4.8375,1.011423 5.25,1.070313 1.92017,0.27418 0.47994,-2.910066 -1.5,-3.316406 -13.66305,-2.80403 -12.47091,-1.070714 -13.27539,-19.308594 -0.59874,-13.57359 -1.18329,-20.889967 -1.59375,-21.654297 z m -54.35547,1.712891 c -0.13835,0.45941 -0.27948,4.16798 -0.35156,9.78125 -0.17472,13.607918 -0.17383,13.608869 4.07617,14.630859 v -0.002 c 5.64021,1.3563 7.75,1.453709 7.75,0.355469 0,-0.49917 -2.21739,-1.475782 -4.92578,-2.169922 -5.43112,-1.39194 -4.8565,0.570823 -6.41406,-21.921875 -0.0428,-0.61875 -0.0886,-0.826958 -0.13477,-0.673828 z m -2.08789,31.021484 c -0.56494,0.26431 2.14651,1.976145 7.66797,4.609375 36.64678,17.47712 165.45297,34.0435964 298.39453,38.3789062 4.4,0.14354 14.1961,0.3521508 21.76954,0.4628908 13.15729,0.19226 13.94692,0.0883 17.75,-2.3125001 4.0832,-2.5776 5.13907,-4.4863281 2.48046,-4.4863281 -0.825,0 -1.5,0.5964218 -1.5,1.3261718 0,0.90312 -0.95028,1.188138 -2.96484,0.8925782 -1.63016,-0.23924 -2.86766,-0.9501152 -2.75,-1.578125 0.14867,-0.79347 -3.44553,-1.2150026 -11.78516,-1.3828126 -24.04961,-0.4838898 -120.0072,-4.3393776 -143.68554,-5.7734374 -56.21801,-3.40476 -98.4546,-8.5980928 -135.24805,-16.6269528 -13.82216,-3.0162 -37.00869,-9.291794 -45.47266,-12.308594 -2.79789,-0.99725 -4.31729,-1.359762 -4.65625,-1.201172 z" />
    </g>
  </g>
</svg>
