<?xml version="1.0" encoding="UTF-8" standalone="no"?>
<!-- Created with Inkscape (http://www.inkscape.org/) -->

<svg
   width="47.738525mm"
   height="71.311104mm"
   viewBox="0 0 47.738525 71.311104"
   version="1.1"
   id="svg43284"
   inkscape:version="1.1 (c68e22c387, 2021-05-23)"
   sodipodi:docname="eifel2.svg"
   xmlns:inkscape="http://www.inkscape.org/namespaces/inkscape"
   xmlns:sodipodi="http://sodipodi.sourceforge.net/DTD/sodipodi-0.dtd"
   xmlns="http://www.w3.org/2000/svg"
   xmlns:svg="http://www.w3.org/2000/svg">
  <sodipodi:namedview
     id="namedview43286"
     pagecolor="#ffffff"
     bordercolor="#666666"
     borderopacity="1.0"
     inkscape:pageshadow="2"
     inkscape:pageopacity="0.0"
     inkscape:pagecheckerboard="0"
     inkscape:document-units="mm"
     showgrid="false"
     inkscape:zoom="0.72070006"
     inkscape:cx="144.30414"
     inkscape:cy="176.91132"
     inkscape:window-width="1920"
     inkscape:window-height="1017"
     inkscape:window-x="-8"
     inkscape:window-y="-8"
     inkscape:window-maximized="1"
     inkscape:current-layer="layer1" />
  <defs
     id="defs43281" />
  <g
     inkscape:label="Capa 1"
     inkscape:groupmode="layer"
     id="layer1"
     transform="translate(-66.915391,-101.7708)">
    <g
       id="g43380"
       style="fill:#0000c9;fill-opacity:1;stroke:#0000c9;stroke-width:0.576792;stroke-miterlimit:4;stroke-dasharray:none;stroke-opacity:1">
      <path
         style="fill:#0000c9;fill-opacity:1;stroke:#0000c9;stroke-width:0.576792;stroke-miterlimit:4;stroke-dasharray:none;stroke-opacity:1"
         d="m 83.270282,170.51815 c 0,-0.1163 0.446484,-0.1672 0.992188,-0.11311 1.536026,0.15224 1.647938,0.28069 0.264583,0.30368 -0.691224,0.0115 -1.256771,-0.0743 -1.256771,-0.19057 z"
         id="path43394" />
      <path
         style="fill:#0000c9;fill-opacity:1;stroke:#0000c9;stroke-width:0.576792;stroke-miterlimit:4;stroke-dasharray:none;stroke-opacity:1"
         d="m 90.489707,111.33065 c 0.002,-0.7276 0.05337,-0.99386 0.114185,-0.59167 0.06082,0.40218 0.05919,0.99749 -0.0036,1.32291 -0.0628,0.32542 -0.112561,-0.004 -0.110574,-0.73124 z"
         id="path43392" />
      <path
         style="fill:#0000c9;fill-opacity:1;stroke:#0000c9;stroke-width:0.576792;stroke-miterlimit:4;stroke-dasharray:none;stroke-opacity:1"
         d="m 112.83747,170.54288 c 0.32742,-0.0631 0.8632,-0.0631 1.19062,0 0.32743,0.0631 0.0595,0.11467 -0.59531,0.11467 -0.65484,0 -0.92273,-0.0516 -0.59531,-0.11467 z M 92.951345,109.90171 c -0.297923,-0.3292 -0.357779,-0.56306 -0.173299,-0.67707 0.155001,-0.0958 0.296702,-0.10762 0.314892,-0.0263 0.01818,0.0814 0.04978,0.2372 0.0702,0.34634 0.02043,0.10914 0.131625,0.34727 0.247126,0.52917 0.314285,0.49497 0.05773,0.39871 -0.458916,-0.17217 z"
         id="path43390" />
      <path
         style="fill:#0000c9;fill-opacity:1;stroke:#0000c9;stroke-width:0.576792;stroke-miterlimit:4;stroke-dasharray:none;stroke-opacity:1"
         d="m 67.598458,172.65452 c 0.475549,-0.0589 1.189924,-0.0577 1.5875,0.003 0.397576,0.0604 0.0085,0.10855 -0.864634,0.10707 -0.873125,-0.002 -1.198415,-0.0509 -0.722866,-0.10977 z m 19.813746,-13.36814 c 0.06745,-0.10914 0.525307,-0.19844 1.017453,-0.19844 0.492147,0 0.95,0.0893 1.017453,0.19844 0.06745,0.10914 -0.390401,0.19844 -1.017453,0.19844 -0.627052,0 -1.084906,-0.0893 -1.017453,-0.19844 z"
         id="path43388" />
      <path
         style="fill:#0000c9;fill-opacity:1;stroke:#0000c9;stroke-width:0.576792;stroke-miterlimit:4;stroke-dasharray:none;stroke-opacity:1"
         d="m 108.60722,172.65915 c 0.32912,-0.0633 0.80537,-0.0609 1.05833,0.005 0.25297,0.0662 -0.0163,0.118 -0.59839,0.11507 -0.58209,-0.003 -0.78906,-0.0571 -0.45994,-0.12041 z"
         id="path43386" />
      <path
         style="fill:#0000c9;fill-opacity:1;stroke:#0000c9;stroke-width:0.576792;stroke-miterlimit:4;stroke-dasharray:none;stroke-opacity:1"
         d="m 67.483476,171.93187 c 0,-0.21188 0.06951,-0.34227 0.154469,-0.28977 0.215028,0.1329 3.020531,-3.82526 3.020531,-4.26153 0,-0.19532 0.05793,-0.29719 0.12874,-0.22639 0.224893,0.22489 1.360329,-1.51774 1.187065,-1.82187 -0.09126,-0.16018 -0.06906,-0.20354 0.04933,-0.0964 0.281663,0.25501 1.489313,-1.38389 1.27512,-1.73046 -0.09475,-0.15331 -0.03133,-0.18374 0.149714,-0.0719 0.229987,0.14214 0.171023,0.42561 -0.220196,1.05862 -0.29386,0.47548 -0.476338,0.9423 -0.405507,1.03738 0.07083,0.0951 0.04559,0.10953 -0.0561,0.0321 -0.266325,-0.2028 -1.945961,2.54963 -1.749682,2.86722 0.093,0.15047 0.03174,0.18385 -0.141224,0.077 -0.277346,-0.17141 -0.428161,0.15831 -0.330241,0.722 0.02084,0.11996 -0.06376,0.15528 -0.188001,0.0785 -0.124239,-0.0768 -0.633205,0.56792 -1.131035,1.43267 -0.84417,1.46637 -1.742993,2.08146 -1.742993,1.19278 z m 5.836758,-0.38537 c 0.01549,-0.42384 0.07292,-0.72635 0.127617,-0.67226 0.05469,0.0541 0.500189,-0.73786 0.989989,-1.7599 0.490525,-1.02356 1.010381,-1.7842 1.157328,-1.69338 0.146729,0.0907 0.266781,0.22441 0.266781,0.29717 0,0.0728 -0.113223,0.0623 -0.251607,-0.0232 -0.278251,-0.17197 -1.335893,2.98585 -1.335893,3.9886 0,0.44087 -0.149405,0.63359 -0.491194,0.63359 -0.372553,0 -0.484389,-0.18613 -0.463021,-0.77061 z m 29.000046,0.49041 c 0,-0.15411 -0.1177,-0.20746 -0.26155,-0.11855 -0.14728,0.091 -0.19587,-0.01 -0.11121,-0.23013 0.19178,-0.49977 -0.94108,-3.64129 -1.24529,-3.45328 -0.12538,0.0775 -0.14957,-0.0634 -0.0537,-0.31313 0.12756,-0.33242 0.0804,-0.39601 -0.1762,-0.23744 -0.23977,0.14818 -0.28748,0.11473 -0.15111,-0.10593 0.44304,-0.71685 -3.987832,-6.10029 -4.672563,-5.6771 -0.175019,0.10817 -0.213527,0.0562 -0.0975,-0.13148 0.1382,-0.22362 0.398087,-0.16333 0.93064,0.21588 0.406392,0.28938 0.814753,0.47013 0.907468,0.40167 0.09271,-0.0685 0.10795,-0.044 0.03386,0.0543 -0.193675,0.25708 0.959924,1.42048 1.238062,1.24858 0.127973,-0.0791 0.200887,-0.0457 0.162031,0.0743 -0.112761,0.34813 0.746064,1.42575 0.963213,1.20861 0.108214,-0.10822 0.172733,-0.0777 0.143372,0.0678 -0.119187,0.59076 0.02655,0.9466 0.314747,0.76848 0.168,-0.10383 0.23471,-0.0743 0.14825,0.0656 -0.0865,0.13991 0.1428,0.78258 0.5095,1.42816 0.59194,1.04211 2.21179,4.6375 2.21179,4.90922 0,0.0575 -0.17859,0.10459 -0.39688,0.10459 -0.21827,0 -0.39687,-0.12609 -0.39687,-0.2802 z m 6.01317,-0.43717 c 0.25802,-0.39456 0.32166,-0.6265 0.14142,-0.51543 -0.22433,0.13825 -0.27762,0.0715 -0.16895,-0.21174 0.21388,-0.55736 -0.94023,-3.36052 -1.29365,-3.14209 -0.16024,0.099 -0.19678,0.0426 -0.0872,-0.13474 0.23733,-0.38401 -1.52372,-3.55586 -1.8233,-3.28396 -0.12127,0.11006 -0.1421,0.063 -0.0463,-0.10451 0.19209,-0.33591 -0.96757,-2.56542 -1.20886,-2.32412 -0.0828,0.0828 -0.13891,-0.006 -0.12476,-0.19788 0.0142,-0.1916 -0.46431,-1.3604 -1.06326,-2.59733 -1.04255,-2.15303 -2.09791,-5.47234 -1.82628,-5.74397 0.071,-0.0711 1.22973,0.62673 2.57485,1.55063 1.98596,1.36405 2.50821,1.8642 2.77834,2.6608 0.45443,1.34005 2.00021,3.65288 2.31243,3.45992 0.13976,-0.0864 0.17961,-0.0365 0.0885,0.11083 -0.0911,0.14733 0.31648,0.90987 0.90565,1.69452 1.10742,1.47489 1.65648,2.35269 1.47158,2.35269 -0.0585,0 -0.43215,-0.49218 -0.83024,-1.09373 -1.08089,-1.63334 -2.80987,-3.42073 -3.1222,-3.22769 -0.15934,0.0985 -0.1955,0.0415 -0.086,-0.13562 0.10383,-0.168 0.0627,-0.30546 -0.0914,-0.30546 -0.1541,0 -0.28019,0.14182 -0.28019,0.31515 0,0.17334 -0.17162,0.084 -0.38138,-0.19844 -0.53151,-0.71576 -1.31121,-0.20666 -1.42336,0.92939 -0.0618,0.62624 0.003,0.80589 0.23932,0.66004 0.20542,-0.12695 0.25636,-0.0905 0.13898,0.0994 -0.22354,0.36169 1.78561,4.0971 2.05746,3.82525 0.10488,-0.10488 0.10464,0.0336 -5.2e-4,0.30767 -0.14333,0.3735 -0.10345,0.4441 0.15918,0.28178 0.22386,-0.13835 0.28696,-0.11389 0.17472,0.0677 -0.21733,0.35165 1.78396,4.10467 2.048,3.84063 0.10482,-0.10482 0.10453,0.0337 -5.3e-4,0.30777 -0.10913,0.28438 -0.0867,0.43383 0.0522,0.34806 0.13387,-0.0827 0.26057,0.13592 0.28156,0.48576 0.0342,0.56995 -0.0696,0.63607 -0.99829,0.63607 -1.03644,0 -1.03644,0 -0.56732,-0.71737 z m -24.691558,-1.70476 c -0.112377,-0.18183 -0.07304,-0.23393 0.09719,-0.12872 0.344908,0.21316 0.748332,-2.5344 0.444345,-3.02627 -0.129046,-0.2088 -0.09165,-0.2578 0.104306,-0.13669 0.201185,0.12434 0.305464,-0.0477 0.305464,-0.5039 0,-0.38098 -0.101863,-0.62973 -0.226363,-0.55279 -0.124499,0.077 -0.172378,-0.1425 -0.106397,-0.48765 0.07659,-0.40069 -0.07427,-0.8218 -0.417313,-1.16484 -0.505779,-0.50578 -0.508371,-0.5351 -0.0442,-0.50014 0.271191,0.0204 0.481783,0.10173 0.467981,0.18066 -0.06252,0.35758 0.401696,1.58335 0.562098,1.48421 0.09865,-0.061 0.08948,0.91419 -0.02036,2.16701 -0.134907,1.53866 -0.105896,2.3909 0.0894,2.62622 0.226312,0.27269 0.141783,0.34836 -0.389123,0.34836 -0.373032,0 -0.763194,-0.13746 -0.867028,-0.30546 z m 6.14202,-0.10516 c -0.08666,-0.22583 -0.04797,-0.34288 0.08598,-0.26009 0.13395,0.0828 0.293341,-0.17892 0.354201,-0.58157 0.08984,-0.59435 0.118115,-0.54541 0.150299,0.26009 0.04006,1.00262 -0.300277,1.33782 -0.590477,0.58157 z m -12.706315,-4.84056 c -0.07617,-0.12325 0.24422,-0.56973 0.711989,-0.99219 0.850488,-0.76809 0.850488,-0.76809 0.119179,0.044 -0.402219,0.44665 -0.650266,0.89314 -0.551215,0.99218 0.09905,0.0991 0.107745,0.1801 0.01932,0.1801 -0.08843,0 -0.223099,-0.10084 -0.299273,-0.2241 z m 2.874865,-4.60455 c 0.551719,-0.85728 0.563985,-0.86151 0.789955,-0.27264 0.09602,0.25022 0.08866,0.36902 -0.01637,0.264 -0.105023,-0.10502 -0.427403,0.0177 -0.7164,0.27265 -0.520435,0.45917 -0.520981,0.45665 -0.05719,-0.26401 z m 16.593561,-0.14181 c 0.09278,-0.43571 -0.386413,-1.62884 -0.600934,-1.49626 -0.128331,0.0793 -0.157062,-0.0546 -0.06385,-0.29746 0.148161,-0.3861 0.207759,-0.37014 0.473742,0.12685 0.167341,0.31268 0.387366,0.50524 0.488944,0.42792 0.101579,-0.0773 0.129345,-0.0654 0.0617,0.0265 -0.06764,0.0919 -0.01029,0.37765 0.127447,0.63501 0.181729,0.33956 0.143756,0.50886 -0.138427,0.61715 -0.213871,0.0821 -0.370753,0.0642 -0.348629,-0.0397 z m -14.797095,-8.54583 c -0.327422,-0.12375 -0.595313,-0.29539 -0.595313,-0.38142 0,-0.086 0.09811,-0.0958 0.218025,-0.0217 0.119913,0.0741 0.678224,-0.80915 1.24069,-1.96279 0.562467,-1.15365 1.063048,-2.05716 1.112403,-2.0078 0.04935,0.0494 -0.217389,0.94115 -0.592763,1.98178 -0.375374,1.04062 -0.614936,2.00136 -0.53236,2.13497 0.232899,0.37684 -0.193046,0.5055 -0.850682,0.25695 z m 3.90553,-1.83501 c 0.157371,-0.29405 0.202002,-0.681 0.09918,-0.8599 -0.102821,-0.17889 -0.08567,-0.23315 0.03811,-0.12057 0.123781,0.11257 0.364106,-0.12555 0.534056,-0.52917 0.294161,-0.69861 0.307627,-0.67481 0.280385,0.49552 -0.01574,0.67616 -0.117913,1.17514 -0.227054,1.10887 -0.10914,-0.0663 -0.198437,0.006 -0.198437,0.15968 0,0.15411 -0.182783,0.2802 -0.406184,0.2802 -0.325581,0 -0.349405,-0.10609 -0.120056,-0.53463 z m 7.581797,-0.96467 c -0.26183,-0.26183 -0.213657,-1.62143 0.06352,-1.79274 0.13195,-0.0815 0.172725,0.10864 0.09061,0.42263 -0.08211,0.314 -0.04124,0.50413 0.09082,0.42251 0.132062,-0.0816 0.240115,0.13789 0.240115,0.48779 0,0.63889 -0.157083,0.78779 -0.485069,0.45981 z m 7.231945,-0.88162 c -0.21828,-0.14089 -0.7759,-0.18684 -1.239151,-0.1021 -0.833768,0.1525 -0.847293,0.1377 -1.339355,-1.4652 -0.273397,-0.89058 -0.598069,-1.52742 -0.7215,-1.4152 -0.123428,0.11223 -0.148228,0.0705 -0.05511,-0.0927 0.194308,-0.34054 -0.622003,-4.35955 -0.856093,-4.21488 -0.08493,0.0525 -0.154419,-0.29817 -0.154419,-0.77924 0,-0.7401 0.06898,-0.83777 0.448286,-0.63477 0.246557,0.13195 0.522674,0.36028 0.613593,0.50739 0.09092,0.14711 0.294542,0.1876 0.452493,0.09 0.160676,-0.0993 0.211899,-0.0557 0.116279,0.099 -0.09399,0.15209 0.125735,0.47089 0.488288,0.70844 0.522296,0.34222 0.659186,0.65367 0.659186,1.49976 0,0.58732 0.107958,1.00113 0.239908,0.91958 0.131951,-0.0815 0.179737,0.0818 0.106193,0.36305 -0.07354,0.28123 0.281633,1.47202 0.789282,2.6462 0.50765,1.17418 0.90634,2.13305 0.886,2.13083 -0.0203,-0.002 -0.2156,-0.11933 -0.43388,-0.26021 z M 87.214432,135.09098 c -0.08507,-0.49891 -0.04173,-0.78257 0.105638,-0.6915 0.146021,0.0902 0.204087,-0.23774 0.139712,-0.78916 -0.06059,-0.51898 -0.02914,-0.89351 0.0699,-0.83231 0.09903,0.0612 0.227859,0.52075 0.286285,1.02121 0.05843,0.50047 0.02015,0.85674 -0.08505,0.79172 -0.105205,-0.065 -0.231998,0.21122 -0.281763,0.61387 -0.0901,0.729 -0.09109,0.72852 -0.234716,-0.11383 z m 7.895954,-1.58542 c -0.254661,-0.0666 -0.46302,-0.35742 -0.46302,-0.64638 0,-0.28896 -0.1177,-0.45264 -0.261554,-0.36374 -0.146595,0.0906 -0.196229,-0.009 -0.112927,-0.22565 0.08174,-0.21302 -0.03377,-2.15397 -0.256688,-4.31322 -0.222922,-2.15926 -0.551889,-6.75388 -0.731041,-10.21028 -0.201967,-3.89658 -0.416662,-6.1585 -0.565053,-5.95312 -0.163528,0.22633 -0.18952,0.17774 -0.08207,-0.15343 0.08649,-0.26656 0.15725,-0.72007 0.15725,-1.0078 0,-0.28773 0.100827,-0.46083 0.224059,-0.38467 0.123231,0.0762 0.300242,1.30358 0.393354,2.7276 0.275283,4.21006 0.760037,8.0106 1.002618,7.86068 0.124296,-0.0768 0.153392,0.0495 0.06466,0.28075 -0.2002,0.52171 0.454617,5.44513 0.703728,5.29117 0.09954,-0.0615 0.13498,0.15244 0.07877,0.47546 -0.05622,0.32302 0.116554,1.91419 0.383934,3.53593 0.417108,2.5299 0.430885,2.92742 0.09703,2.79931 -0.251376,-0.0965 -0.321398,-0.0397 -0.197808,0.16023 0.105222,0.17025 0.154519,0.29573 0.109551,0.27885 -0.04497,-0.0169 -0.290121,-0.0851 -0.544783,-0.15169 z m -4.365047,-12.91449 c 0.0029,-0.58208 0.05712,-0.78906 0.120406,-0.45994 0.06329,0.32912 0.06088,0.80537 -0.0053,1.05834 -0.06622,0.25296 -0.118004,-0.0163 -0.115067,-0.5984 z"
         id="path43384" />
      <path
         style="fill:#0000c9;fill-opacity:1;stroke:#0000c9;stroke-width:0.576792;stroke-miterlimit:4;stroke-dasharray:none;stroke-opacity:1"
         d="m 108.8923,172.65061 c -1.76236,-0.092 -1.76236,-0.092 -1.13615,-0.71823 0.52079,-0.52079 0.5879,-0.75976 0.39867,-1.41957 -0.27187,-0.94797 -1.91435,-4.21181 -4.48308,-8.90854 -1.91021,-3.49266 -2.77815,-5.67169 -3.10712,-7.80059 -0.18284,-1.18322 -0.18284,-1.18322 0.58797,-0.68172 3.78942,2.46543 5.13644,3.45339 5.13644,3.76728 0,0.6464 1.07103,2.52475 2.91321,5.10912 1.56379,2.19383 4.05215,6.12104 4.99672,7.88597 0.28672,0.53575 0.25145,0.5807 -0.45559,0.5807 -0.65109,0 -0.74976,-0.0896 -0.65596,-0.59532 0.13741,-0.74085 -4.14954,-7.34928 -5.58535,-8.60994 -0.53177,-0.4669 -0.86593,-0.84891 -0.74257,-0.84891 0.12336,0 0.56531,0.35595 0.98211,0.79099 1.14349,1.19355 1.09498,0.76956 -0.11473,-1.00266 -0.59489,-0.87152 -1.23757,-2.04362 -1.42817,-2.60468 -0.28365,-0.83498 -0.77506,-1.31806 -2.70779,-2.66187 -1.29869,-0.90297 -2.46001,-1.64711 -2.58071,-1.65365 -0.12071,-0.007 -0.13919,0.37507 -0.0411,0.84801 0.45267,2.18211 1.60451,4.80667 4.07818,9.29244 1.47369,2.6724 2.90656,5.49974 3.18417,6.28298 0.44906,1.26695 0.46217,1.48974 0.1188,2.01938 -0.37832,0.58356 -0.36437,0.59531 0.7068,0.59531 1.33529,0 1.47557,0.44711 -1.77127,-5.64515 -2.57418,-4.8301 -2.85209,-5.76233 -1.89624,-6.36076 0.33509,-0.20978 0.54374,-0.19733 0.78813,0.0471 0.26679,0.2668 0.20296,0.31784 -0.32345,0.25864 -0.52697,-0.0593 -0.67085,0.0562 -0.73225,0.58771 -0.0714,0.61766 0.64369,2.08902 4.59683,9.45885 0.64397,1.20055 1.14047,2.15949 1.10334,2.13099 -0.0371,-0.0285 -0.86056,-0.0932 -1.82986,-0.14384 z m 1.75889,-8.20486 c -0.23664,-0.40018 -0.78832,-1.14432 -1.22597,-1.65364 -0.50577,-0.58861 -0.38367,-0.32348 0.33509,0.7276 1.16687,1.70638 1.64815,2.20666 0.89088,0.92604 z m -41.854381,5.42396 c 1.061535,-1.49159 3.685561,-5.18252 5.831169,-8.20208 2.145607,-3.01956 3.969536,-5.4901 4.053176,-5.4901 0.08364,0 -0.02296,0.26789 -0.236888,0.59531 -4.748073,7.26705 -9.56219,14.9885 -9.567716,15.34583 -0.0055,0.35815 -0.23396,0.46302 -1.008482,0.46302 -1.001322,0 -1.001322,0 0.928741,-2.71198 z m -0.244944,2.04383 c 0.08518,-0.22197 1.0869,-1.85908 2.226053,-3.63802 2.91478,-4.55184 3.099427,-4.85452 2.780186,-4.55737 -0.156339,0.14552 -1.206639,1.57427 -2.334001,3.175 -1.127362,1.60073 -2.46018,3.47596 -2.961819,4.16719 -0.813656,1.12116 -0.855595,1.25677 -0.388677,1.25677 0.287866,0 0.593083,-0.18161 0.678258,-0.40357 z m 4.399667,0.4156 c 0,-0.69513 1.325975,-3.76261 2.179976,-5.0431 0.532324,-0.79817 1.83286,-2.28466 2.890081,-3.30331 1.841898,-1.77469 1.861039,-1.78575 0.458077,-0.26458 -0.805278,0.87313 -1.774274,2.12328 -2.153325,2.77813 -0.86207,1.4893 -1.787309,4.22432 -1.787309,5.28331 0,0.71483 -0.08636,0.8021 -0.79375,0.8021 -0.436562,0 -0.79375,-0.11364 -0.79375,-0.25255 z m 1.329747,-0.73964 c 0.0038,-0.40018 0.280713,-1.53127 0.615458,-2.51354 0.334745,-0.98226 0.563927,-1.78593 0.509294,-1.78593 -0.132516,0 -1.836252,3.67596 -2.054036,4.43177 -0.138516,0.4807 -0.06624,0.59531 0.375457,0.59531 0.418679,0 0.548599,-0.17069 0.553827,-0.72761 z m 27.159241,-1.19075 c -1.859636,-5.43029 -5.784475,-9.48028 -10.365029,-10.69554 -1.322917,-0.35098 -1.322917,-0.35098 -0.103159,-0.22867 3.050051,0.30582 6.278756,2.27436 8.476745,5.16827 1.304143,1.71705 3.479153,5.83208 3.811543,7.21128 0.15369,0.63766 0.0982,0.72759 -0.44863,0.72747 -0.54475,-1.1e-4 -0.71893,-0.27735 -1.37147,-2.18281 z m 1.67351,1.81377 c 0,-0.35862 -1.74905,-4.11149 -2.56542,-5.5045 -1.061092,-1.81062 -2.901102,-3.91153 -4.173261,-4.76501 -0.506357,-0.33971 -0.3473,-0.11172 0.431527,0.61856 2.35172,2.20512 3.862964,4.62071 4.985944,7.9696 0.34879,1.04015 0.74969,1.78594 0.96004,1.78594 0.19865,0 0.36117,-0.0471 0.36117,-0.10459 z M 83.639703,170.002 c 0.07727,-0.25466 0.266168,-1.26665 0.419767,-2.24886 0.297223,-1.90064 0.168005,-2.97065 -0.444023,-3.67682 -0.305256,-0.35221 -0.311115,-0.46151 -0.03061,-0.57107 0.190797,-0.0745 -0.129347,-0.0768 -0.71143,-0.005 -0.582083,0.0718 -1.734986,0.45332 -2.562006,0.84792 -1.826597,0.87154 -1.748444,0.57869 0.133631,-0.50074 1.755764,-1.00697 3.02609,-1.04206 3.903609,-0.10782 0.589361,0.62746 0.642477,0.90015 0.654292,3.35911 0.01286,2.67623 0.01286,2.67623 0.79375,3.00934 0.750074,0.31997 0.720148,0.33359 -0.758293,0.34505 -1.345907,0.0104 -1.521542,-0.0462 -1.398687,-0.45108 z m 1.278232,-0.11182 c -0.211523,-0.21153 -0.259298,-0.9132 -0.150117,-2.20481 0.152051,-1.79876 -0.165438,-3.6345 -0.684009,-3.955 -0.113411,-0.0701 -0.03689,0.38684 0.170037,1.0154 0.32286,0.98071 0.324422,1.44871 0.01101,3.29876 -0.36523,2.15591 -0.36523,2.15591 0.299057,2.15591 0.508061,0 0.591319,-0.073 0.354022,-0.31026 z m 4.853884,-0.41734 c 0.27782,-1.57052 1.29757,-3.91044 1.669091,-3.8299 0.184455,0.04 0.255327,-0.0568 0.157495,-0.21512 -0.418835,-0.67768 2.109441,-2.38142 3.50144,-2.35952 0.688314,0.0108 0.671127,0.0355 -0.254579,0.36589 -2.370754,0.84604 -3.891743,2.92564 -4.115795,5.62741 -0.09682,1.16754 -0.201832,1.40343 -0.624775,1.40343 -0.442289,0 -0.485571,-0.12901 -0.332877,-0.99219 z m 0.642213,-0.24254 c 0,-1.13395 -0.122734,-1.09554 -0.352256,0.11025 -0.09405,0.49409 -0.05394,0.85989 0.09429,0.85989 0.141883,0 0.257969,-0.43656 0.257969,-0.97014 z m 17.727088,-5.60639 c 0,-0.1246 -0.44103,-0.80921 -0.98006,-1.52136 -0.53902,-0.71215 -0.80119,-1.15136 -0.58259,-0.97604 0.65974,0.52916 2.14526,2.72393 1.84367,2.72393 -0.15456,0 -0.28102,-0.10194 -0.28102,-0.22653 z M 78.886443,161.3369 c 0.684812,-0.93453 2.510557,-3.25605 3.112818,-3.95809 0.119809,-0.13967 -0.205054,0.60448 -0.72192,1.65364 -0.516865,1.04917 -1.044669,1.90758 -1.172898,1.90758 -0.128229,0 -0.629232,0.32742 -1.11334,0.7276 -0.880196,0.7276 -0.880196,0.7276 -0.10466,-0.33073 z m 18.222238,-0.91468 c -0.636572,-0.38814 -0.947663,-0.85823 -1.256771,-1.89911 -0.637595,-2.14701 -0.478993,-2.36087 0.464087,-0.62579 0.474576,0.87312 1.080879,1.91492 1.347338,2.3151 0.576292,0.8655 0.541996,0.87847 -0.554654,0.2098 z m -0.398576,-1.31655 c -0.329393,-0.57233 -0.63758,-1.00192 -0.684858,-0.95464 -0.181076,0.18108 0.726143,1.99525 0.997767,1.99525 0.157292,0 0.01648,-0.46827 -0.312909,-1.04061 z m -5.632026,-1.45769 c -1.020666,-0.3153 -1.031655,-0.33074 -0.33073,-0.46473 0.398759,-0.0762 0.725017,-0.0542 0.725017,0.0489 0,0.1031 0.26789,0.31666 0.595312,0.47457 0.779831,0.37609 0.331876,0.34952 -0.989599,-0.0587 z m -13.309326,-4.07274 c 0.06104,-0.31695 2.233722,-0.75975 10.131803,-2.06488 5.529755,-0.91378 10.390567,-1.66624 10.801803,-1.67213 0.65999,-0.009 2.279731,1.04116 4.398831,2.85319 0.33874,0.28966 0.34097,0.31493 0.0129,0.14588 -1.29378,-0.66656 -3.560762,-2.30093 -3.499177,-2.52271 0.03998,-0.144 -0.05416,-0.18341 -0.20922,-0.0876 -0.155053,0.0958 -5.104267,0.97917 -10.998253,1.96297 -8.857281,1.47843 -10.702856,1.71874 -10.638634,1.38526 z m 4.716543,-4.60761 c 0.829401,-1.63711 1.719701,-3.54476 1.978443,-4.23923 0.929922,-2.49593 0.68495,-0.9551 -0.397404,2.4996 -1.26376,4.03372 -1.622321,4.71619 -2.477813,4.71619 -0.58544,0 -0.547605,-0.12558 0.896774,-2.97656 z m 0.574936,0.49354 c 0.415883,-1.14739 0.717125,-2.12518 0.669427,-2.17288 -0.0477,-0.0477 -0.591116,0.9303 -1.207597,2.17334 -0.885388,1.78524 -1.026029,2.24174 -0.669427,2.17287 0.294548,-0.0569 0.714246,-0.81222 1.207597,-2.17333 z m 2.281796,0.43983 c 0.276362,-0.54973 0.647248,-1.4471 0.824189,-1.99414 0.176941,-0.54704 0.429815,-0.92781 0.561941,-0.84615 0.132126,0.0816 0.183299,-0.007 0.113717,-0.196 -0.06958,-0.18946 0.103972,-1.05885 0.385677,-1.93198 0.281704,-0.87312 0.514632,-1.4089 0.517617,-1.19062 0.0066,0.4814 -1.221929,6.63106 -1.344986,6.7327 -0.04796,0.0396 -0.418717,0.1516 -0.823913,0.24886 -0.73672,0.17685 -0.73672,0.17685 -0.234242,-0.82267 z m 0.93338,-0.007 c 0.259112,-0.92027 0.493371,-2.31213 0.367383,-2.18281 -0.07089,0.0728 -0.375758,0.69784 -0.677488,1.38906 -0.42675,0.97763 -0.467714,1.25677 -0.184431,1.25677 0.200292,0 0.422833,-0.20836 0.494536,-0.46302 z m 14.749522,-0.96375 c -0.75918,-0.78328 -0.99623,-0.88066 -1.861193,-0.76465 -0.991209,0.13295 -0.991209,0.13295 -1.820058,-2.74042 -0.993717,-3.44491 -1.735614,-6.70038 -1.565693,-6.8703 0.06775,-0.0678 0.853109,0.48672 1.745242,1.23217 1.394513,1.16522 1.622054,1.47984 1.622054,2.24273 0,1.02485 1.045158,4.07109 2.153528,6.27672 0.42048,0.83675 0.72662,1.52136 0.68031,1.52136 -0.0463,0 -0.47569,-0.40393 -0.95419,-0.89761 z m -1.00215,-2.80926 c -0.503959,-1.16566 -0.982474,-2.76065 -1.063368,-3.54442 -0.130995,-1.26923 -0.266297,-1.52384 -1.237374,-2.3285 -0.599665,-0.4969 -1.225947,-0.98439 -1.391743,-1.08331 -0.356946,-0.21297 0.381717,3.33298 1.386224,6.65454 0.668094,2.20916 0.668094,2.20916 1.511448,2.0549 0.463846,-0.0849 1.021953,-0.039 1.240233,0.1019 0.21828,0.14088 0.41352,0.25798 0.43388,0.26021 0.0203,0.002 -0.37534,-0.94967 -0.8793,-2.11532 z m -7.053503,2.97926 c -0.205359,-0.33452 -0.758881,-7.24237 -0.593574,-7.40768 0.08525,-0.0852 0.154996,0.16753 0.154996,0.56172 0,1.16082 0.795377,4.70398 1.328917,5.91992 0.493411,1.12448 0.493411,1.12448 -0.137554,1.12448 -0.347033,0 -0.685785,-0.0893 -0.752785,-0.19844 z m 0.528844,-1.05833 c -0.256389,-0.83143 -0.320071,-0.89262 -0.393033,-0.37763 -0.103717,0.73205 0.106204,1.36982 0.450874,1.36982 0.144158,0 0.119922,-0.41574 -0.05784,-0.99219 z m -8.518927,-9.87333 c -0.09592,-0.15521 -0.132712,-0.31843 -0.08176,-0.36272 0.354409,-0.30808 10.387173,-3.05018 10.532487,-2.87868 0.100798,0.11896 0.829162,0.92648 1.618586,1.79448 1.435317,1.5782 1.435317,1.5782 -0.138853,0.19844 -0.865794,-0.75886 -1.6397,-1.37774 -1.719792,-1.37528 -0.708292,0.0217 -10.029349,2.59131 -9.893323,2.72734 0.09823,0.0982 0.106256,0.1786 0.01783,0.1786 -0.08843,0 -0.239255,-0.12698 -0.335175,-0.28218 z M 87.4199,132.4315 c 0.32687,-2.00091 0.76421,-5.06677 0.971866,-6.81302 0.207657,-1.74625 0.387875,-2.63922 0.400485,-1.98437 0.03034,1.57547 -0.94167,11.82348 -1.154033,12.16709 -0.09121,0.14758 -0.311361,0.26832 -0.48923,0.26832 -0.241672,0 -0.173211,-0.91935 0.270912,-3.63802 z m 0.286568,1.12448 c 7.41e-4,-0.66737 -0.03398,-0.62524 -0.218031,0.26458 -0.277224,1.34027 -0.264799,2.42321 0.01518,1.32292 0.111086,-0.43656 0.202369,-1.15094 0.202851,-1.5875 z m 1.811872,-0.79375 c 0.08563,-1.45521 0.411491,-5.80099 0.724131,-9.65729 l 0.568436,-7.01146 0.868909,9.10588 c 0.477899,5.00824 0.767691,9.20711 0.643981,9.33081 -0.123709,0.12371 -0.432709,-2.06893 -0.686666,-4.87255 -0.58017,-6.40491 -0.745705,-7.91202 -0.856824,-7.8009 -0.04863,0.0486 -0.332687,2.99852 -0.631231,6.5553 -0.557402,6.64075 -0.907688,9.05669 -0.630736,4.35021 z m 1.347405,-12.63077 c -0.06329,-0.32912 -0.117469,-0.12214 -0.120406,0.45994 -0.0029,0.58208 0.04884,0.85136 0.115066,0.5984 0.06622,-0.25297 0.06863,-0.72922 0.0053,-1.05834 z m 3.514902,13.49067 c -0.0011,-0.1819 -0.174945,-1.64042 -0.386159,-3.24115 -0.331933,-2.51564 -0.607481,-6.31773 -1.331422,-18.37135 -0.146335,-2.43649 -0.137926,-2.48548 0.350692,-2.04329 0.400662,0.36259 0.537137,0.99312 0.683491,3.15781 0.240655,3.55946 1.032053,9.75479 2.011289,15.74504 0.92525,5.65998 0.888653,5.22958 0.410948,4.83312 -0.276622,-0.22958 -0.523751,-0.23839 -0.908648,-0.0324 -0.68172,0.36485 -0.827582,0.35645 -0.830191,-0.0478 z m 0.999516,-4.96094 c -1.036417,-6.56413 -1.738,-12.10901 -1.951156,-15.4208 -0.101,-1.5692 -0.292116,-2.92014 -0.424706,-3.00208 -0.140688,-0.0869 -0.179827,0.49513 -0.09399,1.39788 0.08089,0.85078 0.270351,3.92813 0.421021,6.83854 0.25989,5.02022 0.883735,12.23743 1.216731,14.07629 0.130689,0.72169 0.257781,0.83922 0.85829,0.79375 0.704882,-0.0534 0.704882,-0.0534 -0.02619,-4.68358 z m -6.477956,-7.80521 c 0.002,-0.7276 0.05337,-0.99386 0.114185,-0.59167 0.06082,0.40218 0.05919,0.99749 -0.0036,1.32291 -0.0628,0.32542 -0.112561,-0.004 -0.110574,-0.73124 z m 1.858395,-10.05416 c 0.0015,-0.87313 0.05088,-1.19842 0.109765,-0.72287 0.05889,0.47555 0.05767,1.18992 -0.0027,1.5875 -0.06037,0.39758 -0.108551,0.008 -0.107066,-0.86463 z m -0.08199,-2.11722 c 0,-0.044 0.349867,-0.20194 0.777482,-0.35101 0.563786,-0.19654 0.847837,-0.18547 1.033452,0.0403 0.187766,0.22835 -0.0194,0.32188 -0.777482,0.35101 -0.568399,0.0218 -1.033452,0.004 -1.033452,-0.0403 z m -0.529167,-2.09125 c 0,-0.0591 0.558932,-0.29786 1.242071,-0.53063 0.933087,-0.31794 1.311548,-0.34738 1.521355,-0.11835 0.198325,0.21649 0.191578,0.25579 -0.02328,0.13556 -0.166406,-0.0931 -0.806453,0.008 -1.422327,0.22577 -1.210262,0.427 -1.317823,0.45048 -1.317823,0.28765 z M 88.566,105.47883 c -0.0022,-0.16256 0.472199,-0.61073 1.054282,-0.99594 0.898796,-0.59479 1.064717,-0.84937 1.100677,-1.6888 0.04084,-0.95333 0.04609,-0.95847 0.147834,-0.14491 0.07665,0.61289 0.264015,0.87433 0.685261,0.95616 0.566219,0.10999 0.565443,0.11347 -0.0332,0.14866 -0.567724,0.0334 -2.308651,1.14138 -2.75642,1.75431 -0.12567,0.17203 -0.195819,0.16161 -0.198438,-0.0295 z"
         id="path43382" />
    </g>
  </g>
</svg>
