<?xml version="1.0" encoding="UTF-8" standalone="no"?>
<!-- Created with Inkscape (http://www.inkscape.org/) -->

<svg
   width="77.130875mm"
   height="110.18714mm"
   viewBox="0 0 77.130875 110.18714"
   version="1.1"
   id="svg34764"
   xmlns="http://www.w3.org/2000/svg"
   xmlns:svg="http://www.w3.org/2000/svg">
  <defs
     id="defs34761" />
  <g
     id="layer1"
     transform="translate(-106.36338,-4.9407144)">
    <g
       id="g34878"
       transform="matrix(2.5677537,0,0,2.5677537,-200.53106,-209.14709)"
       style="fill:none;stroke:#ffffff;stroke-width:0.389445;stroke-opacity:1">
      <path
         id="path34898"
         style="fill:none;fill-opacity:1;stroke:#ffffff;stroke-width:3.77952;stroke-opacity:1"
         transform="matrix(0.10304078,0,0,0.10304078,77.524016,79.878678)"
         d="m 315.84961,477.23242 c -0.35671,-0.0653 -0.61084,2.09677 -0.63086,5.98047 h 0.004 c -0.0285,5.64922 0.47472,8.26169 1.11718,5.80664 0.63956,-2.45495 0.66315,-7.07545 0.0488,-10.26953 -0.192,-0.99815 -0.37692,-1.4879 -0.53906,-1.51758 z" />
      <path
         style="fill:none;fill-opacity:1;stroke:#ffffff;stroke-width:0.389445;stroke-opacity:1"
         d="m 105.1091,141.78572 c 0.32742,-0.0631 0.8632,-0.0631 1.19063,0 0.32742,0.0631 0.0595,0.11467 -0.59532,0.11467 -0.65484,0 -0.92273,-0.0516 -0.59531,-0.11467 z"
         id="path34896" />
      <path
         style="fill:none;fill-opacity:1;stroke:#ffffff;stroke-width:0.389445;stroke-opacity:1"
         d="m 128.9157,144.16274 c 0.4697,-0.0585 1.30313,-0.0594 1.85208,-0.002 0.54895,0.0573 0.16465,0.1051 -0.85399,0.10628 -1.01865,0.001 -1.46779,-0.0457 -0.99809,-0.10414 z"
         id="path34888" />
      <path
         style="fill:none;fill-opacity:1;stroke:#ffffff;stroke-width:0.389445;stroke-opacity:1"
         d="m 126.14348,144.16419 c 0.40018,-0.0606 1.05502,-0.0606 1.4552,0 0.40019,0.0606 0.0728,0.11022 -0.7276,0.11022 -0.80037,0 -1.12779,-0.0496 -0.7276,-0.11022 z"
         id="path34886" />
      <path
         style="fill:none;fill-opacity:1;stroke:#ffffff;stroke-width:0.389445;stroke-opacity:1"
         d="m 118.21972,144.15629 c 1.42638,-0.0477 3.68857,-0.0475 5.02708,5.2e-4 1.33851,0.0479 0.17147,0.0869 -2.59343,0.0867 -2.76489,-2.5e-4 -3.86004,-0.0395 -2.43365,-0.0871 z"
         id="path34884" />
      <path
         style="fill:none;fill-opacity:1;stroke:#ffffff;stroke-width:0.389445;stroke-opacity:1"
         d="m 106.96118,144.15619 c 1.63711,-0.0464 4.31602,-0.0464 5.95313,0 1.63711,0.0464 0.29765,0.0844 -2.97656,0.0844 -3.27422,0 -4.61368,-0.038 -2.97657,-0.0844 z m 3.06339,-7.07853 c 0.001,-1.01865 0.049,-1.40294 0.10627,-0.854 0.0573,0.54895 0.0563,1.38239 -0.002,1.85209 -0.0584,0.46969 -0.10532,0.0206 -0.10414,-0.99809 z"
         id="path34882" />
      <path
         d="m 129.0822,83.582189 c -1.0313,0.01149 -1.98742,0.222372 -2.58111,0.719974 -0.0282,0.02362 -0.12773,0.07538 -0.2443,0.107957 -0.11656,0.03257 -0.25309,0.0531 -0.36547,0.0531 -0.21018,0 -0.41719,0.100365 -0.64391,0.240512 -0.22672,0.140148 -0.46122,0.328156 -0.66089,0.539981 -0.17944,0.190387 -0.39505,0.386294 -0.59279,0.541933 -0.19772,0.155639 -0.3884,0.272508 -0.46947,0.302983 -0.17632,0.06626 -0.32946,0.199793 -0.46966,0.363892 -0.14019,0.164099 -0.26162,0.361117 -0.33893,0.564579 -0.0591,0.155676 -0.14978,0.298977 -0.23864,0.395908 -0.0888,0.09694 -0.18007,0.130798 -0.17991,0.130798 -0.1341,0 -0.22041,0.06216 -0.31434,0.134507 -0.094,0.07234 -0.19062,0.165982 -0.29347,0.280337 -0.2057,0.228712 -0.43278,0.53561 -0.65347,0.869709 -0.44138,0.668199 -0.8534,1.426973 -0.95806,1.945767 -0.0684,0.338775 -0.2105,0.822972 -0.29737,1.02862 -0.15389,0.364348 0.0221,0.779861 0.38068,1.114125 0.24696,0.230189 0.60122,0.763736 0.73289,1.110221 0.082,0.215844 0.20223,0.412031 0.33893,0.564579 0.13671,0.152538 0.28485,0.27381 0.48099,0.289903 0.21253,0.01736 0.51312,0.04735 0.66088,0.06442 -0.003,-3e-4 0.10162,0.04075 0.20079,0.121232 0.0991,0.08042 0.20886,0.193087 0.29347,0.30884 0.16304,0.22309 0.40326,0.377529 0.77249,0.46033 0.36924,0.08284 0.8777,0.112861 1.66266,0.128847 0.56421,0.01145 0.97706,0.01008 1.25934,0.04549 0.28228,0.0355 0.4112,0.09292 0.50947,0.22548 0.0983,0.132528 0.17296,0.38476 0.22342,0.81661 0.0505,0.431835 0.0812,1.035265 0.13639,1.856551 0.0854,1.272596 0.21169,2.828986 0.28215,3.472786 0.0683,0.6243 0.0407,1.04848 -0.0626,1.29607 -0.10333,0.24758 -0.25378,0.34948 -0.56996,0.39591 -0.34114,0.0502 -0.68465,0.2822 -0.87104,0.57785 -0.12587,0.19965 -0.16181,0.45444 -0.0418,0.6782 0.12013,0.22376 0.34579,0.43396 0.7083,0.73696 0.44683,0.37346 0.60557,0.46449 0.71397,1.34897 0.10838,0.8845 0.11161,2.5266 0.11161,5.79943 0,3.08636 -0.01,4.73088 -0.0757,5.65536 -0.0332,0.46223 -0.0803,0.743 -0.14205,0.92652 -0.0618,0.1835 -0.13136,0.27501 -0.2443,0.39981 -0.39628,0.43786 -0.71662,0.69029 -1.19475,0.8658 -0.47812,0.17551 -1.127,0.26942 -2.14559,0.34476 -0.96199,0.0711 -1.44264,0.0862 -1.77056,0.26706 -0.16397,0.0904 -0.2732,0.24398 -0.32391,0.41309 -0.0507,0.16911 -0.0634,0.35618 -0.0833,0.59679 -0.01,0.12031 -0.0233,0.24022 0.004,0.37131 0.0269,0.13108 0.1115,0.26745 0.24605,0.35804 0.2691,0.18117 0.69997,0.25762 1.5528,0.3184 1.70568,0.12159 5.09777,0.11928 11.88857,0.11928 6.79079,0 10.18322,0.002 11.90924,-0.0834 0.86302,-0.0425 1.30628,-0.0983 1.58695,-0.21396 0.14034,-0.0578 0.2455,-0.14459 0.30674,-0.24637 0.0613,-0.10177 0.0766,-0.19987 0.0927,-0.28424 0.0564,-0.29528 0.0691,-0.53655 -0.0605,-0.73891 -0.12961,-0.20235 -0.35188,-0.30781 -0.67045,-0.42812 -0.27677,-0.10453 -0.45463,-0.22942 -0.54733,-0.3145 0.0861,-4e-4 0.17406,-0.0186 0.24996,-0.0664 0.0767,-0.0483 0.13204,-0.12593 0.15922,-0.20831 0.0543,-0.16474 0.0244,-0.33825 -0.04,-0.54369 -0.12872,-0.41088 -0.4311,-0.96629 -0.90519,-1.68065 -0.38843,-0.58531 -0.60533,-0.95868 -0.68742,-1.19534 -0.0821,-0.23668 -0.0616,-0.30399 0.04,-0.44725 0.83888,-1.18388 1.3284,-2.42288 1.49973,-3.7949 0.086,-0.68886 0.11947,-1.12524 0.01,-1.61975 -0.11038,-0.4945 -0.35471,-1.02669 -0.79923,-1.94772 -0.53323,-1.10485 -1.41726,-2.60592 -1.99027,-3.3742 -0.56218,-0.75375 -0.96064,-1.41546 -1.18539,-1.94967 -0.22474,-0.5342 -0.26444,-0.93447 -0.176,-1.16508 0.0445,-0.11602 0.038,-0.2257 0.0226,-0.35823 -0.0154,-0.13253 -0.0471,-0.28331 -0.0929,-0.45076 -0.0916,-0.33491 -0.23848,-0.72962 -0.4203,-1.11413 -0.59222,-1.25247 -0.60657,-1.38091 -0.36352,-2.87404 0.14551,-0.893979 0.28757,-1.844888 0.32,-2.144696 0.0121,-0.1117 0.0557,-0.245733 0.11357,-0.356278 0.0579,-0.110536 0.13385,-0.196426 0.17619,-0.223528 0.14849,-0.09506 0.23432,-0.248773 0.30108,-0.422459 0.0667,-0.173674 0.10791,-0.372986 0.10791,-0.572192 0,-0.248095 -0.0329,-0.449674 -0.15903,-0.604404 -0.12616,-0.154721 -0.32805,-0.212206 -0.54362,-0.212206 -0.11601,0 -0.22096,-0.02605 -0.2802,-0.05486 -0.0324,-0.01579 -0.0421,-0.02723 -0.0445,-0.0287 -0.01,-0.208107 -0.15699,-0.352813 -0.33054,-0.482781 -0.17939,-0.13435 -0.41357,-0.255456 -0.67786,-0.359987 -0.52857,-0.209062 -1.17166,-0.351912 -1.70988,-0.320163 -0.63747,0.03764 -1.11424,-0.105809 -1.64763,-0.500351 -0.23596,-0.174538 -0.49399,-0.314034 -0.73094,-0.40157 -0.23697,-0.0875 -0.44319,-0.144885 -0.64762,-0.06637 -0.0789,0.03026 -0.166,0.03714 -0.22713,0.0285 -0.0297,-0.0039 -0.0249,-0.0064 -0.0378,-0.01328 0.0401,-0.03793 0.11868,-0.08953 0.23083,-0.125136 0.4214,-0.133816 0.62181,-0.582151 0.64957,-1.028619 0.0277,-0.446478 -0.10728,-0.935741 -0.46576,-1.233406 -0.0828,-0.06868 -0.15123,-0.165332 -0.18751,-0.255739 -0.0363,-0.09041 -0.0352,-0.169605 -0.0246,-0.197173 0.0761,-0.19845 0.01,-0.379581 -0.0796,-0.589177 -0.0893,-0.209594 -0.22616,-0.436329 -0.39571,-0.645986 -0.30387,-0.375707 -0.69051,-0.991272 -0.82948,-1.311104 -0.21987,-0.506013 -0.72899,-0.84938 -1.51866,-1.089333 -0.29754,-0.09042 -0.62341,-0.217809 -0.90147,-0.350616 -0.27807,-0.132808 -0.51407,-0.277434 -0.60977,-0.363697 -0.93731,-0.844859 -2.61317,-1.261532 -4.12045,-1.244728 z"
         id="path38712" />
      <path
         id="path36163"
         style="color:#000000;fill:#00ccff;fill-opacity:1;stroke:#0000c9;stroke-width:0.412163;stroke-miterlimit:4;stroke-dasharray:none;stroke-opacity:1"
         d="m 129.0822,83.582189 c -1.0313,0.01149 -1.98742,0.222372 -2.58111,0.719974 -0.0282,0.02362 -0.12773,0.07538 -0.2443,0.107957 -0.11656,0.03257 -0.25309,0.0531 -0.36547,0.0531 -0.21018,0 -0.41719,0.100365 -0.64391,0.240512 -0.22672,0.140148 -0.46122,0.328156 -0.66089,0.539981 -0.17944,0.190387 -0.39505,0.386294 -0.59279,0.541933 -0.19772,0.155639 -0.3884,0.272508 -0.46947,0.302983 -0.17632,0.06626 -0.32946,0.199793 -0.46966,0.363892 -0.14019,0.164099 -0.26162,0.361117 -0.33893,0.564579 -0.0591,0.155676 -0.14978,0.298977 -0.23864,0.395908 -0.0888,0.09694 -0.18007,0.130798 -0.17991,0.130798 -0.1341,0 -0.22041,0.06216 -0.31434,0.134507 -0.094,0.07234 -0.19062,0.165982 -0.29347,0.280337 -0.2057,0.228712 -0.43278,0.53561 -0.65347,0.869709 -0.44138,0.668199 -0.8534,1.426973 -0.95806,1.945767 -0.0684,0.338775 -0.2105,0.822972 -0.29737,1.02862 -0.15389,0.364348 0.0221,0.779861 0.38068,1.114125 0.24696,0.230189 0.60122,0.763736 0.73289,1.110221 0.082,0.215844 0.20223,0.412031 0.33893,0.564579 0.13671,0.152538 0.28485,0.27381 0.48099,0.289903 0.21253,0.01736 0.51312,0.04735 0.66088,0.06442 -0.003,-3e-4 0.10162,0.04075 0.20079,0.121232 0.0991,0.08042 0.20886,0.193087 0.29347,0.30884 0.16304,0.22309 0.40326,0.377529 0.77249,0.46033 0.36924,0.08284 0.8777,0.112861 1.66266,0.128847 0.56421,0.01145 0.97706,0.01008 1.25934,0.04549 0.28228,0.0355 0.4112,0.09292 0.50947,0.22548 0.0983,0.132528 0.17296,0.38476 0.22342,0.81661 0.0505,0.431835 0.0812,1.035265 0.13639,1.856551 0.0854,1.272596 0.21169,2.828986 0.28215,3.472786 0.0683,0.6243 0.0407,1.04848 -0.0626,1.29607 -0.10333,0.24758 -0.25378,0.34948 -0.56996,0.39591 -0.34114,0.0502 -0.68465,0.2822 -0.87104,0.57785 -0.12587,0.19965 -0.16181,0.45444 -0.0418,0.6782 0.12013,0.22376 0.34579,0.43396 0.7083,0.73696 0.44683,0.37346 0.60557,0.46449 0.71397,1.34897 0.10838,0.8845 0.11161,2.5266 0.11161,5.79943 0,3.08636 -0.01,4.73088 -0.0757,5.65536 -0.0332,0.46223 -0.0803,0.743 -0.14205,0.92652 -0.0618,0.1835 -0.13136,0.27501 -0.2443,0.39981 -0.39628,0.43786 -0.71662,0.69029 -1.19475,0.8658 -0.47812,0.17551 -1.127,0.26942 -2.14559,0.34476 -0.96199,0.0711 -1.44264,0.0862 -1.77056,0.26706 -0.16397,0.0904 -0.2732,0.24398 -0.32391,0.41309 -0.0507,0.16911 -0.0634,0.35618 -0.0833,0.59679 -0.01,0.12031 -0.0233,0.24022 0.004,0.37131 0.0269,0.13108 0.1115,0.26745 0.24605,0.35804 0.2691,0.18117 0.69997,0.25762 1.5528,0.3184 1.70568,0.12159 5.09777,0.11928 11.88857,0.11928 6.79079,0 10.18322,0.002 11.90924,-0.0834 0.86302,-0.0425 1.30628,-0.0983 1.58695,-0.21396 0.14034,-0.0578 0.2455,-0.14459 0.30674,-0.24637 0.0613,-0.10177 0.0766,-0.19987 0.0927,-0.28424 0.0564,-0.29528 0.0691,-0.53655 -0.0605,-0.73891 -0.12961,-0.20235 -0.35188,-0.30781 -0.67045,-0.42812 -0.27677,-0.10453 -0.45463,-0.22942 -0.54733,-0.3145 0.0861,-4e-4 0.17406,-0.0186 0.24996,-0.0664 0.0767,-0.0483 0.13204,-0.12593 0.15922,-0.20831 0.0543,-0.16474 0.0244,-0.33825 -0.04,-0.54369 -0.12872,-0.41088 -0.4311,-0.96629 -0.90519,-1.68065 -0.38843,-0.58531 -0.60533,-0.95868 -0.68742,-1.19534 -0.0821,-0.23668 -0.0616,-0.30399 0.04,-0.44725 0.83888,-1.18388 1.3284,-2.42288 1.49973,-3.7949 0.086,-0.68886 0.11947,-1.12524 0.01,-1.61975 -0.11038,-0.4945 -0.35471,-1.02669 -0.79923,-1.94772 -0.53323,-1.10485 -1.41726,-2.60592 -1.99027,-3.3742 -0.56218,-0.75375 -0.96064,-1.41546 -1.18539,-1.94967 -0.22474,-0.5342 -0.26444,-0.93447 -0.176,-1.16508 0.0445,-0.11602 0.038,-0.2257 0.0226,-0.35823 -0.0154,-0.13253 -0.0471,-0.28331 -0.0929,-0.45076 -0.0916,-0.33491 -0.23848,-0.72962 -0.4203,-1.11413 -0.59222,-1.25247 -0.60657,-1.38091 -0.36352,-2.87404 0.14551,-0.893979 0.28757,-1.844888 0.32,-2.144696 0.0121,-0.1117 0.0557,-0.245733 0.11357,-0.356278 0.0579,-0.110536 0.13385,-0.196426 0.17619,-0.223528 0.14849,-0.09506 0.23432,-0.248773 0.30108,-0.422459 0.0667,-0.173674 0.10791,-0.372986 0.10791,-0.572192 0,-0.248095 -0.0329,-0.449674 -0.15903,-0.604404 -0.12616,-0.154721 -0.32805,-0.212206 -0.54362,-0.212206 -0.11601,0 -0.22096,-0.02605 -0.2802,-0.05486 -0.0324,-0.01579 -0.0421,-0.02723 -0.0445,-0.0287 -0.01,-0.208107 -0.15699,-0.352813 -0.33054,-0.482781 -0.17939,-0.13435 -0.41357,-0.255456 -0.67786,-0.359987 -0.52857,-0.209062 -1.17166,-0.351912 -1.70988,-0.320163 -0.63747,0.03764 -1.11424,-0.105809 -1.64763,-0.500351 -0.23596,-0.174538 -0.49399,-0.314034 -0.73094,-0.40157 -0.23697,-0.0875 -0.44319,-0.144885 -0.64762,-0.06637 -0.0789,0.03026 -0.166,0.03714 -0.22713,0.0285 -0.0297,-0.0039 -0.0249,-0.0064 -0.0378,-0.01328 0.0401,-0.03793 0.11868,-0.08953 0.23083,-0.125136 0.4214,-0.133816 0.62181,-0.582151 0.64957,-1.028619 0.0277,-0.446478 -0.10728,-0.935741 -0.46576,-1.233406 -0.0828,-0.06868 -0.15123,-0.165332 -0.18751,-0.255739 -0.0363,-0.09041 -0.0352,-0.169605 -0.0246,-0.197173 0.0761,-0.19845 0.01,-0.379581 -0.0796,-0.589177 -0.0893,-0.209594 -0.22616,-0.436329 -0.39571,-0.645986 -0.30387,-0.375707 -0.69051,-0.991272 -0.82948,-1.311104 -0.21987,-0.506013 -0.72899,-0.84938 -1.51866,-1.089333 -0.29754,-0.09042 -0.62341,-0.217809 -0.90147,-0.350616 -0.27807,-0.132808 -0.51407,-0.277434 -0.60977,-0.363697 -0.93731,-0.844859 -2.61317,-1.261532 -4.12045,-1.244728 z m 0.004,0.376971 c 1.4315,-0.01596 3.05084,0.41598 3.86308,1.148094 0.15721,0.141723 0.40339,0.281396 0.69874,0.422458 0.29535,0.141064 0.63473,0.27614 0.95435,0.373263 0.73837,0.224364 1.12238,0.509587 1.28217,0.877323 0.16769,0.385965 0.55211,0.989857 0.88235,1.398172 0.14749,0.182362 0.27001,0.38604 0.34284,0.556965 0.0728,0.17093 0.0707,0.320042 0.0757,0.306887 -0.0605,0.157739 -0.0361,0.320805 0.0246,0.471849 0.0606,0.151054 0.16207,0.294892 0.29737,0.407231 0.23117,0.191951 0.35302,0.570099 0.33132,0.918905 -0.0217,0.348814 -0.17693,0.624414 -0.3881,0.691473 -0.16553,0.05258 -0.30372,0.127512 -0.40352,0.231141 -0.0499,0.0518 -0.0909,0.112239 -0.11161,0.189559 -0.0207,0.07731 -0.0103,0.173717 0.0357,0.248126 0.0808,0.130743 0.21559,0.18588 0.34849,0.204592 0.1329,0.01872 0.27621,0.0019 0.41464,-0.05115 0.0129,-0.0048 0.18479,-0.005 0.38264,0.06833 0.19785,0.07304 0.42971,0.197748 0.63611,0.35042 0.58794,0.434897 1.18393,0.616051 1.89368,0.574146 0.45016,-0.02658 1.06739,0.104263 1.55105,0.295564 0.24184,0.09565 0.45046,0.206938 0.58889,0.310597 0.13842,0.103667 0.1799,0.195848 0.1799,0.200882 0,0.174567 0.12882,0.284922 0.25562,0.346712 0.1268,0.06179 0.27889,0.09293 0.44508,0.09293 0.1579,0 0.21474,0.0284 0.25171,0.07379 0.0369,0.0453 0.0741,0.155948 0.0741,0.365649 0,0.146669 -0.0319,0.309057 -0.0814,0.437685 -0.0494,0.128615 -0.12549,0.220916 -0.15337,0.238755 -0.13402,0.08575 -0.22842,0.215682 -0.30693,0.365649 -0.0785,0.149958 -0.13669,0.319971 -0.15513,0.49059 -0.0287,0.264849 -0.17328,1.235205 -0.31825,2.125761 -0.24477,1.503802 -0.20199,1.831722 0.39572,3.095812 0.17246,0.36473 0.31323,0.74278 0.39766,1.05146 0.0422,0.15434 0.0694,0.29329 0.0816,0.39786 0.0121,0.10456 8e-4,0.1807 0.002,0.17824 -0.14776,0.38525 -0.0633,0.86923 0.17991,1.44737 0.24322,0.57813 0.65693,1.25743 1.23104,2.02717 0.54263,0.72754 1.4321,2.23601 1.95222,3.31368 0.44293,0.91774 0.67202,1.42999 0.76899,1.86436 0.097,0.43437 0.0716,0.81015 -0.0135,1.4911 -0.16386,1.31215 -0.62596,2.48282 -1.43339,3.62232 -0.14883,0.21001 -0.19638,0.48278 -0.0892,0.79201 0.10727,0.30923 0.33631,0.68718 0.72898,1.27889 0.46461,0.70009 0.75563,1.24728 0.86167,1.58578 0.053,0.16925 0.0511,0.28273 0.042,0.3106 -0.005,0.014 -0.003,0.008 -0.004,0.008 -9e-4,6e-4 -0.0144,0.008 -0.0511,0.008 -0.15558,0 -0.28906,0.0158 -0.39006,0.13841 -0.0505,0.0613 -0.0726,0.15032 -0.0624,0.22158 0.0102,0.0712 0.0398,0.12761 0.0757,0.17804 0.14352,0.20177 0.41566,0.36633 0.79533,0.50972 0.29846,0.11271 0.43602,0.20241 0.48469,0.27839 0.0487,0.076 0.0585,0.19506 0.008,0.46228 -0.0161,0.0844 -0.029,0.13364 -0.0455,0.16106 -0.0165,0.0275 -0.0369,0.0538 -0.12683,0.091 -0.18,0.0742 -0.61109,0.14376 -1.46188,0.18566 -1.70155,0.0838 -5.09952,0.0853 -11.89032,0.0853 -6.79079,0 -10.19021,-0.002 -11.86007,-0.12123 -0.83493,-0.0596 -1.238,-0.16448 -1.37095,-0.25399 -0.0665,-0.0447 -0.0765,-0.0661 -0.0874,-0.11928 -0.011,-0.0532 -0.006,-0.14305 0.004,-0.26335 0.0199,-0.24062 0.0363,-0.41502 0.0681,-0.52104 0.0318,-0.10604 0.0575,-0.14169 0.144,-0.18937 0.17295,-0.0953 0.6552,-0.15062 1.6172,-0.22177 1.02938,-0.0761 1.70811,-0.16935 2.24764,-0.36741 0.53953,-0.19804 0.92746,-0.50542 1.34461,-0.96634 0.12764,-0.14104 0.24293,-0.29955 0.32195,-0.53432 0.079,-0.23476 0.12655,-0.54226 0.16078,-1.01925 0.0685,-0.95396 0.0759,-2.59689 0.0759,-5.68385 0,-3.27283 0.001,-4.90427 -0.11376,-5.84297 -0.11504,-0.93869 -0.40139,-1.21972 -0.84821,-1.59319 -0.35226,-0.29443 -0.54745,-0.50028 -0.61562,-0.62725 -0.0682,-0.12697 -0.0604,-0.15933 0.0265,-0.29732 0.10632,-0.16864 0.4282,-0.37898 0.60801,-0.40547 0.39931,-0.0586 0.71424,-0.2678 0.86343,-0.6253 0.14917,-0.35748 0.16211,-0.83065 0.0909,-1.48153 -0.0685,-0.62663 -0.19701,-2.18947 -0.28215,-3.45775 -0.055,-0.818638 -0.0853,-1.420346 -0.13834,-1.873731 -0.053,-0.453393 -0.12368,-0.766734 -0.29542,-0.99836 -0.17174,-0.231634 -0.43741,-0.335774 -0.76489,-0.376971 -0.32748,-0.04123 -0.73867,-0.03414 -1.29719,-0.04549 -0.77763,-0.01581 -1.2741,-0.05065 -1.5889,-0.121232 -0.31478,-0.07062 -0.43729,-0.156482 -0.55279,-0.314501 -0.10581,-0.144796 -0.23122,-0.277976 -0.35805,-0.380875 -0.12683,-0.102903 -0.24056,-0.18488 -0.39571,-0.202835 -0.15717,-0.01824 -0.45644,-0.04667 -0.67416,-0.06442 -0.019,-0.0019 -0.12727,-0.05316 -0.22908,-0.166719 -0.1018,-0.11359 -0.20236,-0.274678 -0.26712,-0.445103 -0.1619,-0.42603 -0.51112,-0.955784 -0.82928,-1.252343 -0.29355,-0.273607 -0.36264,-0.518922 -0.28976,-0.691472 0.10963,-0.259571 0.24595,-0.733829 0.32,-1.100851 0.0783,-0.388392 0.47521,-1.168207 0.90128,-1.813212 0.21303,-0.322507 0.43313,-0.616987 0.61933,-0.824027 0.0931,-0.10352 0.17935,-0.18502 0.2443,-0.235046 0.065,-0.05003 0.11344,-0.05486 0.0833,-0.05486 0.19155,0 0.33184,-0.114025 0.45835,-0.25203 0.12653,-0.138007 0.23609,-0.318252 0.3124,-0.519093 0.0582,-0.153055 0.16129,-0.318402 0.27454,-0.45096 0.11324,-0.132557 0.24164,-0.230368 0.31434,-0.257692 0.16796,-0.06313 0.35701,-0.192165 0.56996,-0.359792 0.21296,-0.167628 0.43975,-0.37138 0.63435,-0.577854 0.17441,-0.185026 0.38878,-0.358056 0.58518,-0.479463 0.19641,-0.121408 0.38736,-0.183702 0.44508,-0.183702 0.15553,0 0.31744,-0.02493 0.46577,-0.06638 0.14832,-0.04145 0.28051,-0.09326 0.38634,-0.181945 0.476,-0.398951 1.36304,-0.621792 2.34248,-0.632711 z m 7.76967,9.961733 c -0.15228,0.0058 -0.26803,0.09594 -0.37308,0.202835 -0.10504,0.106849 -0.21375,0.246681 -0.35415,0.426167 -0.39121,0.50012 -0.73669,0.693425 -1.17212,0.693425 -0.4516,0 -1.10234,0.173673 -1.54324,0.403716 -0.19131,0.09984 -0.41508,0.192935 -0.61542,0.259449 -0.20033,0.06654 -0.38766,0.103978 -0.45835,0.104248 -0.11527,3e-4 -0.25083,0.02726 -0.35025,0.126894 -0.0995,0.09965 -0.14187,0.233686 -0.16488,0.401764 -0.046,0.336147 -0.0211,0.86376 0.0379,1.792129 0.0559,0.881693 0.11087,1.435136 0.21776,1.83586 0.10687,0.40072 0.28456,0.65356 0.53405,0.85272 0.25115,0.2005 0.4961,0.34047 0.86362,0.44335 0.36752,0.10287 0.8583,0.17718 1.65115,0.27467 0.20277,0.0249 0.34842,-0.0993 0.47357,-0.24246 0.12514,-0.14317 0.23305,-0.33212 0.30849,-0.54759 0.10958,-0.31301 0.55663,-0.83003 0.92801,-1.042094 0.32206,-0.1839 0.54892,-0.356543 0.68743,-0.598743 0.13851,-0.242207 0.17424,-0.525325 0.17424,-0.903677 0,-0.447987 0.18686,-1.251463 0.39943,-1.697446 0.20616,-0.432558 0.33551,-0.695459 0.28215,-0.998555 -0.0533,-0.303097 -0.25901,-0.54826 -0.62109,-1.002264 -0.19551,-0.245148 -0.33984,-0.427798 -0.46966,-0.558918 -0.12983,-0.131119 -0.26297,-0.232445 -0.43552,-0.22548 z m 0.0152,0.377167 c 0.003,-9.7e-5 0.0479,0.01107 0.15142,0.115571 0.10352,0.10456 0.24763,0.281569 0.44312,0.526706 0.36105,0.452686 0.51807,0.676494 0.54538,0.83164 0.0273,0.155148 -0.0467,0.340768 -0.25191,0.771124 -0.24791,0.520152 -0.43727,1.316783 -0.43727,1.860455 0,0.353558 -0.0342,0.560769 -0.12313,0.716265 -0.0889,0.155487 -0.24777,0.287321 -0.54732,0.458379 -0.47086,0.268865 -0.93418,0.78133 -1.09641,1.24473 -0.0605,0.17271 -0.15119,0.3266 -0.23668,0.42441 -0.0855,0.0978 -0.16307,0.11322 -0.14401,0.11557 -0.78846,-0.097 -1.26697,-0.1717 -1.59436,-0.26335 -0.32739,-0.0917 -0.50319,-0.19321 -0.73094,-0.37502 -0.20418,-0.16299 -0.31113,-0.30738 -0.40352,-0.6538 -0.0924,-0.346407 -0.15064,-0.88843 -0.20624,-1.763819 -0.0588,-0.924778 -0.0753,-1.456596 -0.0398,-1.716382 0.0177,-0.129888 0.0485,-0.177467 0.0568,-0.185655 0.008,-0.0078 0.0149,-0.01503 0.0855,-0.01523 0.16288,-6e-4 0.35547,-0.05211 0.57542,-0.125137 0.21995,-0.07304 0.45764,-0.171249 0.67045,-0.282289 0.36736,-0.191689 1.02677,-0.361744 1.36899,-0.361744 0.55682,0 1.03722,-0.286599 1.46968,-0.839451 0.1404,-0.179495 0.247,-0.31413 0.32547,-0.393956 0.0785,-0.07983 0.11665,-0.08892 0.11942,-0.08902 z m -5.26642,10.85038 c -0.0752,-7e-4 -0.18379,0.0561 -0.22342,0.13451 -0.0407,0.0806 -0.0404,0.1362 -0.0492,0.21962 -0.009,0.0834 -0.014,0.18519 -0.017,0.30708 -0.006,0.24378 -0.003,0.56433 0.008,0.94526 0.0231,0.76188 0.0778,1.75959 0.15161,2.81723 0.14767,2.11534 0.37104,4.46471 0.57562,5.6536 0.30091,1.74872 0.51382,2.82542 0.75552,3.58836 0.24169,0.76295 0.52206,1.21675 0.92606,1.66914 0.87165,0.97602 2.17897,1.34795 3.8063,1.11783 0.61902,-0.0875 1.57903,-0.14003 2.09057,-0.11557 0.32426,0.0155 0.59589,-0.005 0.81426,-0.0644 0.21836,-0.0604 0.40494,-0.16828 0.47922,-0.36194 0.0559,-0.14571 0.0205,-0.2444 -0.0133,-0.3922 -0.0337,-0.14779 -0.0894,-0.32667 -0.16293,-0.53042 -0.14705,-0.40747 -0.36674,-0.91361 -0.62498,-1.42667 -0.40724,-0.80907 -0.62682,-1.29613 -0.72528,-1.69374 -0.0985,-0.39761 -0.0855,-0.7169 -0.01,-1.23711 0.0928,-0.63835 0.34323,-1.5088 0.52079,-1.8587 0.0881,-0.17357 0.15641,-0.31433 0.19493,-0.46228 0.0385,-0.14796 0.0389,-0.3057 -0.0133,-0.45838 -0.10426,-0.30538 -0.3626,-0.59372 -0.83884,-1.13502 -0.52119,-0.59236 -1.25173,-1.80565 -1.5811,-2.63528 -0.27912,-0.70307 -0.45865,-1.11581 -0.70635,-1.40208 -0.24769,-0.28627 -0.55565,-0.41081 -0.9924,-0.52846 -0.25329,-0.0682 -0.49929,-0.15599 -0.68548,-0.237 -0.0931,-0.0406 -0.17185,-0.0794 -0.22537,-0.11167 -0.0535,-0.0323 -0.0821,-0.0704 -0.0644,-0.0418 -0.0597,-0.0967 -0.12622,-0.12619 -0.20644,-0.16672 -0.0802,-0.0406 -0.17583,-0.0773 -0.28586,-0.11362 -0.22007,-0.0726 -0.49585,-0.13955 -0.78401,-0.18566 -0.60932,-0.0975 -1.11725,-0.37402 -1.40704,-0.74262 -0.12062,-0.15341 -0.239,-0.28061 -0.35025,-0.37521 -0.11125,-0.0946 -0.19293,-0.1747 -0.35611,-0.17609 z m 0.0985,0.45642 c 0.005,0.004 0.009,0.004 0.0133,0.008 0.0849,0.0722 0.19131,0.18499 0.29912,0.32212 0.36373,0.46263 0.95594,0.77127 1.64198,0.88103 0.26911,0.0431 0.52975,0.10593 0.72528,0.17043 0.0978,0.0323 0.18017,0.0654 0.23473,0.0929 0.0546,0.0275 0.0798,0.0656 0.0568,0.0283 0.0544,0.0881 0.11433,0.12135 0.18947,0.16672 0.0751,0.0454 0.16509,0.0895 0.26888,0.1347 0.20759,0.0903 0.46776,0.18084 0.73855,0.25379 0.41768,0.11251 0.61858,0.19605 0.80469,0.41113 0.18612,0.2151 0.36537,0.59722 0.64196,1.29393 0.35233,0.88743 1.07508,2.09483 1.64744,2.74539 0.47435,0.53915 0.70483,0.83144 0.76509,1.00792 0.0302,0.0883 0.0305,0.1468 0.006,0.24051 -0.0244,0.0937 -0.0809,0.21941 -0.16663,0.38849 -0.2225,0.43847 -0.45766,1.29441 -0.5567,1.97603 -0.078,0.53668 -0.0972,0.92739 0.0152,1.38119 0.11238,0.4538 0.34571,0.9592 0.75553,1.77339 0.25197,0.50059 0.46567,0.99643 0.60586,1.38489 0.0701,0.19423 0.12147,0.36125 0.14966,0.48493 0.0241,0.10565 0.0155,0.19187 0.0242,0.18449 -0.0206,0.0334 -0.0812,0.0838 -0.22108,0.12259 -0.15793,0.0437 -0.39679,0.0654 -0.69504,0.0512 -0.55767,-0.0267 -1.51175,0.0254 -2.16256,0.11733 -1.54579,0.21859 -2.69116,-0.12132 -3.47108,-0.99465 -0.37973,-0.42521 -0.61844,-0.80484 -0.8484,-1.53073 -0.22995,-0.72589 -0.44203,-1.79441 -0.74226,-3.53916 -0.19817,-1.15166 -0.42475,-3.50728 -0.57191,-5.61553 -0.0736,-1.05411 -0.1268,-2.04842 -0.14966,-2.8022 -0.0114,-0.37689 -0.0156,-0.69291 -0.01,-0.92457 0.002,-0.0891 0.007,-0.153 0.0115,-0.21415 z m -10.28796,20.37951 c -0.009,0.004 -0.0181,0.008 -0.0271,0.0123 l 0.0267,0.015 c 0.0159,0.01 0.0257,0.0152 0.0322,0.0189 l 0.002,-0.002 0.0133,-0.017 -0.0209,0.01 -0.0359,-0.0246 z" />
    </g>
  </g>
</svg>
